<svg xmlns="http://www.w3.org/2000/svg" viewBox="0 0 64 64"><path d="M16.004 60.998h2.002V63a1 1 0 001 1h7.998a1 1 0 001-1v-2.002h7.991V63a1 1 0 001 1h7.998a1 1 0 001-1v-2.002h2.003a1 1 0 001-1V5a1 1 0 00-.294-.708L44.704.293A1 1 0 0043.996 0H20.004a1 1 0 00-.708.294l-3.998 3.999a.99.99 0 00-.217.326.982.982 0 00-.077.381v54.998a1 1 0 001 1zM20.418 2h23.164l2 2H18.418zm5.586 60h-5.998v-1.002h5.998zm17.989 0h-5.998v-1.002h5.998zm3.003-3.002H17.004V6h29.992z"/><path d="M27 17.001h.131l.879 6.141A1 1 0 0029 24h5.998a1 1 0 00.99-.858l.879-6.141h.132a1 1 0 001-1v-2.999a1 1 0 00-1-1V9c0-.043-.02-.08-.024-.122-.005-.041.004-.08-.006-.121-.006-.025-.024-.043-.032-.068a.964.964 0 00-.089-.186.984.984 0 00-.102-.152.992.992 0 00-.141-.126 1.03 1.03 0 00-.159-.107c-.054-.027-.11-.044-.169-.062a.994.994 0 00-.205-.042c-.025-.001-.047-.014-.073-.014-.042 0-.078.019-.118.024-.042.005-.082-.005-.124.006l-8 2c-.026.006-.045.025-.07.034a.946.946 0 00-.182.086.88.88 0 00-.155.105.97.97 0 00-.125.139.911.911 0 00-.107.16c-.028.055-.045.112-.063.172a.898.898 0 00-.04.2c-.002.026-.016.049-.016.076l.001 1a1 1 0 00-1 1v2.999a1 1 0 001 1zM34.131 22h-4.264l-.715-4.998h5.693zm1.868-7.998v.999H28v-.999h.001zm-6.999-2l-.001-.221 6-1.5v1.721zm-9.001 19.997h6.998a1 1 0 001-1v-3a1 1 0 00-1-1h-6.998a1 1 0 00-1 1v3a1 1 0 001 1zm1-3h4.998v1h-4.998zm9.029 1.5a1 1 0 000-2h-.011c-.552 0-.994.448-.994 1s.453 1 1.005 1zm5.973-2.5v3a1 1 0 001 1h6.998a1 1 0 001-1v-3a1 1 0 00-1-1h-6.998a1 1 0 00-1 1zm2 1h4.998v1h-4.998zm-3.971 1.5a1 1 0 000-2h-.01c-.552 0-.994.448-.994 1s.452 1 1.004 1zm-14.031 8.499h6.998a1 1 0 001-1v-3a1 1 0 00-1-1h-6.998a1 1 0 00-1 1v3a1 1 0 001 1zm1-3h4.998v1h-4.998zm9.029 1.5a1 1 0 100-2h-.011c-.552 0-.994.447-.994 1s.453 1 1.005 1zm13.971-3.5h-6.998a1 1 0 00-1 1v3a1 1 0 001 1h6.998a1 1 0 001-1v-3a1 1 0 00-1-1zm-1 3h-4.998v-1h4.998zm-8.969.5a1 1 0 100-2h-.01c-.552 0-.994.447-.994 1s.452 1 1.004 1zM38 42.002h-5.995L32 42.001l-.005.001h-5.997a1 1 0 00-1 1v10a1 1 0 001 1H38a1 1 0 001-1v-10a1 1 0 00-1-1zm-7.779 7h3.559l-.6 3h-2.354zm6.779 3h-1.781l.761-3.804c.007-.033-.003-.065 0-.099s.02-.063.02-.098-.017-.065-.021-.1a.991.991 0 00-.216-.524.978.978 0 00-.476-.318c-.032-.011-.058-.032-.092-.039s-.066.003-.102 0c-.032-.004-.061-.02-.095-.02h-6c-.034 0-.063.016-.096.02-.034.003-.067-.007-.102 0s-.06.028-.093.039a1.046 1.046 0 00-.34.182.9.9 0 00-.133.136.92.92 0 00-.177.328.949.949 0 00-.04.199c-.003.033-.02.063-.02.097s.017.063.02.097-.007.066 0 .101l.767 3.803h-1.787v-8H31v.999a1 1 0 102 0v-.999h4z"/></svg>