<svg xmlns="http://www.w3.org/2000/svg" viewBox="0 0 64 64"><path d="M12 60.998h2.002V63a1 1 0 001 1h10a1 1 0 001-1v-2.002h11.994V63a1 1 0 001 1h10a1 1 0 001-1v-2.002H52a1 1 0 001-1V5c0-.13-.026-.26-.077-.382a.99.99 0 00-.217-.326L48.708.294a.99.99 0 00-.326-.217A.991.991 0 0048 0H16c-.13 0-.26.026-.382.077a.99.99 0 00-.326.217l-3.998 3.998a.99.99 0 00-.217.326A.991.991 0 0011 5v54.998a1 1 0 001 1zM16.414 2h31.172l2 2H14.414zM13 6h18v52.998H13zm11.002 56h-8v-1.002h8zm23.994 0h-8v-1.002h8zM51 58.998H33V6h18z"/><path d="M36 28.006h12a1 1 0 001-1v-8a1 1 0 00-1-1H36a1 1 0 00-1 1v8a1 1 0 001 1zm1-8h10v6H37zm-.97 10h-.01c-.552 0-.994.447-.994 1s.452 1 1.005 1a1 1 0 10-.001-2zm3 2a1 1 0 100-2h-.01c-.552 0-.994.447-.994 1s.452 1 1.004 1zm3 0a1 1 0 100-2h-.01c-.552 0-.994.447-.994 1s.452 1 1.004 1zm5.97-2h-3a1 1 0 100 2h3a1 1 0 100-2zm-11.97 3h-.01c-.552 0-.994.447-.994 1s.452 1 1.005 1a1 1 0 10-.001-2zm3 2a1 1 0 100-2h-.01c-.552 0-.994.447-.994 1s.452 1 1.004 1zm3 0a1 1 0 100-2h-.01c-.552 0-.994.447-.994 1s.452 1 1.004 1zm5.97-2h-3a1 1 0 100 2h3a1 1 0 100-2zm-11.97 3h-.01c-.552 0-.994.447-.994 1s.452 1 1.005 1a1 1 0 10-.001-2zm3 2a1 1 0 100-2h-.01c-.552 0-.994.447-.994 1s.452 1 1.004 1zm3 0a1 1 0 100-2h-.01c-.552 0-.994.447-.994 1s.452 1 1.004 1zm5.97-2h-3a1 1 0 100 2h3a1 1 0 100-2zm-3 4.998h-6a1 1 0 100 2v5c0 .011.006.02.006.03.002.066.024.13.04.196.016.065.024.131.052.19.004.01.003.021.008.03a.977.977 0 00.179.248c.015.015.033.024.049.039a.993.993 0 00.323.196c.109.04.224.068.342.069h.003l.006-.001a.991.991 0 00.413-.098c.009-.005.019-.003.027-.007L42 48.122l1.553.776c.009.004.019.002.027.007a.991.991 0 00.413.098l.006.001h.003a1.027 1.027 0 00.431-.107c.085-.042.163-.094.234-.158.016-.015.034-.024.049-.039.069-.072.132-.153.179-.248.005-.01.004-.021.008-.029.028-.061.036-.127.052-.191.016-.066.038-.13.04-.196 0-.011.006-.02.006-.03v-5A1.002 1.002 0 0045 41.004zm-2 5.382l-.553-.276c-.021-.011-.046-.009-.067-.019a1.023 1.023 0 00-.197-.053c-.062-.012-.121-.024-.183-.023-.062-.001-.121.012-.183.023a.956.956 0 00-.197.053c-.021.01-.046.008-.067.019l-.553.276v-3.382h2zM16 43h12a1 1 0 001-1V19a1 1 0 00-1-1H16a1 1 0 00-1 1v23a1 1 0 001 1zm5.756-16.003h.488l1.429 5.004h-3.347zM20 34.001h3.999V41H20zM17 20h4v1a1 1 0 102 0v-1h4v21h-1.001v-7.999c0-.048-.021-.089-.027-.135-.006-.047.003-.092-.011-.139l-1.654-5.792c.4-.13.693-.495.693-.938a1 1 0 00-1-1h-4a1 1 0 00-1 1 .99.99 0 00.692.938l-1.654 5.791c-.014.047-.005.094-.011.141-.006.046-.027.086-.027.134V41h-1z"/></svg>