<svg xmlns="http://www.w3.org/2000/svg" viewBox="0 0 64 64"><path d="M36.504 36.018c-4.963 0-9 4.037-9 9s4.037 9 9 9 9-4.037 9-9-4.037-9-9-9zm0 16c-3.859 0-7-3.141-7-7s3.141-7 7-7 7 3.141 7 7-3.141 7-7 7z"/><path d="M35.759 40.349c-.543.606-3.255 3.73-3.255 5.669 0 2.206 1.794 4 4 4s4-1.794 4-4c0-1.938-2.712-5.063-3.255-5.669-.381-.424-1.109-.424-1.49 0zm.745 7.669c-1.103 0-2-.897-2-2 0-.636.939-2.125 2-3.452 1.063 1.334 2 2.834 2 3.452 0 1.102-.898 2-2 2z"/><path d="M58.083.092l-13.003 6c-.047.021-.078.061-.12.088-.063.041-.129.078-.181.132-.047.049-.075.107-.11.163-.033.053-.072.101-.096.159-.029.074-.036.153-.047.232-.006.046-.027.086-.027.134v.033l.003 13.559-2.998-2.998v-3.586a3.002 3.002 0 00-2.998-2.998h-22a3.002 3.002 0 00-2.998 2.998v3.578l-8.716 8.716a.99.99 0 00-.217.326.991.991 0 00-.077.382v35.989c0 .131.026.261.078.384.035.086.095.157.152.229.023.03.034.066.063.095.048.048.107.071.161.107.054.035.1.081.16.105a.975.975 0 00.386.081l.01-.002h17.984l.01.002.01-.002h25.994a1 1 0 001-1V27.01c0-.13-.026-.26-.077-.382a.99.99 0 00-.217-.326l-3.71-3.71-.003-14.952 12.422-5.731A1 1 0 0059.41.582a.998.998 0 00-1.327-.49zM16.506 13.01h22c.551 0 .998.447.998.998v3H15.508v-3c0-.551.447-.998.998-.998zM14.5 19.422l6.588 6.588H7.912zm-1 34.162l-7.002 7.002V28.01H13.5zm2-25.574h7.002v32.576L15.5 53.584zm-1 27.402l6.586 6.586H7.914zM24.502 28.01h24.004v33.988H24.502zm-.586-2l-7.002-7.002H40.09l4.705 4.705 2.297 2.297z"/></svg>