<svg xmlns="http://www.w3.org/2000/svg" viewBox="0 0 64 64"><path d="M19.998 0a1 1 0 00-1 1v62a1 1 0 001 1h24.004a1 1 0 001-1V1a1 1 0 00-1-1zm1 5.001h22.004V59H20.998zM43.002 2v1.001H20.998V2zM20.998 62v-1h22.004v1z"/><path d="M31.998 6c-5.514 0-10 4.486-10 10v6c0 5.511 4.481 9.994 9.99 10-5.509.005-9.99 4.488-9.99 9.999v6c0 5.514 4.486 10 10 10s10-4.486 10-10v-6c0-5.511-4.481-9.994-9.99-9.999 5.509-.006 9.99-4.489 9.99-10v-6c0-5.514-4.486-10-10-10zm0 2c4.411 0 8 3.589 8 8s-3.589 8-8 8-8-3.589-8-8 3.589-8 8-8zm6.64 15.456C37.2 25.592 34.761 27 31.998 27s-5.202-1.408-6.64-3.544c1.768 1.577 4.09 2.544 6.64 2.544s4.872-.967 6.64-2.544zm-6.64 32.543a7.997 7.997 0 01-6.64-3.544c1.768 1.577 4.09 2.544 6.64 2.544s4.872-.967 6.64-2.544a7.997 7.997 0 01-6.64 3.544zm-6.64-6.544c1.768 1.577 4.09 2.544 6.64 2.544s4.872-.967 6.64-2.544c-1.438 2.136-3.877 3.544-6.64 3.544s-5.202-1.408-6.64-3.544zm14.64-7.456c0 4.411-3.589 8-8 8s-8-3.589-8-8 3.589-8 8-8 8 3.589 8 8zm-8-11.999a7.997 7.997 0 01-6.64-3.544c1.768 1.577 4.09 2.544 6.64 2.544s4.872-.967 6.64-2.544A7.997 7.997 0 0131.998 30z"/><path d="M31.998 20c2.206 0 4-1.794 4-4s-1.794-4-4-4-4 1.794-4 4 1.794 4 4 4zm0-6c1.103 0 2 .897 2 2s-.897 2-2 2-2-.897-2-2 .898-2 2-2zm.03-3a1 1 0 100-2h-.011c-.552 0-.994.447-.994 1s.453 1 1.005 1zm0 10h-.011c-.552 0-.994.447-.994 1s.452 1 1.005 1a1 1 0 100-2zm-4.242-8.243a1 1 0 100-2h-.011c-.552 0-.994.447-.994 1s.452 1 1.005 1zm8.485 6.485h-.011c-.552 0-.994.447-.994 1s.452 1 1.005 1a1 1 0 100-2zm-9.243-3.243a1 1 0 00-1-1h-.011a.995.995 0 00-.994 1 1.003 1.003 0 002.005 0zm11 1a1 1 0 100-2h-.011c-.552 0-.994.447-.994 1s.453 1 1.005 1z"/><path d="M32.028 16.999a1 1 0 100-2h-.011c-.552 0-.994.447-.994 1s.453 1 1.005 1zm-4.242 2.243h-.011c-.552 0-.994.447-.994 1s.452 1 1.005 1a1 1 0 100-2zm8.485-6.486a1 1 0 100-2h-.011c-.552 0-.994.447-.994 1s.452 1 1.005 1zm-8.273 29.243c0 2.206 1.794 4 4 4s4-1.794 4-4-1.794-4-4-4-4 1.794-4 4zm6 0c0 1.103-.897 2-2 2s-2-.897-2-2 .897-2 2-2 2 .897 2 2zm-2.975-6a1.003 1.003 0 002.005 0 1 1 0 00-1-1h-.011a.995.995 0 00-.994 1zm1.005 11h-.011c-.552 0-.994.447-.994 1s.452 1 1.005 1a1 1 0 100-2zm-4.242-8.243a1 1 0 100-2h-.011c-.552 0-.994.447-.994 1s.452 1 1.005 1zm8.485 6.485h-.011c-.552 0-.994.447-.994 1s.452 1 1.005 1a1 1 0 100-2zm-10.243-4.243h-.011c-.552 0-.994.447-.994 1s.452 1 1.005 1a1 1 0 100-2zm12 2a1 1 0 100-2h-.011c-.552 0-.994.447-.994 1s.453 1 1.005 1z"/><path d="M31.023 41.998a1.003 1.003 0 002.005 0 1 1 0 00-1-1h-.011a.995.995 0 00-.994 1zm-3.237 3.243h-.011c-.552 0-.994.447-.994 1s.452 1 1.005 1a1 1 0 100-2zm8.485-6.486a1 1 0 100-2h-.011c-.552 0-.994.447-.994 1s.452 1 1.005 1z"/></svg>