<svg xmlns="http://www.w3.org/2000/svg" viewBox="0 0 64 64"><path d="M15.994 0a1 1 0 00-1 1v62a1 1 0 001 1h32.012a1 1 0 001-1V1a1 1 0 00-1-1zm1 9.005h30.012v24.998H16.994zM32.003 2h15.003v5.005H16.994V2zM16.994 62V36.003h30.012V62z"/><path d="M45.778 16.376a1.002 1.002 0 00-.773-.366h-.081c-.487-3.388-3.402-6.003-6.923-6.003H26.005c-3.521 0-6.436 2.615-6.923 6.003h-.081a1.001 1.001 0 00-.98 1.196l3.003 14.993a1 1 0 00.98.804h19.998a.998.998 0 00.98-.804l3.003-14.993a.998.998 0 00-.207-.83zm-12.053-4.369c-.347.595-.985 1-1.722 1s-1.375-.405-1.722-1zm-7.72 0h2.14c.447 1.721 2 3 3.858 3s3.411-1.279 3.858-3h2.14a5.009 5.009 0 014.901 4.003H21.104a5.009 5.009 0 014.901-4.003zm15.178 18.996h-18.36L20.221 18.01h23.564z"/><path d="M32.003 29.001a1 1 0 001-1v-6.997a1 1 0 10-2 0v6.997a1 1 0 001 1zm4.857-.01a1 1 0 001.132-.848l1.001-6.997a1 1 0 00-1.981-.283l-1.001 6.997a1 1 0 00.849 1.131zm-9.855.01a1 1 0 00.992-1.142l-1.001-6.997a1 1 0 00-1.981.283l1.001 6.997a1 1 0 00.989.859zm18 14.008h-.081c-.487-3.388-3.402-6.003-6.923-6.003H26.005c-3.521 0-6.436 2.615-6.923 6.003h-.081a.996.996 0 00-.983 1.184l3.003 15.994a.998.998 0 00.982.815h19.998a.998.998 0 00.982-.815l3.003-15.994a.996.996 0 00-.981-1.184zm-11.28-4.003c-.347.595-.985 1-1.722 1s-1.375-.405-1.722-1zm-7.72 0h2.14c.447 1.721 2 3 3.858 3s3.411-1.279 3.858-3h2.14a5.009 5.009 0 014.901 4.003H21.104a5.009 5.009 0 014.901-4.003zm15.167 19.997H22.834l-2.628-13.994H43.8z"/><path d="M32.003 57.001a1 1 0 001-1v-7.998a1 1 0 10-2 0v7.998a1 1 0 001 1zm4.875-.008a1 1 0 001.116-.868l1.001-7.998a1 1 0 10-1.984-.248l-1.001 7.998a.999.999 0 00.868 1.116zm-9.873.008a.999.999 0 00.993-1.124l-1.001-7.998a.999.999 0 10-1.984.248l1.001 7.998a1 1 0 00.991.876zM29.503 4.5c0 1.379 1.121 2.5 2.5 2.5s2.5-1.121 2.5-2.5-1.121-2.5-2.5-2.5-2.5 1.121-2.5 2.5zm2.5-.5c.275 0 .5.225.5.5s-.225.5-.5.5-.5-.225-.5-.5.225-.5.5-.5zm-10 1.5h5a1 1 0 100-2h-5a1 1 0 100 2zm15 0h5a1 1 0 100-2h-5a1 1 0 100 2z"/></svg>