<svg xmlns="http://www.w3.org/2000/svg" viewBox="0 0 64 64"><path d="M10.996 59c0 2.757 2.243 5 5 5h32.008c2.757 0 5-2.243 5-5V15.002a1 1 0 001-1v-3a1 1 0 00-1-1h-.049C52.538 4.418 47.872 0 42.184 0c-.035 0-.064.017-.099.02-.03-.003-.058-.018-.089-.018h-5.997l-.005-.001a1 1 0 00-1.002 1.001l.001.006A3.002 3.002 0 0131.996 4c-1.654 0-3-1.346-3-2.999V1a1 1 0 00-1-1h-6.061C16.206 0 11.49 4.404 10.984 10.004a.998.998 0 00-.988.998v3a1 1 0 001 1zm37.047-4.996c-.014 0-.025-.004-.039-.004s-.025.004-.039.004a3 3 0 01-2.961-2.996c0-1.654 1.346-3 3-3s3 1.346 3 3a3.002 3.002 0 01-2.961 2.996zm2.961.978v.043l-.026-.021.026-.022zM20.996 59a3 3 0 012.961-2.996c.014 0 .025.004.039.004s.025-.004.039-.004A3 3 0 0126.996 59c0 1.654-1.346 3-3 3s-3-1.346-3-3zm-.975 3h-.051l.025-.031c.009.01.019.02.026.031zm-1.051-6.996a4.994 4.994 0 001.026-1.027c.291.392.636.736 1.026 1.027a4.994 4.994 0 00-1.026 1.027 5.019 5.019 0 00-1.026-1.027zM15.996 54c-.014 0-.025.004-.039.004a3 3 0 01-2.961-2.996c0-1.654 1.346-3 3-3s3 1.346 3 3a3 3 0 01-2.961 2.996c-.014 0-.025-.004-.039-.004zm-2.974 1.004l-.026.021v-.043l.026.022zm6.974-9.027c.292.393.639.739 1.031 1.031a5.013 5.013 0 00-1.031 1.031 5.013 5.013 0 00-1.031-1.031 5.037 5.037 0 001.031-1.031zm4-13.938c-.009-.012-.02-.022-.028-.034.01 0 .019.003.028.003l.028-.003c-.008.012-.019.022-.028.034zm4-.031c1.654 0 3 1.346 3 3s-1.346 3-3 3-3-1.346-3-3 1.346-3 3-3zm11 3c0 1.654-1.346 3-3 3s-3-1.346-3-3 1.346-3 3-3 3 1.346 3 3zm.972-3.003c.01 0 .019.003.028.003l.028-.003c-.009.012-.02.022-.028.034l-.028-.034zM44 48.044a5.007 5.007 0 00-1.035-1.036A5.007 5.007 0 0044 45.972c.293.395.641.743 1.035 1.036A5.007 5.007 0 0044 48.044zm-3.965 5.96c-.014 0-.025-.004-.039-.004s-.025.004-.039.004a3 3 0 01-2.961-2.996c0-1.654 1.346-3 3-3s3 1.346 3 3a3.002 3.002 0 01-2.961 2.996zm-4.039 2.027a4.994 4.994 0 00-1.026-1.027 4.994 4.994 0 001.026-1.027c.291.392.636.736 1.026 1.027-.39.291-.735.636-1.026 1.027zm-4-2.031c-.014 0-.025.004-.039.004a3 3 0 01-2.961-2.996c0-1.654 1.346-3 3-3s3 1.346 3 3a3 3 0 01-2.961 2.996c-.014 0-.025-.004-.039-.004zm-4 2.031a4.994 4.994 0 00-1.026-1.027 4.994 4.994 0 001.026-1.027c.291.392.636.736 1.026 1.027-.39.291-.735.636-1.026 1.027zm-4-2.031c-.014 0-.025.004-.039.004a3 3 0 01-2.961-2.996c0-1.654 1.346-3 3-3s3 1.346 3 3a3 3 0 01-2.961 2.996c-.014 0-.025-.004-.039-.004zm4-8.023c.292.393.639.739 1.031 1.031a5.013 5.013 0 00-1.031 1.031 5.013 5.013 0 00-1.031-1.031 5.037 5.037 0 001.031-1.031zm15-2.969c0 1.654-1.346 3-3 3s-3-1.346-3-3 1.346-3 3-3 3 1.346 3 3zm-7 5.031a5.013 5.013 0 00-1.031-1.031 5.013 5.013 0 001.031-1.031c.292.393.639.739 1.031 1.031a5.013 5.013 0 00-1.031 1.031zm0-8c-.009-.012-.02-.022-.028-.034.01 0 .019.003.028.003l.028-.003c-.008.012-.019.022-.028.034zm-8 0c-.009-.012-.02-.022-.028-.034.01 0 .019.003.028.003l.028-.003c-.008.012-.019.022-.028.034zm4-.031c1.654 0 3 1.346 3 3s-1.346 3-3 3-3-1.346-3-3 1.346-3 3-3zm-.028-1.997c.009-.012.02-.022.028-.034.009.012.02.022.028.034-.01 0-.019-.003-.028-.003s-.018.003-.028.003zM44 40.044c-.01-.014-.021-.025-.032-.039.01 0 .019.003.028.003.013 0 .023-.004.036-.004l-.032.04zm-4.004-2.036c-.01 0-.019.003-.028.003.009-.012.02-.022.028-.034.009.012.02.022.028.034-.009 0-.018-.003-.028-.003zm-8-5.969c-.009-.012-.02-.022-.028-.034.01 0 .019.003.028.003l.028-.003c-.008.012-.019.022-.028.034zm-7.972 5.972c-.01 0-.019-.003-.028-.003l-.028.003c.009-.012.02-.022.028-.034.009.011.02.022.028.034zm-4.028 2.028c-.009-.012-.02-.022-.028-.034.01 0 .019.003.028.003l.028-.003c-.008.012-.019.022-.028.034zm4-.031c1.654 0 3 1.346 3 3s-1.346 3-3 3-3-1.346-3-3 1.346-3 3-3zm4 21.961l.025.031h-.051l.026-.031zm1-2.969a3 3 0 012.961-2.996c.014 0 .025.004.039.004s.025-.004.039-.004A3 3 0 0134.996 59c0 1.654-1.346 3-3 3s-3-1.346-3-3zm7 2.969l.025.031h-.051l.026-.031zm1-2.969a3 3 0 012.961-2.996c.014 0 .025.004.039.004s.025-.004.039-.004A3 3 0 0142.996 59c0 1.654-1.346 3-3 3s-3-1.346-3-3zM44 61.964c.009.013.021.023.029.036h-.059c.009-.013.021-.023.03-.036zm0-5.928a5.013 5.013 0 00-1.03-1.032A5.013 5.013 0 0044 53.972c.292.394.638.739 1.03 1.032A5.037 5.037 0 0044 56.036zm6.973-9.028l.031-.025v.051l-.031-.026zm-2.969-1c-1.654 0-3-1.346-3-3s1.346-3 3-3 3 1.346 3 3-1.346 3-3 3zm-4.008-8c-1.654 0-3-1.346-3-3s1.346-3 3-3 3 1.346 3 3-1.346 3-3 3zm-4-8c-1.654 0-3-1.346-3-3s1.346-3 3-3 3 1.346 3 3-1.346 3-3 3zm-3.972.003c-.01 0-.019-.003-.028-.003l-.028.003c.009-.012.02-.022.028-.034.009.011.02.022.028.034zm-4.028-.003c-1.654 0-3-1.346-3-3s1.346-3 3-3 3 1.346 3 3-1.346 3-3 3zm-3.972.003c-.01 0-.019-.003-.028-.003l-.028.003c.009-.012.02-.022.028-.034.009.011.02.022.028.034zm-4.028-.003c-1.654 0-3-1.346-3-3s1.346-3 3-3 3 1.346 3 3-1.346 3-3 3zm-1 5c0 1.654-1.346 3-3 3s-3-1.346-3-3 1.346-3 3-3 3 1.346 3 3zm-4 8c0 1.654-1.346 3-3 3s-3-1.346-3-3 1.346-3 3-3 3 1.346 3 3zm-5.969 4l-.031.025v-.051l.031.026zM12.996 59a3 3 0 012.961-2.996c.014 0 .025.004.039.004s.025-.004.039-.004A3 3 0 0118.996 59c0 1.654-1.346 3-3 3s-3-1.346-3-3zm35.008 3c-1.654 0-3-1.346-3-3a3 3 0 012.961-2.996c.014 0 .025.004.039.004s.025-.004.039-.004A3 3 0 0151.004 59c0 1.654-1.346 3-3 3zM12.04 13.002c-.016-.001-.028-.009-.044-.009v-.991h40.008v.992c-.014 0-.025.007-.039.008zM21.936 2h5.161a5.009 5.009 0 004.899 4 5.005 5.005 0 004.896-3.998h5.104c.035 0 .064-.017.099-.02.03.003.057.018.089.018 4.586 0 8.36 3.521 8.771 8.002H12.992C13.492 5.508 17.31 2 21.936 2zm29.068 13.002v24.031a4.947 4.947 0 00-3-1.025c-.013 0-.023.004-.036.004a4.953 4.953 0 001.028-3.004c0-2.757-2.243-5-5-5-.01 0-.019.003-.028.003a4.946 4.946 0 001.028-3.003c0-2.757-2.243-5-5-5-1.642 0-3.088.806-4 2.031-.912-1.226-2.358-2.031-4-2.031s-3.088.806-4 2.031c-.912-1.226-2.358-2.031-4-2.031-2.757 0-5 2.243-5 5 0 1.131.392 2.164 1.028 3.003-.01 0-.019-.003-.028-.003-2.757 0-5 2.243-5 5 0 1.131.392 2.164 1.028 3.003-.01 0-.019-.003-.028-.003-1.13 0-2.162.391-3 1.025V15.002z"/></svg>