<svg xmlns="http://www.w3.org/2000/svg" viewBox="0 0 64 64"><path d="M53 13.5h-.051c-.519-7.254-6.57-13-13.954-13l-.005.001H25.005L25 .5c-7.382 0-13.433 5.747-13.949 13H11a1 1 0 00-1 1v2.997a1 1 0 001 1h.06l2.391 39.066c.182 3.273 2.996 5.937 6.275 5.937h24.549c3.279 0 6.094-2.663 6.275-5.931l2.391-39.072H53a1 1 0 001-1V14.5a1 1 0 00-1-1zm-41 2.997V15.5h4.979c.007 0 .013.004.02.004s.013-.004.02-.004h5.959c.007 0 .013.004.02.004H23c.007 0 .013-.004.02-.004h5.959c.007 0 .013.004.02.004h.002c.007 0 .013-.004.02-.004h5.959c.007 0 .013.004.02.004h.002c.007 0 .013-.004.02-.004h5.959c.007 0 .013.004.02.004h.002c.007 0 .013-.004.02-.004h5.959c.007 0 .013.004.02.004s.013-.004.02-.004h4.96c.009 0 .016.005.024.005v.992zm6.997-3.993a1 1 0 012-.005l-.018.135a.993.993 0 00.323.866h-2.611a.993.993 0 00.323-.866c.001-.002-.017-.128-.017-.13zm3.001-6.001a1 1 0 012-.005l-.018.135a.999.999 0 00.501 1.005.988.988 0 01.516.865c0 .72-.808 1.261-1.495.858a.999.999 0 00-1.008 0c-.687.401-1.495-.139-1.495-.858 0-.359.192-.684.516-.865a.999.999 0 00.501-1.005l-.018-.13zm6 0a1 1 0 012-.005l-.018.135a.999.999 0 00.501 1.005.988.988 0 01.516.865c0 .72-.807 1.261-1.495.858a.999.999 0 00-1.008 0c-.686.401-1.495-.139-1.495-.858 0-.359.192-.684.516-.865a.999.999 0 00.501-1.005l-.018-.13zm6 0a1 1 0 012-.005l-.018.135a.999.999 0 00.501 1.005.988.988 0 01.516.865c0 .72-.809 1.261-1.495.858a.999.999 0 00-1.008 0c-.686.401-1.495-.139-1.495-.858 0-.359.192-.684.516-.865a.999.999 0 00.501-1.005l-.018-.13zm6 0a1 1 0 012-.005l-.018.135a.999.999 0 00.501 1.005.988.988 0 01.516.865c.001.72-.809 1.261-1.495.858a.999.999 0 00-1.008 0c-.686.402-1.494-.138-1.495-.858 0-.359.192-.684.516-.865a.999.999 0 00.501-1.005l-.018-.13zm5.305 6.997h-2.611a.993.993 0 00.323-.866l-.018-.13a1 1 0 012-.005l-.018.135a.994.994 0 00.324.866zm-4.297-1.228l-.009.01-.009-.01a2.934 2.934 0 00-.221-.886c.077-.021.155-.034.23-.062.074.027.152.04.229.062a2.962 2.962 0 00-.22.886zm-6 0l-.009.01-.009-.01a2.934 2.934 0 00-.221-.886c.077-.021.155-.034.23-.062.074.027.152.04.229.062a2.962 2.962 0 00-.22.886zm-6 0l-.009.01-.009-.01a2.934 2.934 0 00-.221-.886c.077-.021.155-.034.23-.062.074.027.152.04.229.062a2.962 2.962 0 00-.22.886zm-6 0l-.009.01-.009-.01a2.934 2.934 0 00-.221-.886c.077-.021.155-.034.23-.062.074.027.152.04.229.062a2.962 2.962 0 00-.22.886zm2.009.362l-.018-.13a1 1 0 012-.005l-.018.135a.993.993 0 00.323.866h-2.611a.99.99 0 00.324-.866zm6 0l-.018-.13a1 1 0 012-.005l-.018.135a.993.993 0 00.323.866h-2.611a.99.99 0 00.324-.866zm6 0l-.018-.13a1 1 0 012-.005l-.018.135a.993.993 0 00.323.866h-2.611a.99.99 0 00.324-.866zM24.996 2.5l.004.001h13.995l.004-.001c6.278.002 11.437 4.852 11.95 11h-3.146a2.99 2.99 0 00-.815-1.228 3 3 0 00-2.212-2.653c.14-.346.221-.721.221-1.116 0-.859-.375-1.669-1.008-2.231-.119-1.547-1.415-2.769-2.991-2.769s-2.872 1.222-2.991 2.769l-.009.01-.009-.01c-.119-1.547-1.415-2.769-2.991-2.769s-2.872 1.222-2.991 2.769l-.009.01-.009-.01c-.119-1.547-1.415-2.769-2.991-2.769s-2.872 1.222-2.991 2.769l-.009.01-.009-.01c-.119-1.547-1.415-2.769-2.991-2.769s-2.872 1.222-2.991 2.769a2.99 2.99 0 00-1.008 2.231c0 .396.081.771.221 1.116a2.998 2.998 0 00-2.214 2.653 2.99 2.99 0 00-.815 1.228h-3.14c.511-6.148 5.668-10.998 11.945-11zm23.558 54.952c-.124 2.233-2.044 4.048-4.28 4.048H19.726c-2.235 0-4.155-1.815-4.279-4.054l-2.384-38.949h37.875z"/><path d="M25 37.501h13.995c2.206 0 4-1.794 4-4s-1.794-4-4-4H25c-2.206 0-4 1.794-4 4s1.794 4 4 4zm0-6h13.995c1.103 0 2 .897 2 2s-.897 2-2 2H25c-1.103 0-2-.897-2-2s.897-2 2-2z"/><path d="M25 34.501h13.995a1 1 0 100-2H25a1 1 0 100 2zm-3.005 9.002H42a1 1 0 100-2H21.995a1 1 0 100 2zm0 3H42a1 1 0 100-2H21.995a1 1 0 100 2zm16.003 1H25.997a1 1 0 100 2h12.001a1 1 0 100-2z"/></svg>