<svg xmlns="http://www.w3.org/2000/svg" viewBox="0 0 64 64"><path d="M63 40.021h-2.004v-1.979a1 1 0 00-1-1h-2.002v-2.04a1 1 0 00-1-1H54.99v-2.003a1 1 0 00-1-1h-1.992V20a1 1 0 00-1-1H1a1 1 0 00-1 1v24a1 1 0 001 1h62a1 1 0 001-1v-2.979a1 1 0 00-1-1zm-4.004 0h-17v-.979h17zm-3.002-2.98H41.996v-1.04h13.998zm-3.004-3.04H41.996v-1.003H52.99zm-10.994-3.003V21h8.002v9.998zM2 21h37.996v22H2zm60 22H41.996v-.979H62z"/><path d="M21.002 34.002c2.757 0 5-2.243 5-5s-2.243-5-5-5-5 2.243-5 5 2.243 5 5 5zm0-8c1.654 0 3 1.346 3 3s-1.346 3-3 3-3-1.346-3-3 1.346-3 3-3zM29 35.001H13a1 1 0 100 2h16a1 1 0 100-2zm-3.998 3H17a1 1 0 100 2h8.002a1 1 0 100-2z"/></svg>