<svg xmlns="http://www.w3.org/2000/svg" viewBox="0 0 64 64"><path d="M50 63V1a1 1 0 00-1-1H15a1 1 0 00-1 1v62a1 1 0 001 1h34a1 1 0 001-1zM48 2v12.001H16V2zM16 62V16.001h32V62z"/><path d="M45.999 52.999h-3a1 1 0 00-1 1c0 .345-.035.683-.103 1.008a6.974 6.974 0 00-4.897-2.008H18.001a1 1 0 00-1 1c0 3.859 3.141 7 7 7h12.998a6.972 6.972 0 004.897-2.008c.067.325.103.663.103 1.008a1 1 0 001 1h3a1 1 0 001-1v-6a1 1 0 00-1-1zm-2.686 4a6.906 6.906 0 00.605-2h1.08v4h-1.08a6.906 6.906 0 00-.605-2zm-24.211-2h3.826a.987.987 0 00-.907.982 1.003 1.003 0 002.005 0 .99.99 0 00-.913-.982h1.883v4h-.994a5.009 5.009 0 01-4.9-4zm17.897 4H26.995v-4h10.004c1.627 0 3.061.793 3.975 2-.914 1.207-2.348 2-3.975 2zm9-14.999H27.001a6.972 6.972 0 00-4.897 2.008A5.002 5.002 0 0122.001 45a1 1 0 00-1-1h-3a1 1 0 00-1 1v6a1 1 0 001 1h3a1 1 0 001-1c0-.345.035-.682.103-1.008A6.972 6.972 0 0027.001 52h12.998c3.859 0 7-3.141 7-7a1 1 0 00-1-1zm-25.312 4a6.906 6.906 0 00-.605 2h-1.08v-4h1.08c.101.706.308 1.378.605 2zm2.339 0c.914-1.207 2.348-2 3.975-2h10.004v4H27.001c-1.627 0-3.061-.793-3.975-2zm16.973 2h-.994v-4h1.933a.987.987 0 00-.907.982 1.003 1.003 0 002.005 0 .99.99 0 00-.913-.982h3.776a5.01 5.01 0 01-4.9 4zm6-15h-3a1 1 0 00-1 1c0 .345-.035.682-.103 1.008A6.972 6.972 0 0036.999 35H18.001a1 1 0 00-1 1c0 3.859 3.141 7 7 7h12.998a6.972 6.972 0 004.897-2.008c.067.326.103.663.103 1.008a1 1 0 001 1h3a1 1 0 001-1v-6a1 1 0 00-1-1zm-2.686 4a6.906 6.906 0 00.605-2h1.08v4h-1.08a6.906 6.906 0 00-.605-2zm-24.211-2h3.826a.987.987 0 00-.907.982 1.003 1.003 0 002.005 0 .99.99 0 00-.913-.982h1.883v4h-.994a5.009 5.009 0 01-4.9-4zm17.897 4H26.995v-4h10.004c1.627 0 3.061.793 3.975 2-.914 1.207-2.348 2-3.975 2zm9-24h-3a1 1 0 00-1 1c0 .345-.035.682-.103 1.008A6.972 6.972 0 0036.999 17H18.001a1 1 0 00-1 1c0 3.859 3.141 7 7 7h12.998a6.972 6.972 0 004.897-2.008c.067.326.103.663.103 1.008a1 1 0 001 1h3a1 1 0 001-1v-6a1 1 0 00-1-1zm-2.686 4a6.906 6.906 0 00.605-2h1.08v4h-1.08a6.906 6.906 0 00-.605-2zm-24.211-2h3.826a.987.987 0 00-.907.982 1.003 1.003 0 002.005 0 .99.99 0 00-.913-.982h1.883v4h-.994a5.009 5.009 0 01-4.9-4zm17.897 4H26.995v-4h10.004c1.627 0 3.061.793 3.975 2-.914 1.207-2.348 2-3.975 2zm9 3.001H27.001a6.972 6.972 0 00-4.897 2.008 4.995 4.995 0 01-.103-1.008 1 1 0 00-1-1h-3a1 1 0 00-1 1v6a1 1 0 001 1h3a1 1 0 001-1c0-.345.035-.683.103-1.008a6.974 6.974 0 004.897 2.008h12.998c3.859 0 7-3.141 7-7a1 1 0 00-1-1zm-25.312 4a6.906 6.906 0 00-.605 2h-1.08v-4h1.08c.101.706.308 1.378.605 2zm2.339 0c.914-1.207 2.348-2 3.975-2h10.004v4H27.001c-1.627 0-3.061-.793-3.975-2zm16.973 2h-.994v-4h1.933a.987.987 0 00-.907.982 1.003 1.003 0 002.005 0 .99.99 0 00-.913-.982h3.776a5.01 5.01 0 01-4.9 4zM32 12c2.206 0 4-1.794 4-4s-1.794-4-4-4-4 1.794-4 4 1.794 4 4 4zm0-6c1.103 0 2 .897 2 2s-.897 2-2 2-2-.897-2-2 .897-2 2-2zM20 8h5a1 1 0 100-2h-5a1 1 0 100 2zm0 3h5a1 1 0 100-2h-5a1 1 0 100 2zm19-3h5a1 1 0 100-2h-5a1 1 0 100 2zm0 3h5a1 1 0 100-2h-5a1 1 0 100 2z"/></svg>