<svg xmlns="http://www.w3.org/2000/svg" viewBox="0 0 64 64"><path d="M4.5 29.006h.065l2.372 29.052c.182 3.273 2.996 5.937 6.275 5.937h26.551c3.279 0 6.094-2.663 6.274-5.911l2.373-29.077h.085a1 1 0 001-1v-3a1 1 0 00-1-1H41.57c-.138-.394-.076-.879.188-1.188l1.002-1.174.001-.002c.988-1.157.987-2.968-.001-4.123l-1.003-1.175c-.348-.406-.348-1.119.001-1.526l1.002-1.174.001-.002c.988-1.157.987-2.968-.001-4.123l-.448-.524h2.187a3.002 3.002 0 002.999-2.998v-.004H59.5a1 1 0 100-2h-12A3.001 3.001 0 0044.518.998c-.007 0-.012-.004-.019-.004H33.5a1 1 0 100 2h7.999v1H33.5a1 1 0 00-1 1c0 .063.024.116.035.176l-.297.348c-.58.678-.811 1.579-.711 2.443 0 .012-.007.021-.007.033 0 .028.014.053.017.08.009.063.024.125.037.188.014.046.017.095.036.139.115.451.317.881.627 1.243l1.003 1.175c.348.406.348 1.119 0 1.525l-.001.001-1.001 1.173c-.99 1.157-.99 2.97-.001 4.126l1.003 1.175c.348.406.348 1.119 0 1.525l-.001.001-1.001 1.173c-.59.689-.82 1.61-.707 2.488H14.293c8.932-3.817 15.207-12.688 15.207-23a1 1 0 10-2 0c0 12.683-10.317 23-23 23a1 1 0 00-1 1v3a1 1 0 001 1zm39.543 28.94c-.124 2.232-2.044 4.048-4.279 4.048H13.213c-2.235 0-4.155-1.815-4.28-4.073l-2.36-28.915h39.83zm3.453-30.94H5.5v-1h41.996zM40.237 9.644l1.003 1.175c.348.406.348 1.119 0 1.525l-.001.001-1.001 1.173c-.99 1.157-.99 2.97-.001 4.126l1.003 1.175c.348.406.348 1.119 0 1.525l-.001.001-1.001 1.173c-.59.689-.82 1.61-.707 2.488H37.57c-.138-.394-.076-.879.188-1.188l1.002-1.174.001-.002c.988-1.157.987-2.968-.001-4.123l-1.003-1.175c-.348-.406-.348-1.119.001-1.526l1.002-1.174.001-.002c.988-1.157.987-2.968-.001-4.123l-.448-.524h1.515c.111.229.241.45.41.649zm-6.577-2.65c.033-.06.055-.126.099-.177l.702-.823h1.445c-.176.312-.293.65-.355 1zm4.099-.177l.702-.823h1.445c-.176.312-.293.65-.355 1H37.66c.033-.059.055-.126.099-.177zm6.731-3.823l.01.002c.55 0 .996.444.999.993l-.001.005v2.002a1 1 0 01-.999.998h-1v-4zM33.759 22.817l1.002-1.174.001-.002c.988-1.157.987-2.968-.001-4.123l-1.003-1.175c-.348-.406-.348-1.119.001-1.526l1.002-1.174.001-.002c.988-1.157.987-2.968-.001-4.123l-.448-.524h1.515c.111.229.241.451.41.649l1.003 1.175c.348.406.348 1.119 0 1.525l-.001.001-1.001 1.173c-.99 1.157-.99 2.97-.001 4.126l1.003 1.175c.348.406.348 1.119 0 1.525l-.001.001-1.001 1.173c-.59.689-.82 1.61-.707 2.488H33.57c-.137-.393-.076-.878.189-1.188z"/><path d="M26.497 55.996c6.065 0 11-4.935 11-11s-4.935-11-11-11-11 4.935-11 11 4.935 11 11 11zm0-20c4.963 0 9 4.037 9 9s-4.037 9-9 9-9-4.037-9-9 4.037-9 9-9z"/><path d="M26.497 50.996c3.309 0 6-2.691 6-6s-2.691-6-6-6-6 2.691-6 6 2.691 6 6 6zm0-10c2.206 0 4 1.794 4 4s-1.794 4-4 4-4-1.794-4-4 1.794-4 4-4z"/></svg>