<svg xmlns="http://www.w3.org/2000/svg" viewBox="0 0 64 64"><path d="M8.502 64h46.996a1 1 0 001-1v-4a1 1 0 00-1-1H54.5V1a1 1 0 00-1-1h-43a1 1 0 00-1 1v57h-.998a1 1 0 00-1 1v4a1 1 0 001 1zm1-2v-2h.993l.005.001.005-.001h2.99l.005.001.005-.001h24.972l.022.001.005-.001h10.991l.005.001.005-.001h3.99l.005.001.005-.001h.993v2zM29.5 31v-1h4v1zm-1 2h2a1 1 0 102 0h2a1 1 0 001-1v-2h13v28h-8.906l1.902-20.905a1 1 0 00-.996-1.091h-18a1.002 1.002 0 00-.996 1.091L23.406 58H14.5V30h13v2a1 1 0 001 1zm-3.085 25l-.546-6h13.262l-.546 6zm-1.82-19.996h15.811L39.133 41H23.867zM24.05 43h14.9l-.637 7H24.687zM11.5 2h41v56h-2V29a1 1 0 00-1-1h-36a1 1 0 00-1 1v29h-1z"/><path d="M13.5 26.997h7a1 1 0 001-1V3.999a1 1 0 00-1-1h-7a1 1 0 00-1 1v21.998a1 1 0 001 1zm6-5.001h-5v-8.992h5zm0-10.992h-5V8.002h5zm-5 13.993v-1.001h5v1.001zm5-19.998v1.003h-5V4.999zm4 21.998h7a1 1 0 001-1V3.999a1 1 0 00-1-1h-7a1 1 0 00-1 1v21.998a1 1 0 001 1zm6-5.001h-5v-3.998h5zm0-5.998h-5V8.002h5zm-5 8.999v-1.001h5v1.001zm5-19.998v1.003h-5V4.999zm3.998 21.998h7a1 1 0 001-1V3.999a1 1 0 00-1-1h-7a1 1 0 00-1 1v21.998a1 1 0 001 1zm6-5.001h-5v-6.994h5zm0-8.994h-5v-5h5zm-5 11.995v-1.001h5v1.001zm5-19.998v1.003h-5V4.999zM43.5 26.997h7a1 1 0 001-1V3.999a1 1 0 00-1-1h-7a1 1 0 00-1 1v21.998a1 1 0 001 1zm6-5.001h-5v-3.998h5zm0-5.998h-5V8.002h5zm-5 8.999v-1.001h5v1.001zm5-19.998v1.003h-5V4.999z"/></svg>