<svg xmlns="http://www.w3.org/2000/svg" viewBox="0 0 64 64"><path d="M60.994 3.03a.99.99 0 00-.287-.737l-2-2a.999.999 0 00-1.414 0L56 1.586 54.707.293a.999.999 0 00-1.414 0L52 1.586 50.707.293a.999.999 0 00-1.414 0L48 1.586 46.707.293a.999.999 0 00-1.414 0L44 1.586 42.707.293a.999.999 0 00-1.414 0L40 1.586 38.707.293a.999.999 0 00-1.414 0L36 1.586 34.707.293a.999.999 0 00-1.414 0L32 1.586 30.707.293a.999.999 0 00-1.414 0L28 1.586 26.707.293a.999.999 0 00-1.414 0L24 1.586 22.707.293a.999.999 0 00-1.414 0L20 1.586 18.707.293a.999.999 0 00-1.414 0L16 1.586 14.707.293a.999.999 0 00-1.414 0L12 1.586 10.707.293a.999.999 0 00-1.414 0L8 1.586 6.707.293a.999.999 0 00-1.414 0l-2 2a.988.988 0 00-.285.747v1.955L3.007 5l.001.005v53.991l-.001.005.001.005v1.954a.987.987 0 00.285.747l2 2a.997.997 0 001.414 0L8 62.414l1.293 1.293a.997.997 0 001.414 0L12 62.414l1.293 1.293a.997.997 0 001.414 0L16 62.414l1.293 1.293a.997.997 0 001.414 0L20 62.414l1.293 1.293a.997.997 0 001.414 0L24 62.414l1.293 1.293a.997.997 0 001.414 0L28 62.414l1.293 1.293a.997.997 0 001.414 0L32 62.414l1.293 1.293a.997.997 0 001.414 0L36 62.414l1.293 1.293a.997.997 0 001.414 0L40 62.414l1.293 1.293a.997.997 0 001.414 0L44 62.414l1.293 1.293a.997.997 0 001.414 0L48 62.414l1.293 1.293a.997.997 0 001.414 0L52 62.414l1.293 1.293a.997.997 0 001.414 0L56 62.414l1.293 1.293a.997.997 0 001.414 0l2-2a.99.99 0 00.287-.737zM58 61.586l-1.293-1.293a.995.995 0 00-.702-.292h2.989v.591zm-4 0l-1.293-1.293a.995.995 0 00-.702-.292h3.99a.995.995 0 00-.702.292zm-4 0l-1.293-1.293a.995.995 0 00-.702-.292h3.99a.995.995 0 00-.702.292zm-4 0l-1.293-1.293a.995.995 0 00-.702-.292h3.99a.995.995 0 00-.702.292zm-4 0l-1.293-1.293a.995.995 0 00-.702-.292h3.99a.995.995 0 00-.702.292zm-4 0l-1.293-1.293a.995.995 0 00-.702-.292h3.99a.995.995 0 00-.702.292zm-4 0l-1.293-1.293a.995.995 0 00-.702-.292h3.99a.995.995 0 00-.702.292zm-4 0l-1.293-1.293a.995.995 0 00-.702-.292h3.99a.995.995 0 00-.702.292zm-4 0l-1.293-1.293a.995.995 0 00-.702-.292h3.99a.995.995 0 00-.702.292zm-4 0l-1.293-1.293a.995.995 0 00-.702-.292h3.99a.995.995 0 00-.702.292zm-4 0l-1.293-1.293a.995.995 0 00-.702-.292h3.99a.995.995 0 00-.702.292zm-4 0l-1.293-1.293a.995.995 0 00-.702-.292h3.99a.995.995 0 00-.702.292zm-4 0l-1.293-1.293a.995.995 0 00-.702-.292h3.99a.995.995 0 00-.702.292zm-4 0l-.992-.992v-.593h2.987a.995.995 0 00-.702.292zM6 2.414l1.293 1.293a.997.997 0 001.414 0L10 2.414l1.293 1.293a.997.997 0 001.414 0L14 2.414l1.293 1.293a.997.997 0 001.414 0L18 2.414l1.293 1.293a.997.997 0 001.414 0L22 2.414l1.293 1.293a.997.997 0 001.414 0L26 2.414l1.293 1.293a.997.997 0 001.414 0L30 2.414l1.293 1.293a.997.997 0 001.414 0L34 2.414l1.293 1.293a.997.997 0 001.414 0L38 2.414l1.293 1.293a.997.997 0 001.414 0L42 2.414l1.293 1.293a.997.997 0 001.414 0L46 2.414l1.293 1.293a.997.997 0 001.414 0L50 2.414l1.293 1.293a.997.997 0 001.414 0L54 2.414l1.293 1.293a.997.997 0 001.414 0L58 2.414l.994.994V4H5.008v-.594zM58.994 6v52.001H5.008V6z"/><path d="M15.001 15.077c-4.322 4.343-6.998 10.325-6.998 16.921 0 6.6 2.679 12.586 7.006 16.929.011.013.015.029.027.042s.029.017.042.028c4.343 4.324 10.327 7.001 16.925 7.001 6.594 0 12.573-2.674 16.915-6.992.018-.016.039-.021.056-.037s.021-.038.037-.056c4.316-4.339 6.989-10.315 6.992-16.904l.002-.011-.002-.011C56 25.402 53.33 19.431 49.019 15.092c-.017-.021-.023-.046-.043-.065s-.045-.027-.066-.044c-4.341-4.314-10.317-6.985-16.907-6.985-6.596 0-12.578 2.676-16.921 6.998-.016.014-.034.018-.049.032s-.018.034-.032.049zm38.977 15.921h-1.025a20.88 20.88 0 00-5.434-13.101l.725-.724a21.93 21.93 0 015.734 13.825zm-5.736 15.825l-.723-.723a20.89 20.89 0 005.434-13.102h1.025a21.915 21.915 0 01-5.736 13.825zM10.028 32.999h1.025a20.886 20.886 0 005.436 13.103l-.724.724a21.918 21.918 0 01-5.737-13.827zm20.975 17.948a18.893 18.893 0 01-11.687-4.846l11.687-11.687zm2-16.535L44.691 46.1a18.9 18.9 0 01-11.688 4.848zm1.414-1.414h16.535a18.892 18.892 0 01-4.847 11.688zm.002-2L46.106 19.31a18.903 18.903 0 014.847 11.688zm-1.416-1.412V13.049a18.885 18.885 0 0111.688 4.848zm-2-.002L19.314 17.896a18.9 18.9 0 0111.688-4.848v16.536zm-1.413 1.415H13.054a18.884 18.884 0 014.847-11.688zm.001 2L17.902 44.688A18.9 18.9 0 0113.053 33h16.538zM17.903 47.516a20.885 20.885 0 0013.1 5.432v1.025A21.914 21.914 0 0117.18 48.24zm15.1 5.431a20.884 20.884 0 0013.102-5.434l.724.724a21.913 21.913 0 01-13.825 5.735v-1.025zm13.102-36.464a20.883 20.883 0 00-13.103-5.435v-1.025a21.917 21.917 0 0113.826 5.736zm-15.102-5.434a20.884 20.884 0 00-13.102 5.434l-.724-.724a21.913 21.913 0 0113.825-5.735v1.025zm-14.516 6.847a20.887 20.887 0 00-5.434 13.103h-1.025a21.914 21.914 0 015.735-13.826z"/><path d="M27.045 20.989a1 1 0 100-2h-.011c-.552 0-.994.447-.994 1s.452 1 1.005 1zm9.95 22.023h-.011c-.552 0-.994.447-.994 1s.452 1 1.005 1a1 1 0 100-2zM20.01 28.025a1 1 0 100-2h-.011c-.552 0-.994.447-.994 1s.452 1 1.005 1zm24.021 7.952h-.011c-.552 0-.994.447-.994 1s.452 1 1.005 1a1 1 0 100-2zM20.01 37.976a1 1 0 100-2h-.011c-.552 0-.994.447-.994 1s.452 1 1.005 1zm24.022-11.95h-.011c-.552 0-.994.447-.994 1s.452 1 1.005 1a1 1 0 100-2zM27.046 45.012a1 1 0 100-2h-.011c-.552 0-.994.447-.994 1s.452 1 1.005 1zm9.952-24.022a1 1 0 100-2h-.011c-.552 0-.994.447-.994 1s.452 1 1.005 1z"/></svg>