<svg xmlns="http://www.w3.org/2000/svg" viewBox="0 0 64 64"><path d="M59 14.996H5c-2.757 0-5 2.243-5 5V40a5.007 5.007 0 004.004 4.899V59c0 2.757 2.243 5 5 5h45.992c2.757 0 5-2.243 5-5V44.899A5.007 5.007 0 0064 40V19.996c0-2.757-2.243-5-5-5zM57.996 45v10.004H6.004V45zm-3 17H9.004c-1.654 0-3-1.346-3-3v-1.996h51.992V59c0 1.654-1.346 3-3 3zM62 40c0 1.654-1.346 3-3 3H5c-1.654 0-3-1.346-3-3V19.996c0-1.654 1.346-3 3-3h54c1.654 0 3 1.346 3 3z"/><path d="M59 19H5a1 1 0 00-1 1v20a1 1 0 001 1h54a1 1 0 001-1V20a1 1 0 00-1-1zm-1 20H6V21h52z"/><path d="M32 37.006c3.859 0 7-3.141 7-7s-3.141-7-7-7-7 3.141-7 7 3.141 7 7 7zm0-12c2.757 0 5 2.243 5 5s-2.243 5-5 5-5-2.243-5-5 2.243-5 5-5z"/><path d="M32 33.006c1.654 0 3-1.346 3-3s-1.346-3-3-3-3 1.346-3 3 1.346 3 3 3zm0-4a1 1 0 110 2 1 1 0 010-2zm11-1h10a1 1 0 100-2H43a1 1 0 100 2zm0 3h10a1 1 0 100-2H43a1 1 0 100 2zm6.997 1h-3.994a1 1 0 100 2h3.994a1 1 0 100-2zm-38.999-4h10a1 1 0 100-2h-10a1 1 0 100 2zm0 3h10a1 1 0 100-2h-10a1 1 0 100 2zm6.997 1h-3.994a1 1 0 100 2h3.994a1 1 0 100-2zM10.505 13a6.51 6.51 0 005.999-4h44.995c1.379 0 2.5-1.121 2.5-2.5S62.878 4 61.499 4H16.504a6.51 6.51 0 00-5.999-4C7.387 0 .001 2.522.001 6.5S7.387 13 10.505 13zm50.994-7c.275 0 .5.225.5.5s-.225.5-.5.5h-44.52c.013-.166.025-.331.025-.5s-.012-.334-.025-.5zM10.505 2c2.481 0 4.5 2.019 4.5 4.5s-2.019 4.5-4.5 4.5c-2.956 0-8.504-2.384-8.504-4.5S7.549 2 10.505 2z"/></svg>