<svg xmlns="http://www.w3.org/2000/svg" viewBox="0 0 64 64"><path d="M27.001 8.998h10.001c1.654 0 3-1.346 3-3s-1.346-3-3-3H27.001c-1.654 0-3 1.346-3 3s1.346 3 3 3zm0-4h10.001a1 1 0 010 2H27.001a1 1 0 010-2z"/><path d="M44.967 62.837c-.008-.051-.002-.103-.019-.153L44 59.838V26a1 1 0 00-1-1h-.001V5.999A6.004 6.004 0 0037.008.001L37.001 0h-9.999a6.008 6.008 0 00-6.001 6.001V25H21a1 1 0 00-1 1v33.838l-.948 2.846c-.017.051-.011.103-.019.154-.01.055-.033.104-.033.162 0 .014.008.025.008.039.003.071.023.137.041.204.016.06.023.12.049.175.026.057.066.102.103.152.039.054.071.11.12.155.041.039.093.063.141.095.062.041.12.083.19.109.012.005.02.015.032.019A1 1 0 0020 64h24a1 1 0 00.316-.052c.013-.004.021-.014.032-.019.07-.026.129-.068.19-.109.048-.031.1-.056.141-.095.049-.045.081-.102.12-.155.036-.051.076-.097.103-.152.025-.055.033-.115.049-.175.018-.068.038-.133.041-.204 0-.014.008-.025.008-.039 0-.058-.023-.107-.033-.163zm-7.966-50.84a5.968 5.968 0 003.998-1.539v.535a4.003 4.003 0 01-3.998 3.998h-9.999a5.969 5.969 0 00-4.001 1.542v-.531l.003-.015a3.998 3.998 0 013.914-3.989c.028 0 .056.004.084.004.009 0 .016-.005.024-.005zM42 27v31.999H22V27zm-4.999-2.013c-.022 0-.041.011-.063.013H23.144c.444-1.724 1.998-3.007 3.858-3.007h9.999c.009 0 .017-.005.026-.005a5.971 5.971 0 003.972-1.538v.539a4.003 4.003 0 01-3.998 3.998zm0-4.998c-.007 0-.013.004-.02.004h-9.979a5.969 5.969 0 00-4.001 1.542v-.531l.003-.015a4.003 4.003 0 013.998-3.998h9.999a5.968 5.968 0 003.998-1.539v.539a4.003 4.003 0 01-3.998 3.998zm-14-8.458v-1.07c.215.192.44.374.682.535-.242.16-.467.342-.682.535zm-1.28 49.468H42.28L42.613 62H21.387zM27.002 2h9.994l.005.001c2.204 0 3.998 1.794 3.998 3.998s-1.794 3.998-3.998 3.998h-9.96c-.014-.001-.025-.008-.039-.008-.028 0-.056.004-.084.004a4 4 0 01-3.917-3.992A4.006 4.006 0 0127.002 2z"/><path d="M32 42c2.757 0 5-2.243 5-5s-2.243-5-5-5-5 2.243-5 5 2.243 5 5 5zm0-8c1.654 0 3 1.346 3 3s-1.346 3-3 3-3-1.346-3-3 1.346-3 3-3zm-7 12.008h14a1 1 0 100-2H25a1 1 0 100 2zm0 2.993h14a1 1 0 100-2H25a1 1 0 100 2zm11 .993h-8a1 1 0 100 2h8a1 1 0 100-2z"/></svg>