<svg xmlns="http://www.w3.org/2000/svg" viewBox="0 0 64 64"><path d="M51.5 0h-39a1 1 0 00-1 1v58c0 2.757 2.243 5 5 5h31c2.757 0 5-2.243 5-5V1a1 1 0 00-1-1zm-38 5h37v.998h-37zm0-2V2h37v1zm34 59h-31c-1.654 0-3-1.346-3-3V7.998h37V59c0 1.654-1.346 3-3 3z"/><path d="M32 36.996c5.79 0 10.501-4.711 10.501-10.502v-2.998c0-5.79-4.711-10.5-10.501-10.5s-10.501 4.71-10.501 10.5v2.998c0 5.791 4.711 10.502 10.501 10.502zm0-2a8.498 8.498 0 01-7.013-3.706c1.861 1.678 4.316 2.708 7.013 2.708s5.151-1.03 7.013-2.708A8.498 8.498 0 0132 34.996zm0-20c4.688 0 8.501 3.813 8.501 8.5 0 4.688-3.813 8.502-8.501 8.502s-8.501-3.813-8.501-8.502c0-4.686 3.814-8.5 8.501-8.5z"/><path d="M35.53 24.996a1 1 0 100-2h-.01c-.552 0-.994.447-.994 1s.452 1 1.004 1zm-7-3a1 1 0 100-2h-.01c-.552 0-.994.447-.994 1s.452 1 1.004 1zm2 6a1 1 0 100-2h-.01c-.552 0-.994.447-.994 1s.452 1 1.004 1zM44.5 41.014h-25a1 1 0 100 2h25a1 1 0 100-2zm0 2.984h-25a1 1 0 100 2h25a1 1 0 100-2zm-7 2.982h-11a1 1 0 100 2h11a1 1 0 100-2zm-12.971 8.008h-.011c-.552 0-.994.447-.994 1s.452 1 1.005 1a1 1 0 100-2zm5.001 0h-.01c-.552 0-.994.447-.994 1s.452 1 1.005 1a1 1 0 10-.001-2zm5.001 0h-.011c-.552 0-.994.447-.994 1s.452 1 1.005 1a1 1 0 100-2zm5.001 0h-.011c-.552 0-.994.447-.994 1s.452 1 1.005 1a1 1 0 100-2z"/></svg>