<svg xmlns="http://www.w3.org/2000/svg" viewBox="0 0 64 64"><path d="M48.501 6.035h-2.372C45.06 2.562 41.821.03 38.002.03H24.555c-.018-.001-.031-.01-.049-.01-3.527 0-6.446 2.619-6.935 6.012h-2.072a1 1 0 00-1 1v55.947a1 1 0 001 1h33.002a1 1 0 001-1V7.035a1 1 0 00-1-1zm-1 2v12.952h-.997l-.006-12.341c.001-.038.006-.075.006-.114 0-.168-.016-.332-.025-.497zM16.499 20.987V8.032H17.5v12.955zm3.001-9.048a6.989 6.989 0 003.99 2.028v7.02H19.5zm5.99 5.095h12.512a8.485 8.485 0 006.498-3.031l.004 6.984H25.49zM24.474 2.023c.012.001.021.007.032.007h13.496a6.51 6.51 0 016.501 6.479c0 .009-.005.016-.005.023v.114c-.062 3.532-2.95 6.388-6.496 6.388H25.49v-1.002h12.512a5.508 5.508 0 005.502-5.5 5.508 5.508 0 00-5.502-5.502H24.506c-.014 0-.025.007-.039.008a4.002 4.002 0 00-3.961 3.996c0 2.206 1.794 4 4 4l.01-.002h13.486c1.379 0 2.5-1.121 2.5-2.5s-1.121-2.5-2.5-2.5H24.506a1 1 0 00-1 1v1.724c-.595-.347-1-.985-1-1.722 0-1.103.897-2 2-2 .007 0 .013-.004.02-.004h13.477a3.506 3.506 0 013.502 3.502c0 1.93-1.571 3.5-3.502 3.5H24.506c-.021 0-.038.011-.058.012A5.012 5.012 0 0119.5 7.121v-.174a5.014 5.014 0 014.974-4.924zm13.528 6.009c.275 0 .5.225.5.5s-.225.5-.5.5H25.506v-1zm9.499 53.947H16.499V22.987h31.002z"/><path d="M27.501 40.985H36.5c2.206 0 4-1.794 4-4s-1.794-4-4-4h-8.999c-2.206 0-4 1.794-4 4s1.794 4 4 4zm0-6H36.5c1.103 0 2 .897 2 2s-.897 2-2 2h-8.999c-1.103 0-2-.897-2-2s.897-2 2-2z"/><path d="M27.501 37.985H36.5a1 1 0 100-2h-8.999a1 1 0 100 2zm-5 7H41.5a1 1 0 100-2H22.501a1 1 0 100 2zm0 3H41.5a1 1 0 100-2H22.501a1 1 0 100 2zm13.999 1h-8.999a1 1 0 100 2H36.5a1 1 0 100-2z"/></svg>