<svg xmlns="http://www.w3.org/2000/svg" viewBox="0 0 64 64"><path d="M57.002 5c0-.007-.004-.013-.004-.02V3c0-.13-.026-.26-.077-.382a.99.99 0 00-.217-.326L54.705.293a.999.999 0 00-1.414 0l-1.293 1.293L50.705.293a.999.999 0 00-1.414 0l-1.293 1.293L46.705.293a.999.999 0 00-1.414 0l-1.293 1.293L42.705.293a.999.999 0 00-1.414 0l-1.293 1.293L38.705.293a.999.999 0 00-1.414 0l-1.293 1.293L34.705.293a.999.999 0 00-1.414 0l-1.293 1.293L30.705.293a.999.999 0 00-1.414 0l-1.293 1.293L26.705.293a.999.999 0 00-1.414 0l-1.293 1.293L22.705.293a.999.999 0 00-1.414 0l-1.293 1.293L18.705.293a.999.999 0 00-1.414 0l-1.293 1.293L14.705.293a.999.999 0 00-1.414 0l-1.293 1.293L10.705.293a.999.999 0 00-1.414 0l-2 2c-.2.2-.294.465-.289.728V60.98a.998.998 0 00.289.728l2 2a1 1 0 001.414-.001l1.293-1.293 1.293 1.293a.997.997 0 001.414 0l1.293-1.293 1.293 1.293a.997.997 0 001.414 0l1.293-1.293 1.293 1.293a.997.997 0 001.414 0l1.293-1.293 1.293 1.293a.997.997 0 001.414 0l1.293-1.293 1.293 1.293a.997.997 0 001.414 0l1.293-1.293 1.293 1.293a.997.997 0 001.414 0l1.293-1.293 1.293 1.293a.997.997 0 001.414 0l1.293-1.293 1.293 1.293a.997.997 0 001.414 0l1.293-1.293 1.293 1.293a.997.997 0 001.414 0l1.293-1.293 1.293 1.293a.997.997 0 001.414 0l1.293-1.293 1.293 1.293a.997.997 0 001.414 0l1.999-1.999a.99.99 0 00.217-.326.991.991 0 00.077-.382v-1.979c0-.007.004-.013.004-.02s-.004-.013-.004-.02V5.02c0-.007.004-.013.004-.02zm-3.004 56.586l-1.293-1.293a.995.995 0 00-.702-.292h2.995v.585zm-4 0l-1.293-1.293a.995.995 0 00-.702-.292h3.99a.995.995 0 00-.702.292zm-4 0l-1.293-1.293a.995.995 0 00-.702-.292h3.99a.995.995 0 00-.702.292zm-4 0l-1.293-1.293a.995.995 0 00-.702-.292h3.99a.995.995 0 00-.702.292zm-4 0l-1.293-1.293a.995.995 0 00-.702-.292h3.99a.995.995 0 00-.702.292zm-4 0l-1.293-1.293a.995.995 0 00-.702-.292h3.99a.995.995 0 00-.702.292zm-4 0l-1.293-1.293a.995.995 0 00-.702-.292h3.99a.995.995 0 00-.702.292zm-4 0l-1.293-1.293a.995.995 0 00-.702-.292h3.99a.995.995 0 00-.702.292zm-4 0l-1.293-1.293a.995.995 0 00-.702-.292h3.99a.995.995 0 00-.702.292zm-4 0l-1.293-1.293a.995.995 0 00-.702-.292h3.99a.995.995 0 00-.702.292zm-4 0l-1.293-1.293a.995.995 0 00-.702-.292h3.99a.995.995 0 00-.702.292zm-4 0l-.996-.996v-.589h2.991a.995.995 0 00-.702.292zm0-59.172l1.293 1.293a.997.997 0 001.414 0l1.293-1.293 1.293 1.293a.997.997 0 001.414 0l1.293-1.293 1.293 1.293a.997.997 0 001.414 0l1.293-1.293 1.293 1.293a.997.997 0 001.414 0l1.293-1.293 1.293 1.293a.997.997 0 001.414 0l1.293-1.293 1.293 1.293a.997.997 0 001.414 0l1.293-1.293 1.293 1.293a.997.997 0 001.414 0l1.293-1.293 1.293 1.293a.997.997 0 001.414 0l1.293-1.293 1.293 1.293a.997.997 0 001.414 0l1.293-1.293 1.293 1.293a.997.997 0 001.414 0l1.293-1.293 1.293 1.293a.997.997 0 001.414 0l1.293-1.293 1 1V4H9.002v-.59zm45 3.586v52.001H9.002V6z"/><path d="M31 30.922v.08a1 1 0 102 0v-.08c3.387-.488 6-3.401 6-6.92a6.992 6.992 0 00-3-5.736v-7.059c0-.025-.013-.047-.015-.072a.966.966 0 00-.04-.198c-.018-.062-.034-.121-.063-.178a.868.868 0 00-.101-.149 1.011 1.011 0 00-.139-.153c-.02-.017-.029-.039-.05-.055l-3-2.208c-.031-.022-.068-.028-.101-.047a1.086 1.086 0 00-.186-.086.945.945 0 00-.196-.039c-.037-.005-.07-.023-.109-.023-.025 0-.048.013-.073.015a.975.975 0 00-.199.04c-.061.018-.119.034-.174.063a.817.817 0 00-.154.104.928.928 0 00-.15.137c-.017.02-.039.029-.055.05-.023.031-.028.068-.047.102a.984.984 0 00-.085.183.975.975 0 00-.04.199c-.005.036-.023.068-.023.107v1.278l-2.321.772c-.013.004-.021.015-.034.02-.069.026-.126.067-.187.107-.049.032-.102.058-.144.097-.048.045-.081.101-.119.154-.036.051-.077.097-.104.154-.025.053-.033.112-.048.17-.019.069-.039.136-.042.209-.001.014-.008.024-.008.038v6.271A7 7 0 0025 24.002c0 3.519 2.613 6.432 6 6.92zm2-13.84v-6.105l1 .736v5.584a6.886 6.886 0 00-1-.215zm-3.006-4.361L31 12.386v4.696a6.811 6.811 0 00-1.006.217zM32 19.002c2.757 0 5 2.243 5 5s-2.243 5-5 5-5-2.243-5-5 2.243-5 5-5zM10.999 57.001h42.002a1 1 0 001-1V34.999a1 1 0 00-1-1H10.999a1 1 0 00-1 1v21.002a1 1 0 001 1zm1-21.002h40.002v19.002H11.999z"/><path d="M27.507 40a2.502 2.502 0 00-2.5 2.5v5.999c0 1.379 1.121 2.5 2.5 2.5s2.5-1.121 2.5-2.5V42.5c0-1.379-1.121-2.5-2.5-2.5zm0 8.999a.501.501 0 01-.5-.5V42.5c0-.275.225-.5.5-.5s.5.225.5.5v5.999c0 .275-.225.5-.5.5zM18.502 40a2.502 2.502 0 00-2.5 2.5v5.999c0 1.379 1.121 2.5 2.5 2.5s2.5-1.121 2.5-2.5V42.5c0-1.379-1.121-2.5-2.5-2.5zm0 8.999a.501.501 0 01-.5-.5V42.5c0-.275.225-.5.5-.5s.5.225.5.5v5.999c0 .275-.225.5-.5.5zM36.504 40a2.502 2.502 0 00-2.5 2.5v5.999c0 1.379 1.121 2.5 2.5 2.5s2.5-1.121 2.5-2.5V42.5c0-1.379-1.121-2.5-2.5-2.5zm0 8.999a.501.501 0 01-.5-.5V42.5c0-.275.225-.5.5-.5s.5.225.5.5v5.999c0 .275-.225.5-.5.5z"/><path d="M45.501 37c-1.858 0-3.503.93-4.499 2.346C40.006 37.93 38.362 37 36.504 37s-3.502.93-4.498 2.346A5.497 5.497 0 0027.507 37a5.495 5.495 0 00-4.503 2.352A5.492 5.492 0 0018.502 37a5.507 5.507 0 00-5.5 5.5v5.999c0 3.032 2.468 5.5 5.5 5.5a5.492 5.492 0 004.502-2.352 5.495 5.495 0 004.503 2.352c1.858 0 3.503-.93 4.499-2.346.996 1.416 2.64 2.346 4.498 2.346s3.502-.93 4.498-2.346a5.497 5.497 0 004.499 2.346c3.032 0 5.5-2.468 5.5-5.5V42.5c0-3.032-2.468-5.5-5.5-5.5zM18.502 51.999c-1.93 0-3.5-1.57-3.5-3.5V42.5c0-1.93 1.57-3.5 3.5-3.5s3.5 1.57 3.5 3.5v5.999c0 1.93-1.57 3.5-3.5 3.5zm9.005 0c-1.93 0-3.5-1.57-3.5-3.5V42.5c0-1.93 1.57-3.5 3.5-3.5a3.504 3.504 0 013.498 3.48l-.001.02v5.999l.001.02a3.503 3.503 0 01-3.498 3.48zm8.997 0a3.503 3.503 0 01-3.498-3.48l.001-.02V42.5l-.001-.02c.011-1.92 1.575-3.48 3.498-3.48s3.487 1.561 3.498 3.48l-.001.02v5.999l.001.02a3.503 3.503 0 01-3.498 3.48zm8.997 0a3.503 3.503 0 01-3.498-3.48l.001-.02V42.5l-.001-.02A3.503 3.503 0 0145.501 39c1.93 0 3.5 1.57 3.5 3.5v5.999c0 1.93-1.57 3.5-3.5 3.5z"/><path d="M45.501 40a2.502 2.502 0 00-2.5 2.5v5.999c0 1.379 1.121 2.5 2.5 2.5s2.5-1.121 2.5-2.5V42.5c0-1.379-1.121-2.5-2.5-2.5zm0 8.999a.501.501 0 01-.5-.5V42.5c0-.275.225-.5.5-.5s.5.225.5.5v5.999c0 .275-.225.5-.5.5zM12.998 19.001h9a1 1 0 100-2h-9a1 1 0 100 2zm0 3h9a1 1 0 100-2h-9a1 1 0 100 2zm3 1a1 1 0 100 2h3a1 1 0 100-2zm26-4h9a1 1 0 100-2h-9a1 1 0 100 2zm0 3h9a1 1 0 100-2h-9a1 1 0 100 2zm3 1a1 1 0 100 2h3a1 1 0 100-2z"/></svg>