<svg xmlns="http://www.w3.org/2000/svg" viewBox="0 0 64 64"><path d="M13 56a1 1 0 001 1v4c0 1.654 1.346 3 3 3s3-1.346 3-3v-4a1 1 0 100-2v-6a1 1 0 100-2v-6a1 1 0 100-2v-6a1 1 0 100-2v-6a1 1 0 100-2v-6a1 1 0 100-2V9a1 1 0 100-2V3c0-1.654-1.346-3-3-3s-3 1.346-3 3v4a1 1 0 100 2v6a1 1 0 100 2v6a1 1 0 100 2v6a1 1 0 100 2v6a1 1 0 100 2v6a1 1 0 100 2v6a1 1 0 00-1 1zm4 6a1 1 0 01-1-1V5.815c.314.113.647.185 1 .185s.686-.072 1-.184v6.034a.988.988 0 00-.97-.85h-.01c-.552 0-.994.448-.994 1s.452 1 1.005 1a.988.988 0 00.97-.85v7.7a.99.99 0 00-.971-.85h-.01c-.552 0-.994.448-.994 1s.452 1 1.005 1a.988.988 0 00.97-.85v7.7a.99.99 0 00-.971-.85h-.01c-.552 0-.994.448-.994 1s.452 1 1.005 1a.988.988 0 00.97-.85v7.701A.99.99 0 0017.03 35h-.01c-.552 0-.994.447-.994 1s.452 1 1.005 1a.988.988 0 00.97-.851v7.701a.99.99 0 00-.971-.85h-.01c-.552 0-.994.447-.994 1s.452 1 1.005 1a.988.988 0 00.97-.851v7.701a.99.99 0 00-.971-.85h-.01c-.552 0-.994.447-.994 1s.452 1 1.005 1a.988.988 0 00.97-.851V61c-.001.552-.449 1-1.001 1zm0-60a1.001 1.001 0 11-1 1c0-.551.448-1 1-1zm6 54a1 1 0 001 1v4c0 1.654 1.346 3 3 3s3-1.346 3-3v-4a1 1 0 100-2v-6a1 1 0 100-2v-6a1 1 0 100-2v-6a1 1 0 100-2v-6a1 1 0 100-2v-6a1 1 0 100-2V9a1 1 0 100-2V3c0-1.654-1.346-3-3-3s-3 1.346-3 3v4a1 1 0 100 2v6a1 1 0 100 2v6a1 1 0 100 2v6a1 1 0 100 2v6a1 1 0 100 2v6a1 1 0 100 2v6a1 1 0 00-1 1zm4 6a1 1 0 01-1-1V5.815c.314.113.647.185 1 .185s.686-.072 1-.184v6.034a.988.988 0 00-.97-.85h-.01c-.552 0-.994.448-.994 1s.452 1 1.005 1a.988.988 0 00.97-.85v7.7a.99.99 0 00-.971-.85h-.01c-.552 0-.994.448-.994 1s.452 1 1.005 1a.988.988 0 00.97-.85v7.7a.99.99 0 00-.971-.85h-.01c-.552 0-.994.448-.994 1s.452 1 1.005 1a.988.988 0 00.97-.85v7.701A.99.99 0 0027.03 35h-.01c-.552 0-.994.447-.994 1s.452 1 1.005 1a.988.988 0 00.97-.851v7.701a.99.99 0 00-.971-.85h-.01c-.552 0-.994.447-.994 1s.452 1 1.005 1a.988.988 0 00.97-.851v7.701a.99.99 0 00-.971-.85h-.01c-.552 0-.994.447-.994 1s.452 1 1.005 1a.988.988 0 00.97-.851V61c-.001.552-.449 1-1.001 1zm0-60a1.001 1.001 0 11-1 1c0-.551.448-1 1-1zm6 54a1 1 0 001 1v4c0 1.654 1.346 3 3 3s3-1.346 3-3v-4a1 1 0 100-2v-6a1 1 0 100-2v-6a1 1 0 100-2v-6a1 1 0 100-2v-6a1 1 0 100-2v-6a1 1 0 100-2V9a1 1 0 100-2V3c0-1.654-1.346-3-3-3s-3 1.346-3 3v4a1 1 0 100 2v6a1 1 0 100 2v6a1 1 0 100 2v6a1 1 0 100 2v6a1 1 0 100 2v6a1 1 0 100 2v6a1 1 0 00-1 1zm4 6a1 1 0 01-1-1V5.815c.314.113.647.185 1 .185s.686-.072 1-.184v6.034a.988.988 0 00-.97-.85h-.01c-.552 0-.994.448-.994 1s.452 1 1.005 1a.988.988 0 00.97-.85v7.7a.99.99 0 00-.971-.85h-.01c-.552 0-.994.448-.994 1s.452 1 1.005 1a.988.988 0 00.97-.85v7.7a.99.99 0 00-.971-.85h-.01c-.552 0-.994.448-.994 1s.452 1 1.005 1a.988.988 0 00.97-.85v7.701A.99.99 0 0037.03 35h-.01c-.552 0-.994.447-.994 1s.452 1 1.005 1a.988.988 0 00.97-.851v7.701a.99.99 0 00-.971-.85h-.01c-.552 0-.994.447-.994 1s.452 1 1.005 1a.988.988 0 00.97-.851v7.701a.99.99 0 00-.971-.85h-.01c-.552 0-.994.447-.994 1s.452 1 1.005 1a.988.988 0 00.97-.851V61c-.001.552-.449 1-1.001 1zm0-60a1.001 1.001 0 11-1 1c0-.551.448-1 1-1zm6 54a1 1 0 001 1v4c0 1.654 1.346 3 3 3s3-1.346 3-3v-4a1 1 0 100-2v-6a1 1 0 100-2v-6a1 1 0 100-2v-6a1 1 0 100-2v-6a1 1 0 100-2v-6a1 1 0 100-2V9a1 1 0 100-2V3c0-1.654-1.346-3-3-3s-3 1.346-3 3v4a1 1 0 100 2v6a1 1 0 100 2v6a1 1 0 100 2v6a1 1 0 100 2v6a1 1 0 100 2v6a1 1 0 100 2v6a1 1 0 00-1 1zm4 6a1 1 0 01-1-1V5.815c.314.113.647.185 1 .185s.686-.072 1-.184v6.034a.988.988 0 00-.97-.85h-.01c-.552 0-.994.448-.994 1s.452 1 1.005 1a.988.988 0 00.97-.85v7.7a.99.99 0 00-.971-.85h-.01c-.552 0-.994.448-.994 1s.452 1 1.005 1a.988.988 0 00.97-.85v7.7a.99.99 0 00-.971-.85h-.01c-.552 0-.994.448-.994 1s.452 1 1.005 1a.988.988 0 00.97-.85v7.701A.99.99 0 0047.03 35h-.01c-.552 0-.994.447-.994 1s.452 1 1.005 1a.988.988 0 00.97-.851v7.701a.99.99 0 00-.971-.85h-.01c-.552 0-.994.447-.994 1s.452 1 1.005 1a.988.988 0 00.97-.851v7.701a.99.99 0 00-.971-.85h-.01c-.552 0-.994.447-.994 1s.452 1 1.005 1a.988.988 0 00.97-.851V61c-.001.552-.449 1-1.001 1zm0-60a1.001 1.001 0 11-1 1c0-.551.448-1 1-1z"/></svg>