<svg xmlns="http://www.w3.org/2000/svg" viewBox="0 0 64 64"><path d="M63.707 19.293L62.414 18l1.293-1.293a.999.999 0 000-1.414l-2-2a.986.986 0 00-.768-.281H59.02c-.007 0-.013-.004-.02-.004s-.013.004-.02.004H5.02c-.007 0-.013-.004-.02-.004s-.013.004-.02.004H3.06a.987.987 0 00-.768.281l-2 2a.999.999 0 000 1.414L1.586 18 .293 19.293a.999.999 0 000 1.414L1.586 22 .293 23.293a.999.999 0 000 1.414L1.586 26 .293 27.293a.999.999 0 000 1.414L1.586 30 .293 31.293a.999.999 0 000 1.414L1.586 34 .293 35.293a.999.999 0 000 1.414L1.586 38 .293 39.293a.999.999 0 000 1.414L1.586 42 .293 43.293a.999.999 0 000 1.414L1.586 46 .293 47.293a.999.999 0 000 1.414l2 2A.997.997 0 003 51c.007 0 .014-.004.02-.004h57.96c.006 0 .013.004.02.004a.997.997 0 00.707-.293l2-2a.999.999 0 000-1.414L62.414 46l1.293-1.293a.999.999 0 000-1.414L62.414 42l1.293-1.293a.999.999 0 000-1.414L62.414 38l1.293-1.293a.999.999 0 000-1.414L62.414 34l1.293-1.293a.999.999 0 000-1.414L62.414 30l1.293-1.293a.999.999 0 000-1.414L62.414 26l1.293-1.293a.999.999 0 000-1.414L62.414 22l1.293-1.293a.999.999 0 000-1.414zM60.59 48.996h-.589v-2.991a.995.995 0 00.292.702L61.586 48zm-57.18 0L2.414 48l1.293-1.293a.997.997 0 000-1.414L2.414 44l1.293-1.293a.997.997 0 000-1.414L2.414 40l1.293-1.293a.997.997 0 000-1.414L2.414 36l1.293-1.293a.997.997 0 000-1.414L2.414 32l1.293-1.293a.997.997 0 000-1.414L2.414 28l1.293-1.293a.997.997 0 000-1.414L2.414 24l1.293-1.293a.997.997 0 000-1.414L2.414 20l1.293-1.293a.997.997 0 000-1.414L2.414 16l.988-.988H4v33.984zM6 15.012h52.001v33.984H6zm54.598 0l.988.988-1.293 1.293a.995.995 0 00-.292.702v-2.983zm-.305 30.281a.995.995 0 00-.292.702v-3.99a.995.995 0 00.292.702L61.586 44zm0-4a.995.995 0 00-.292.702v-3.99a.995.995 0 00.292.702L61.586 40zm0-4a.995.995 0 00-.292.702v-3.99a.995.995 0 00.292.702L61.586 36zm0-4a.995.995 0 00-.292.702v-3.99a.995.995 0 00.292.702L61.586 32zm0-4a.995.995 0 00-.292.702v-3.99a.995.995 0 00.292.702L61.586 28zm0-4a.995.995 0 00-.292.702v-3.99a.995.995 0 00.292.702L61.586 24zm0-4a.995.995 0 00-.292.702v-3.99a.995.995 0 00.292.702L61.586 20z"/><path d="M55.005 27.956a1 1 0 00-.19-.725l-2.128-2.859a.995.995 0 00-.731-.4.98.98 0 00-.78.293l-4.958 4.998c-7.445 7.233-19.562 7.234-27.011-.002-.007-.007-.017-.009-.024-.016s-.01-.016-.017-.021c-3.168-2.752-5.177-10.397-5.197-10.475a1.002 1.002 0 00-.49-.628.992.992 0 00-.794-.069l-3 1a.999.999 0 00-.653 1.191l1.354 5.408c-.487 1.583-2.465 8.993 1.739 12.905.003.002.003.006.006.008l.016.015.004.004.002.001c5.084 4.93 11.756 7.396 18.429 7.396 6.67 0 13.34-2.464 18.422-7.39l.003-.002.02-.019.005-.005v-.001c5.157-4.706 5.942-10.368 5.973-10.607zm-42.681-7.677c.092.306.206.67.34 1.074l-1.2.376-.269-1.074zm1.2 16.852c-.003-.003-.008-.004-.012-.008-.003-.003-.004-.008-.008-.011-3.701-3.409-1.161-11.026-1.135-11.104a.992.992 0 00.023-.566l-.443-1.771 1.387-.434c.983 2.559 2.5 5.711 4.473 7.452l.004.006.026.022.015.015.004.002c4.103 3.964 9.479 5.947 14.855 5.947 5.396 0 10.791-1.996 14.898-5.987l.005-.008.008-.005 4.151-4.185 1.177 1.581c-.26 1.267-1.379 5.472-5.294 9.028-.005.004-.006.011-.011.015-.004.004-.01.005-.014.009-9.401 9.141-24.704 9.141-34.109.002z"/></svg>