<svg xmlns="http://www.w3.org/2000/svg" viewBox="0 0 64 64"><path d="M17.5 64h29a1 1 0 001-1V5a1 1 0 00-.294-.708L43.208.293A1 1 0 0042.5 0h-21a1 1 0 00-.708.294l-3.998 3.999a.99.99 0 00-.217.326A.982.982 0 0016.5 5v58a1 1 0 001 1zm4.414-62h20.172l2 2H19.914zM45.5 62h-27V6h27z"/><path d="M21.5 60h21a1 1 0 001-1V37a1 1 0 00-1-1h-21a1 1 0 00-1 1v22a1 1 0 001 1zm14-2h-1V38h1zm2-20h1v20h-1zm-5 20h-1V38h1zm-3 0h-1V38h1zm-3 0h-1V38h1zm15 0h-1V38h1zm-19-20h1v20h-1zm9.506-18c2.481 0 4.5-2.019 4.5-4.5s-2.019-4.5-4.5-4.5-4.5 2.019-4.5 4.5 2.018 4.5 4.5 4.5zm0-7c1.379 0 2.5 1.122 2.5 2.5s-1.121 2.5-2.5 2.5-2.5-1.122-2.5-2.5 1.121-2.5 2.5-2.5zM25.5 24.001h13a1 1 0 100-2h-13a1 1 0 100 2zm11.004 2a1 1 0 00-1-1h-7.008a1 1 0 100 2h7.008a1 1 0 001-1zM27.53 31h-.01c-.552 0-.994.448-.994 1s.452 1 1.005 1a1 1 0 10-.001-2zm4.493 0c-.552 0-.994.448-.994 1s.452 1 1.005 1a1 1 0 000-2zm4.507 2a1 1 0 000-2h-.01c-.552 0-.994.448-.994 1s.452 1 1.004 1z"/></svg>