<svg xmlns="http://www.w3.org/2000/svg" viewBox="0 0 64 64"><path d="M12.5 60.998h2.002V63a1 1 0 001 1h10a1 1 0 001-1v-2.002h10.994V63a1 1 0 001 1h10a1 1 0 001-1v-2.002H51.5a1 1 0 001-1V5a1 1 0 00-.294-.708L48.208.293A1 1 0 0047.5 0h-31a1 1 0 00-.708.294l-3.998 3.999a.99.99 0 00-.217.326A.982.982 0 0011.5 5v54.998a1 1 0 001 1zM16.914 2h30.172l2 2H14.914zm7.588 60h-8v-1.002h8zm22.994 0h-8v-1.002h8zm3.004-3.002h-37V6h37z"/><path d="M15.5 58h33a1 1 0 001-1v-7a1 1 0 00-1-1h-33a1 1 0 00-1 1v7a1 1 0 001 1zm1-7h31v5h-31zm-1-3h4.99l.01.001h3l.01-.001h16.98l.01.001h3l.01-.001h4.99a1 1 0 001-1V8a1 1 0 00-1-1h-33a1 1 0 00-1 1v39a1 1 0 001 1zm4-33h5v2h-5zm0-2c0-.551.448-1 1-1h3c.552 0 1 .449 1 1zm0 6.002V19h5v.002c0 .551-.448 1-1 1h-3c-.552 0-1-.449-1-1zm1 3h27V33h-2v-3.999c0-.011-.006-.02-.006-.03-.002-.066-.024-.13-.04-.196-.016-.065-.023-.131-.052-.19-.004-.01-.003-.021-.008-.03l-.894-1.79V24a1 1 0 00-1-1h-3a1 1 0 00-1 1v2.765l-.895 1.789c-.005.01-.004.021-.008.03-.028.059-.036.125-.052.19-.016.066-.038.13-.04.197 0 .011-.006.02-.006.03V33h-2.182c.11-.312.182-.643.182-.992v-6.002c0-1.654-1.346-3-3-3h-3c-1.654 0-3 1.346-3 3v6.002c0 .35.071.68.182.992H25.5v-3.999c0-.011-.006-.02-.006-.03-.002-.066-.024-.13-.04-.196-.016-.065-.023-.131-.052-.19-.004-.01-.003-.021-.008-.03l-.894-1.79V24a1 1 0 00-1-1h-3a1 1 0 00-1 1v2.765l-.895 1.789c-.005.01-.004.021-.008.03-.028.059-.036.125-.052.19-.016.066-.038.13-.04.197 0 .011-.006.02-.006.03V33h-2V22.002zm10-5.772l.618-1.236h1.764l.618 1.236v3.771h-3zm1-3.236v-1h1v1zm8 2.006h5v2h-5zm0-2c0-.551.448-1 1-1h3c.552 0 1 .449 1 1zm0 6.002V19h5v.002c0 .551-.448 1-1 1h-3c-.552 0-1-.449-1-1zM40.5 33v-3.763l.618-1.236h1.764l.618 1.236V33zm1-6.999V25h1v1.001zM30.457 33a.997.997 0 01-.957-.992v-.002h5v.002a.997.997 0 01-.957.992zm-.957-4.994h5v2h-5zm0-2c0-.551.448-1 1-1h3c.552 0 1 .449 1 1zM20.5 33v-3.763l.618-1.236h1.764l.618 1.236V33zm1-6.999V25h1v1.001zm-2 14.998h5v2h-5zm0-2a1 1 0 011-1h3a1 1 0 011 1zm0 6.002v-.002h5v.002a1 1 0 01-.995.999h-3.01a1 1 0 01-.995-.999zm12.01-3.999h1v1.999h-1zm1-2h-1v-1.001h1zm-1 6.998v-.999h1V46zm7.99-5.001h5v2h-5zm0-2a1 1 0 011-1h3a1 1 0 011 1zm0 6.002v-.002h5v.002a1 1 0 01-.995.999h-3.01a1 1 0 01-.995-.999zm6.816.999c.111-.314.184-.647.184-.999v-6.002c0-1.654-1.346-3-3-3h-3c-1.654 0-3 1.346-3 3v6.002c0 .352.072.685.184.999H34.51v-8.999a1 1 0 00-1-1h-3a1 1 0 00-1 1V46h-3.193c.111-.314.184-.647.184-.999v-6.002c0-1.654-1.346-3-3-3h-3c-1.654 0-3 1.346-3 3v6.002c0 .352.072.685.184.999H16.5V35h13.913c.029.001.058.009.087.009h3c.029 0 .058-.008.087-.009H47.5v11zM47.5 9v11.002h-1.185c.112-.314.185-.647.185-1V13c0-1.654-1.346-3-3-3h-3c-1.654 0-3 1.346-3 3v6.002c0 .353.072.686.185 1H35.5v-4.008c0-.011-.006-.02-.006-.03-.002-.066-.024-.13-.04-.196-.016-.065-.023-.131-.052-.19-.004-.01-.003-.021-.008-.03l-.894-1.79v-2.764a1 1 0 00-1-1h-3a1 1 0 00-1 1v2.764l-.895 1.789c-.005.01-.004.021-.008.03-.028.059-.036.125-.052.19-.016.066-.038.13-.04.197 0 .011-.006.02-.006.03v4.008h-2.185c.112-.314.185-.647.185-1V13c0-1.654-1.346-3-3-3h-3c-1.654 0-3 1.346-3 3v6.002c0 .353.072.686.185 1H16.5V9z"/></svg>