<svg xmlns="http://www.w3.org/2000/svg" viewBox="0 0 511.997 511.997"><circle cx="366.436" cy="147.111" r="8.245"/><path d="M319.099 217.409c.072-.076-.076.073 0 0zm-22.971-22.961c-.057.059.059-.058 0 0z"/><path d="M489.835 128.821H479.76a132.964 132.964 0 00-15.411-37.183l7.131-7.131c8.038-8.039 8.037-21.118 0-29.155l-16.38-16.38c-8.038-8.038-21.117-8.038-29.154 0l-7.131 7.131a132.98 132.98 0 00-37.184-15.411V20.615C381.631 9.248 372.382 0 361.014 0h-23.166c-11.367 0-20.615 9.248-20.615 20.615V30.69a132.972 132.972 0 00-37.184 15.411l-7.131-7.131c-8.038-8.036-21.116-8.036-29.154 0l-16.38 16.38c-8.038 8.038-8.038 21.117 0 29.156l7.131 7.13a132.996 132.996 0 00-15.411 37.183h-10.075c-11.367 0-20.615 9.248-20.615 20.616V172.6c0 11.367 9.248 20.615 20.615 20.615h10.075a133.228 133.228 0 0015.306 37.011l1.775 3.053L99.911 369.553c-26.488-9.535-56.799-2.954-76.881 17.126-20.479 20.479-27 51.197-16.614 78.258a7.468 7.468 0 0012.247 2.604l38.269-38.269 18.908 7.777 8.378 19.611-38.217 38.217a7.462 7.462 0 002.603 12.247 73.35 73.35 0 0026.299 4.874c19.146 0 37.949-7.477 51.96-21.488 20.082-20.082 26.661-50.393 17.126-76.881l25.279-25.279a7.465 7.465 0 00-10.556-10.557l-28.759 28.759a7.465 7.465 0 00-1.545 8.306c9.741 21.959 4.878 48.117-12.101 65.095-13.418 13.418-32.351 19.31-50.65 16.381l32.688-32.688a7.463 7.463 0 001.586-8.211L88.37 428.373a7.461 7.461 0 00-4.025-3.971l-26.333-10.831a7.465 7.465 0 00-8.117 1.625l-32.688 32.688c-2.932-18.297 2.964-37.233 16.38-50.65 16.978-16.98 43.137-21.841 65.095-12.1a7.466 7.466 0 008.306-1.545l189.14-189.14a7.465 7.465 0 001.545-8.306c-9.741-21.958-4.878-48.117 12.101-65.095 13.417-13.418 32.352-19.315 50.65-16.38l-.024.023-32.762 32.762c-.059.059-.115.118-.172.178l-.024.026-.031.034a6.495 6.495 0 00-.158.178l-.035.042-.056.066-.054.067-.033.041-.051.064-.037.048-.051.068-.032.042-.046.064-.037.051-.043.062-.035.051-.042.063-.036.055-.042.066-.031.048-.046.075-.027.044-.042.072-.028.048-.038.066-.031.055-.036.066-.029.055-.04.078-.022.043-.037.074-.025.052-.033.069-.026.055-.034.075-.022.049-.029.067a4.137 4.137 0 00-.027.064l-.026.063a3.912 3.912 0 01-.024.061l-.03.078-.019.05-.028.078-.018.051-.028.083a.621.621 0 01-.016.046l-.025.077-.018.057a1.7 1.7 0 00-.039.132l-.019.066-.018.064a1.555 1.555 0 00-.019.073l-.015.059-.02.08-.012.05-.019.085a.928.928 0 00-.011.051l-.016.077-.011.057-.015.08-.01.054-.013.078-.01.059-.011.074-.009.06-.011.086-.006.045-.01.092-.005.045a2.452 2.452 0 00-.008.089l-.005.05-.006.082-.004.055-.005.084-.003.053-.003.086-.002.048a2.948 2.948 0 00-.002.094l-.001.042v.138l.001.098.001.036.003.098.002.042a2.958 2.958 0 00.007.136l.007.1.003.034.009.1.004.04.011.099.004.037.012.098.005.041.014.099a.445.445 0 01.005.036l.016.101a.532.532 0 00.007.039l.018.096.007.038.02.101a3.049 3.049 0 00.031.138l.007.032.023.097.011.045.024.09.011.042.027.096.011.038.028.093.014.046.027.086.017.05.028.083.018.052.028.077.023.062.027.071.024.06.029.072.012.029 10.931 26.233a7.46 7.46 0 003.927 3.98l26.963 11.661a7.465 7.465 0 008.241-1.573l32.786-32.787c2.932 18.297-2.964 37.234-16.38 50.65-16.978 16.979-43.138 21.84-65.095 12.101a7.464 7.464 0 00-8.306 1.545L179.83 356.677a7.465 7.465 0 0010.556 10.557l90.692-90.692a133.242 133.242 0 0036.161 14.8v10.076c0 11.367 9.248 20.615 20.615 20.615h23.166c11.367 0 20.615-9.248 20.615-20.615v-10.076a132.945 132.945 0 0037.184-15.411l7.131 7.131a20.481 20.481 0 0014.577 6.037 20.483 20.483 0 0014.577-6.037l16.38-16.38a20.478 20.478 0 006.038-14.577 20.482 20.482 0 00-6.038-14.578l-7.131-7.13a132.99 132.99 0 0015.411-37.184h10.075c11.367 0 20.615-9.248 20.615-20.615v-23.165c-.003-11.364-9.251-20.612-20.619-20.612zm-105.516 27.74l-15.115 15.115-19.63-9.019-7.808-18.217 18.78-18.781 21.028 6.31 6.309 21.028-3.564 3.564zm111.203 16.041a5.693 5.693 0 01-5.686 5.686h-13.864c-4.754 0-8.937 3.383-9.941 8.044a118.241 118.241 0 01-16.26 39.233c-2.582 4.006-2.016 9.355 1.345 12.716l9.808 9.808a5.648 5.648 0 011.665 4.02 5.646 5.646 0 01-1.666 4.021l-16.38 16.38a5.692 5.692 0 01-8.042 0l-9.808-9.808c-3.36-3.36-8.709-3.926-12.718-1.344a118.233 118.233 0 01-39.23 16.26c-4.662 1.005-8.045 5.186-8.045 9.941v13.865a5.693 5.693 0 01-5.686 5.686H337.85a5.693 5.693 0 01-5.686-5.686V287.56c0-4.755-3.384-8.937-8.043-9.942a118.211 118.211 0 01-32.106-12.01l14.171-14.17a100.456 100.456 0 0043.248 9.797c47.843 0 89.206-34.036 98.354-80.93a7.464 7.464 0 00-5.897-8.755 7.46 7.46 0 00-8.755 5.898c-7.782 39.899-42.984 68.86-83.7 68.86a85.548 85.548 0 01-31.928-6.19l8.665-8.665c26.491 9.534 56.8 2.956 76.881-17.126 20.479-20.479 27-51.197 16.614-78.26a7.462 7.462 0 00-5.416-4.626 7.473 7.473 0 00-6.831 2.022l-7.544 7.544-5.154-17.178a7.462 7.462 0 00-5.004-5.004l-17.178-5.154 7.543-7.543a7.465 7.465 0 00-2.604-12.247c-27.062-10.385-57.779-3.864-78.258 16.613-20.081 20.083-26.661 50.393-17.126 76.881l-9.881 9.881a85.203 85.203 0 01-8.065-36.235c0-47.028 38.259-85.287 85.287-85.287 42.749 0 79.108 31.916 84.577 74.242a7.464 7.464 0 1014.805-1.912c-6.427-49.745-49.152-87.258-99.383-87.258-55.258 0-100.216 44.957-100.216 100.216 0 16.593 4.092 32.843 11.879 47.351l-13.994 13.993a118.31 118.31 0 01-14.267-36.032c-1.007-4.661-5.188-8.044-9.943-8.044h-13.863a5.693 5.693 0 01-5.686-5.686v-23.165a5.694 5.694 0 015.686-5.687h13.864c4.754 0 8.935-3.382 9.941-8.043a118.241 118.241 0 0116.26-39.233c2.584-4.009 2.016-9.358-1.345-12.716l-9.808-9.807a5.695 5.695 0 010-8.043l16.38-16.38a5.692 5.692 0 018.042 0l9.807 9.807c3.361 3.363 8.71 3.929 12.719 1.346a118.23 118.23 0 0139.236-16.26c4.658-1.009 8.039-5.189 8.039-9.94V20.615a5.693 5.693 0 015.686-5.686h23.166a5.693 5.693 0 015.686 5.686V34.48c0 4.75 3.381 8.932 8.043 9.941a118.213 118.213 0 0139.23 16.258c4.007 2.584 9.356 2.017 12.72-1.343l9.808-9.808a5.692 5.692 0 018.042 0l16.38 16.38a5.693 5.693 0 010 8.042l-9.806 9.806c-3.364 3.361-3.931 8.71-1.347 12.721a118.236 118.236 0 0116.259 39.23c1.006 4.662 5.186 8.044 9.941 8.044h13.864a5.693 5.693 0 015.686 5.687v23.164z"/><path d="M153.399 147.85h-4.182a61.592 61.592 0 00-2.783-6.728l2.956-2.955c4.364-4.366 4.364-11.469-.001-15.836l-13.019-13.018c-2.115-2.115-4.927-3.279-7.918-3.279s-5.803 1.165-7.917 3.279l-2.955 2.955a61.708 61.708 0 00-6.728-2.783v-4.182c0-6.175-5.023-11.198-11.198-11.198H81.242c-6.175 0-11.198 5.023-11.198 11.198v4.182a61.592 61.592 0 00-6.728 2.783l-2.954-2.954a11.125 11.125 0 00-7.918-3.28 11.124 11.124 0 00-7.918 3.279l-13.02 13.019c-4.364 4.366-4.364 11.469.001 15.836l2.955 2.954a61.708 61.708 0 00-2.783 6.728h-4.182c-6.175 0-11.198 5.023-11.198 11.198v18.411c.001 6.175 5.024 11.198 11.199 11.198h4.182a61.592 61.592 0 002.783 6.728l-2.956 2.955c-4.364 4.366-4.364 11.469.001 15.836l13.019 13.018a11.124 11.124 0 007.918 3.279c2.992 0 5.803-1.165 7.917-3.279l2.955-2.955a61.708 61.708 0 006.728 2.783v4.182c0 6.175 5.023 11.198 11.198 11.198h18.411c6.175 0 11.198-5.023 11.198-11.198v-4.182a61.592 61.592 0 006.728-2.783l2.954 2.954a11.125 11.125 0 007.918 3.28c2.991 0 5.803-1.164 7.918-3.279l13.02-13.019c4.364-4.366 4.364-11.469-.001-15.836l-2.955-2.954a61.708 61.708 0 002.783-6.728h4.182c6.175 0 11.198-5.023 11.198-11.198v-18.411c0-6.174-5.023-11.198-11.198-11.198zm-3.735 25.877h-6.031a7.466 7.466 0 00-7.255 5.706 46.884 46.884 0 01-5.543 13.397 7.464 7.464 0 001.095 9.166l4.26 4.259-7.741 7.741-4.26-4.26a7.47 7.47 0 00-9.164-1.095 46.897 46.897 0 01-13.398 5.543 7.464 7.464 0 00-5.706 7.255v6.031H84.972v-6.031a7.465 7.465 0 00-5.706-7.255 46.897 46.897 0 01-13.398-5.543 7.46 7.46 0 00-9.164 1.095l-4.26 4.26-7.741-7.741 4.26-4.259a7.468 7.468 0 001.095-9.166 46.884 46.884 0 01-5.543-13.397 7.465 7.465 0 00-7.255-5.706h-6.031v-10.948h6.031a7.466 7.466 0 007.255-5.706 46.884 46.884 0 015.543-13.397 7.464 7.464 0 00-1.095-9.166l-4.26-4.259 7.741-7.741 4.26 4.26a7.467 7.467 0 009.164 1.095 46.897 46.897 0 0113.398-5.543 7.464 7.464 0 005.706-7.255v-6.031H95.92v6.031a7.465 7.465 0 005.706 7.255 46.897 46.897 0 0113.398 5.543 7.465 7.465 0 009.164-1.095l4.26-4.26 7.741 7.741-4.26 4.259a7.468 7.468 0 00-1.095 9.166 46.884 46.884 0 015.543 13.397 7.465 7.465 0 007.255 5.706h6.031v10.948z"/><path d="M90.447 131.926c-20.031 0-36.327 16.297-36.327 36.327s16.297 36.327 36.327 36.327 36.327-16.297 36.327-36.327-16.296-36.327-36.327-36.327zm0 57.726c-11.799 0-21.398-9.599-21.398-21.398s9.599-21.398 21.398-21.398 21.398 9.599 21.398 21.398c.001 11.798-9.599 21.398-21.398 21.398zm323.711 205.026h-4.182a61.592 61.592 0 00-2.783-6.728l2.956-2.955c4.364-4.366 4.364-11.469-.001-15.836l-13.019-13.018c-2.115-2.115-4.927-3.279-7.918-3.279s-5.803 1.165-7.917 3.279l-2.955 2.955a61.708 61.708 0 00-6.728-2.783v-4.182c0-6.175-5.023-11.198-11.198-11.198h-18.41c-6.175 0-11.198 5.023-11.198 11.198v4.182a61.592 61.592 0 00-6.728 2.783l-2.954-2.954a11.125 11.125 0 00-7.918-3.28 11.124 11.124 0 00-7.918 3.279l-13.02 13.019c-4.364 4.366-4.364 11.469.001 15.836l2.955 2.954a61.708 61.708 0 00-2.783 6.728h-4.182c-6.175 0-11.198 5.023-11.198 11.198v18.411c0 6.175 5.023 11.198 11.198 11.198h4.182a61.592 61.592 0 002.783 6.728l-2.956 2.955c-4.364 4.366-4.364 11.469.001 15.836l13.019 13.018c2.115 2.115 4.927 3.279 7.918 3.279s5.803-1.165 7.917-3.279l2.955-2.955a61.708 61.708 0 006.728 2.783v4.182c0 6.175 5.023 11.198 11.198 11.198h18.41c6.175 0 11.198-5.023 11.198-11.198v-4.182a61.592 61.592 0 006.728-2.783l2.954 2.954a11.125 11.125 0 007.918 3.28c2.991 0 5.803-1.164 7.918-3.279l13.02-13.019c4.364-4.366 4.364-11.469-.001-15.836l-2.955-2.954a61.708 61.708 0 002.783-6.728h4.182c6.175 0 11.198-5.023 11.198-11.198v-18.411c0-6.175-5.024-11.198-11.198-11.198zm-3.731 25.877h-6.031a7.466 7.466 0 00-7.255 5.706 46.884 46.884 0 01-5.543 13.397 7.464 7.464 0 001.095 9.166l4.26 4.259-7.741 7.741-4.26-4.26a7.468 7.468 0 00-9.164-1.095 46.897 46.897 0 01-13.398 5.543 7.464 7.464 0 00-5.706 7.255v6.031h-10.948v-6.031a7.465 7.465 0 00-5.706-7.255 46.897 46.897 0 01-13.398-5.543 7.46 7.46 0 00-9.164 1.095l-4.26 4.26-7.741-7.741 4.26-4.259a7.468 7.468 0 001.095-9.166 46.884 46.884 0 01-5.543-13.397 7.465 7.465 0 00-7.255-5.706h-6.031v-10.948h6.031a7.466 7.466 0 007.255-5.706 46.884 46.884 0 015.543-13.397 7.464 7.464 0 00-1.095-9.166l-4.26-4.259 7.741-7.741 4.26 4.26a7.467 7.467 0 009.164 1.095 46.897 46.897 0 0113.398-5.543 7.464 7.464 0 005.706-7.255v-6.031h10.948v6.031a7.465 7.465 0 005.706 7.255 46.897 46.897 0 0113.398 5.543 7.465 7.465 0 009.164-1.095l4.26-4.26 7.741 7.741-4.26 4.259a7.468 7.468 0 00-1.095 9.166 46.884 46.884 0 015.543 13.397 7.465 7.465 0 007.255 5.706h6.031v10.948z"/><path d="M351.208 378.753c-20.031 0-36.327 16.297-36.327 36.327s16.297 36.327 36.327 36.327 36.327-16.297 36.327-36.327-16.296-36.327-36.327-36.327zm0 57.726c-11.799 0-21.398-9.599-21.398-21.398s9.599-21.398 21.398-21.398 21.398 9.599 21.398 21.398-9.599 21.398-21.398 21.398z"/></svg>