<svg xmlns="http://www.w3.org/2000/svg" viewBox="0 0 512.001 512.001"><path d="M504.694 222.444l-.078-.273a10 10 0 00-6.57-7.139c-1.228-.408-30.559-9.95-72.438-7.011-38.553 2.704-95.542 16.96-148.108 69.525-52.565 52.566-66.82 109.554-69.522 148.105-2.936 41.88 6.606 71.208 7.014 72.436a9.998 9.998 0 006.34 6.34c1.065.354 23.253 7.574 56.434 7.574 5.087 0 10.435-.17 16.002-.56 38.551-2.703 95.539-16.958 148.105-69.522 93.008-93.01 68.649-199.144 62.821-219.475zm-102.697 8.8a209.033 209.033 0 0124.153-3.211c20.256-1.504 37.415.252 49.1 2.242a10.04 10.04 0 00-1.42 1.172l-71.833 71.833v-72.036zm-20 4.938v87.098l-67.029 67.029V272.108a9.99 9.99 0 00-.049-.968c20.743-16.059 43.157-27.736 67.078-34.958zM227.928 427.049c3.584-51.126 25.02-96.668 63.714-135.361a268.153 268.153 0 013.326-3.262v121.438c0 .143.015.281.021.422L230.175 475.1c-1.945-11.471-3.639-28.186-2.247-48.051zm65.297 64.379c-20.131 1.494-37.205-.232-48.886-2.208l31.238-31.238c.034 0 .066.005.1.005h115.294c-29.608 19.589-62.329 30.811-97.746 33.441zm134.506-63.653c-3.55 3.55-7.16 6.953-10.825 10.213H295.572l58.04-58.04h111.123c-9.192 15.95-21.258 32.081-37.004 47.827zm47.146-67.827H373.611l114.36-114.36c.427-.427.798-.887 1.131-1.365 4.148 24.127 6.768 67.988-14.225 115.725z"/><path d="M234.501 277.544c-52.566-52.565-109.555-66.821-148.108-69.525-41.877-2.937-71.21 6.604-72.438 7.011a10.003 10.003 0 00-6.57 7.14l-.078.273C1.479 242.775-22.88 348.909 70.129 441.918c29.508 29.508 63.305 50.019 100.45 60.961a10 10 0 002.831.41c4.32 0 8.305-2.822 9.588-7.176 1.561-5.298-1.469-10.858-6.766-12.418-33.902-9.988-64.842-28.802-91.96-55.919-23.637-23.637-39.004-48.14-48.759-71.599h99.106l48.266 48.266c1.953 1.953 4.512 2.929 7.071 2.929s5.119-.976 7.071-2.929c3.905-3.905 3.905-10.237 0-14.143l-11.025-11.023V263.074c11.978 8.156 23.44 17.698 34.356 28.613 3.905 3.905 10.237 3.905 14.143 0 3.906-3.905 3.905-10.237 0-14.143zM84.994 227.971c4.379.307 8.715.755 13.011 1.324v61.985l-60.406-60.406c-.23-.23-.471-.445-.717-.648 11.474-1.949 28.215-3.652 48.112-2.255zM28.412 336.178v-.001c-11.317-38.122-8.972-71.737-5.539-91.806.185.22.376.438.583.646l91.161 91.162H28.412zm137.591 23.1l-47.999-47.999v-78.332c16.71 3.931 32.726 9.957 47.999 18.052v108.279z"/><path d="M188.871 449.601c-19.324-5.693-37.67-14.818-54.529-27.12-4.462-3.256-10.717-2.278-13.973 2.183-3.256 4.461-2.278 10.717 2.183 13.973 18.72 13.662 39.131 23.805 60.666 30.149a10 10 0 002.831.41c4.32 0 8.305-2.822 9.588-7.176 1.561-5.299-1.468-10.859-6.766-12.419zm-78.579-47.779l-.035-.035c-3.905-3.903-10.218-3.886-14.125.018-3.905 3.905-3.887 10.255.018 14.16a9.968 9.968 0 007.071 2.929 9.966 9.966 0 007.071-2.929c3.905-3.905 3.905-10.237 0-14.143zm17.86-274.825H74.005V83.498h37.3c5.523 0 10-4.477 10-10s-4.477-10-10-10h-37.3V19.999h54.146c5.523 0 10-4.477 10-10s-4.477-10-10-10H64.006c-5.523 0-10 4.477-10 10v126.997c0 5.523 4.477 10 10 10h64.146c5.523 0 10-4.477 10-10s-4.477-9.999-10-9.999zM383.997 0c-40.527 0-73.498 32.971-73.498 73.498 0 40.527 32.971 73.498 73.498 73.498 40.527 0 73.498-32.971 73.498-73.498C457.495 32.971 424.524 0 383.997 0zm0 126.997c-29.499 0-53.499-23.999-53.499-53.499s23.999-53.499 53.499-53.499 53.499 23.999 53.499 53.499-24 53.499-53.499 53.499zm-112.462-15.67c-20.858 20.859-54.8 20.859-75.658 0-20.859-20.858-20.859-54.799 0-75.658 20.858-20.859 54.799-20.859 75.658 0 3.905 3.905 10.237 3.905 14.143 0 3.905-3.905 3.905-10.237 0-14.143-28.657-28.656-75.285-28.656-103.942 0-28.657 28.657-28.657 75.286 0 103.942 14.328 14.329 33.149 21.493 51.971 21.493s37.643-7.165 51.972-21.492c3.905-3.905 3.905-10.237 0-14.143-3.906-3.904-10.238-3.904-14.144.001zm-15.467 59.031c-5.523 0-10 4.477-10 10v28.279c0 5.523 4.477 10 10 10s10-4.477 10-10v-28.279c-.001-5.523-4.478-10-10-10zm58.357 27.549c-3.906-3.906-10.237-3.905-14.142 0l-20.391 20.39c-3.905 3.905-3.906 10.237 0 14.142a9.968 9.968 0 007.071 2.929 9.97 9.97 0 007.071-2.929l20.39-20.39c3.906-3.906 3.907-10.238.001-14.142zm-82.283 20.094l-20.424-20.425c-3.906-3.906-10.237-3.904-14.142 0-3.905 3.905-3.906 10.237 0 14.142L218 232.143c1.953 1.953 4.512 2.929 7.071 2.929s5.119-.977 7.071-2.929c3.905-3.905 3.906-10.237 0-14.142z"/></svg>