<svg xmlns="http://www.w3.org/2000/svg" viewBox="0 0 512 512"><path d="M98.086 83.654H79.225c-6.556 0-11.889 5.333-11.889 11.889v18.861c0 6.556 5.333 11.889 11.889 11.889h18.861c6.556 0 11.889-5.333 11.889-11.889V95.543c0-6.556-5.333-11.889-11.889-11.889zm-3.349 27.401H82.574V98.892h12.163v12.163zm69.674-27.401h-18.86c-6.556 0-11.889 5.333-11.889 11.889v18.861c0 6.556 5.333 11.889 11.889 11.889h18.86c6.556 0 11.889-5.333 11.889-11.889V95.543c.001-6.556-5.333-11.889-11.889-11.889zm-3.349 27.401H148.9V98.892h12.162v12.163zm68.041-27.401h-18.861c-6.556 0-11.889 5.333-11.889 11.889v18.861c0 6.556 5.333 11.889 11.889 11.889h18.861c6.556 0 11.889-5.333 11.889-11.889V95.543c0-6.556-5.334-11.889-11.889-11.889zm-3.349 27.401H213.59V98.892h12.163v12.163zm7.62-76.217H74.955a7.619 7.619 0 100 15.238h158.418a7.619 7.619 0 007.619-7.619 7.618 7.618 0 00-7.618-7.619zm0 267.967h-29.091a7.619 7.619 0 100 15.238h29.091a7.619 7.619 0 100-15.238z"/><path d="M461.566 210.198l-28.305-1.277a169.364 169.364 0 00-18.993-45.773l19.092-20.895a16.249 16.249 0 00-.506-22.485L398.546 85.46a16.252 16.252 0 00-22.467-.523l-20.95 19.085a169.357 169.357 0 00-45.735-18.969l-1.278-28.305a16.246 16.246 0 00-16.257-15.54H275.07V18.486C275.071 8.293 266.777 0 256.585 0H53.377C43.185 0 34.892 8.293 34.892 18.486v42.72a7.619 7.619 0 1015.238 0v-42.72a3.25 3.25 0 013.247-3.248h203.207a3.25 3.25 0 013.247 3.248v252.12h-18.84v-125.52a7.619 7.619 0 00-7.619-7.619H74.955a7.619 7.619 0 00-7.619 7.619v125.52H50.13V91.273a7.619 7.619 0 10-15.238 0v386.194c0 .264.013.524.04.781.414 10.19 8.81 18.359 19.1 18.359h4.335v7.774a7.619 7.619 0 1015.238 0v-7.774h115.134a7.619 7.619 0 100-15.238H54.033a3.906 3.906 0 01-3.902-3.902V285.845H99.85a7.619 7.619 0 100-15.238H82.574v-21.114h143.179v21.114H129.31a7.619 7.619 0 100 15.238h130.522v191.621a3.906 3.906 0 01-3.902 3.902h-37.103a7.619 7.619 0 100 15.238h15.9v7.774a7.619 7.619 0 1015.238 0v-7.774h5.965c10.29 0 18.686-8.169 19.1-18.359.026-.257.04-.517.04-.781v-16.949h16.789a16.246 16.246 0 0016.257-15.541l1.278-28.304a169.426 169.426 0 0045.735-18.969l20.95 19.085a16.25 16.25 0 0022.467-.523l34.309-34.31a16.247 16.247 0 00.506-22.484l-19.092-20.895a169.303 169.303 0 0019.058-46.03l28.265-1.317a16.252 16.252 0 0015.515-16.256v-48.519a16.247 16.247 0 00-15.541-16.256zm-299.869 24.057h-15.382l-2.485-39.885h20.614l-2.747 39.885zm64.057 0h-48.782l3.236-46.98a7.615 7.615 0 00-2.032-5.723 7.614 7.614 0 00-5.569-2.42h-36.884a7.62 7.62 0 00-7.605 8.093l2.93 47.03H82.574v-81.549h13.868v2.615a7.619 7.619 0 1015.238 0v-2.615h34.864v2.615a7.619 7.619 0 1015.238 0v-2.615h34.88v2.615a7.619 7.619 0 1015.238 0v-2.615h13.853v81.549zm235.128 41.754l-34.027 1.586a7.62 7.62 0 00-7.095 6.018c-3.944 18.441-11.147 35.837-21.408 51.704a7.618 7.618 0 00.773 9.276l22.987 25.159c.375.41.361 1.039-.032 1.431l-34.309 34.309a1.034 1.034 0 01-1.43.034l-25.211-22.967a7.622 7.622 0 00-9.266-.767 154.397 154.397 0 01-51.428 21.33 7.618 7.618 0 00-6.005 7.104l-1.538 34.065a1.033 1.033 0 01-1.035.989h-16.789v-82.978c58.051-3.929 104.077-52.41 104.077-111.438 0-37.891-18.971-72.887-50.747-93.615a7.62 7.62 0 00-8.326 12.764c27.447 17.903 43.834 48.128 43.834 80.851 0 50.622-39.2 92.26-88.839 96.157v-192.31c6.89.538 13.681 1.8 20.269 3.785a7.618 7.618 0 009.493-5.096 7.617 7.617 0 00-5.096-9.493 111.336 111.336 0 00-24.666-4.482V56.447h16.789c.556 0 1.01.434 1.035.988l1.538 34.067a7.62 7.62 0 006.006 7.105c18.339 3.953 35.642 11.129 51.427 21.327a7.622 7.622 0 009.266-.767l25.212-22.966a1.033 1.033 0 011.429.034l34.309 34.308c.393.393.407 1.022.032 1.432l-22.987 25.157a7.62 7.62 0 00-.773 9.277c10.215 15.799 17.401 33.115 21.356 51.469a7.62 7.62 0 007.105 6.006l34.067 1.537c.555.025.988.48.988 1.036v48.518h.002a1.036 1.036 0 01-.987 1.034z"/></svg>