<svg id="Layer_1" data-name="Layer 1" xmlns="http://www.w3.org/2000/svg" xmlns:xlink="http://www.w3.org/1999/xlink" viewBox="0 0 1918.48 394.21"><title>ctvendlogofull</title><path d="M369.2,534.77q0-67.78,19.59-100.49t59.94-32.72a101.39,101.39,0,0,1,28.6,4.12q14.12,4.11,23.51,12.34a14,14,0,0,1,4.7,8.22,16.74,16.74,0,0,1-.78,8.82,15.87,15.87,0,0,1-5.49,7.05,14.62,14.62,0,0,1-9,2.94,15.2,15.2,0,0,1-9.4-2.94,15.4,15.4,0,0,1-5.49-8q-3.92-11.76-11.36-17t-14.1-5.29h-.78q-7.45,0-13.72,6.26t-11,20.73q-4.69,14.47-7.24,37.94t-2.55,57.89q0,32.48,4.11,55.74t10.58,38.14q6.46,14.87,14.89,21.9t17,7q10.58,0,18.22-3.92a56.59,56.59,0,0,0,12.73-8.62,48.3,48.3,0,0,0,9.8-12.92l12.14,7.44a67.33,67.33,0,0,1-14.5,14.1,79.28,79.28,0,0,1-18.21,9.83A66,66,0,0,1,457,667.58q-40.35,0-64-33.7T369.2,534.77Z" transform="translate(8.47 -355.03)"/><path d="M540,475.61H529.83V401.56H690.45v74.05H680.27v-27a36.91,36.91,0,0,0-2.74-14.11,35.32,35.32,0,0,0-7.64-11.56,38.57,38.57,0,0,0-11.37-7.83,38.12,38.12,0,0,0-13.9-3.33l-12.93.39V635.06a22.74,22.74,0,0,0,22.72,22.72h11.36V668H551V657.78h11.36a22.74,22.74,0,0,0,22.73-22.72V411.75h-8.62a34.54,34.54,0,0,0-14.11,2.94,37.66,37.66,0,0,0-11.55,7.83A37.09,37.09,0,0,0,543,434.28a35.93,35.93,0,0,0-2.94,14.3Z" transform="translate(8.47 -355.03)"/><path d="M874.19,420.37a22.12,22.12,0,0,0-4.31,19.19l41.53,186.1,41.14-186.1a22.79,22.79,0,0,0-4.31-19.19,23.94,23.94,0,0,0-7.64-6.27,21.27,21.27,0,0,0-10-2.35H911.8V401.56h109.31v10.19H1000a31.2,31.2,0,0,0-20,6.85,30.21,30.21,0,0,0-11,17.83L917.29,668l-41.92-.39L822.48,429.77a23.73,23.73,0,0,0-8.23-12.93,21.81,21.81,0,0,0-14.1-5.09H788.39V401.56H896.13v10.19h-3.92Q880.84,411.75,874.19,420.37Z" transform="translate(8.47 -355.03)"/><path d="M975.26,575.12q0-27.42,5.49-46t15.08-29.78a53.69,53.69,0,0,1,22.53-15.87,80.89,80.89,0,0,1,27.82-4.7q17.63,0,30.36,4.9t21,17.43q8.22,12.54,12.34,33.7t4.11,53.67h-96q1.56,21.27,6.66,35.25T1036.58,646q6.84,8.26,13.71,11.62t12,3.35q11,0,18.61-3.14a55.44,55.44,0,0,0,12.73-7,33.05,33.05,0,0,0,9.4-10.58v16.46a40.93,40.93,0,0,1-11.75,7.32,72,72,0,0,1-16.06,5.1,115.44,115.44,0,0,1-23.51,2.07,82.68,82.68,0,0,1-29-5.09,61.72,61.72,0,0,1-24.29-16.65q-10.57-11.55-16.85-29.78T975.26,575.12Zm98-.39q0-27.42-2.16-44.08T1065,505q-3.92-9-8.81-12.14a18.37,18.37,0,0,0-10-3.14,19.87,19.87,0,0,0-10.58,3.14q-5.1,3.13-9,12.14t-6.47,25.86q-2.55,16.85-2.54,43.88Z" transform="translate(8.47 -355.03)"/><path d="M1190.35,480.31v28.6a44,44,0,0,1,4.11-9.6,40.1,40.1,0,0,1,8-10,42.38,42.38,0,0,1,12.73-7.84,48.12,48.12,0,0,1,18.22-3.13q14.88,0,23.9,6.28a43.08,43.08,0,0,1,13.71,15.12,55.53,55.53,0,0,1,6.07,18.26,112,112,0,0,1,1.38,15.7l.39.39V637.37a19.61,19.61,0,0,0,5.68,14.13,19,19,0,0,0,14.3,5.89v10.19h-80.71V657.39a20.06,20.06,0,0,0,20-20V538.68a99.92,99.92,0,0,0-.78-10.38,55.7,55.7,0,0,0-3.33-13.52,36.3,36.3,0,0,0-7.25-11.75q-4.69-5.08-12.54-5.09a14.25,14.25,0,0,0-11,4.7,38.79,38.79,0,0,0-7,11.17,71.51,71.51,0,0,0-4.11,12.73q-1.38,6.27-1.76,9.4V637.41a20.06,20.06,0,0,0,20,20v10.19h-80.71V657.39a20.08,20.08,0,0,0,20-20V529.28q0-14.49-6.27-19.2a22.39,22.39,0,0,0-13.71-4.7V495.2A83.54,83.54,0,0,0,1149.8,493a79.16,79.16,0,0,0,14.69-5,37.21,37.21,0,0,0,11.36-7.64Z" transform="translate(8.47 -355.03)"/><path d="M1463.8,426.64a23,23,0,0,0-13.71,4.5q-6.27,4.51-6.27,19v176.3a20.06,20.06,0,0,0,20,20v10.19q-11.37,0-21.94,1t-19.2,2.15h-.78q-4.32.79-7.64,1.18c-2.22.26-4.25.52-6.07.78a108.42,108.42,0,0,0-12,2.74q-5.29,1.57-10.58,2.94t-11.36,2.35a91.43,91.43,0,0,1-14.3,1q-16.85,0-26-8.44a51.77,51.77,0,0,1-13.52-19.43,69.67,69.67,0,0,1-4.9-21.79q-.59-10.78-.59-15.51V541.16q-.78-17.65,3.53-31.41a51.06,51.06,0,0,1,4.7-11.57,35.37,35.37,0,0,1,8.23-10,42.48,42.48,0,0,1,12.14-7.07,45.27,45.27,0,0,1,16.46-2.75,48.12,48.12,0,0,1,18.22,3.13,42.5,42.5,0,0,1,12.73,7.84,40.32,40.32,0,0,1,8,10,44,44,0,0,1,4.11,9.6V402H1418a45,45,0,0,0,11.36,7.45,70.15,70.15,0,0,0,14.11,4.9,85,85,0,0,0,20.37,2.15Zm-60.73,109.3c-.25-2.09-.84-5.22-1.75-9.4a72.1,72.1,0,0,0-4.07-12.73,36.92,36.92,0,0,0-7.19-11.17,14.24,14.24,0,0,0-10.68-4.7q-9.33,0-14.17,6.85a42.84,42.84,0,0,0-6.8,15.09,107.5,107.5,0,0,0-2.74,21.55v61.5a157.3,157.3,0,0,0,2.74,26.64,54.42,54.42,0,0,0,6.8,18.22,15.56,15.56,0,0,0,14.17,8q7,0,11.46-2.54a19.86,19.86,0,0,0,7-6.47,30,30,0,0,0,3.69-8,47.46,47.46,0,0,0,1.55-7.25Z" transform="translate(8.47 -355.03)"/><path d="M1540.19,637.41a20.08,20.08,0,0,0,20,20v10.19h-80.7V657.39a20.08,20.08,0,0,0,20-20V529.28q0-14.49-6.27-19.2a22.41,22.41,0,0,0-13.71-4.7V495.2a85.08,85.08,0,0,0,20.17-2.16,68.91,68.91,0,0,0,14.3-4.9,44.52,44.52,0,0,0,11.36-7.44h14.89Zm-18.81-184.92a26.25,26.25,0,1,1,0-52.49,24.69,24.69,0,0,1,18.42,7.64,27,27,0,0,1,0,37.21A24.69,24.69,0,0,1,1521.38,452.49Z" transform="translate(8.47 -355.03)"/><path d="M1636.56,480.31v28.6a44.45,44.45,0,0,1,4.11-9.6,40.14,40.14,0,0,1,8-10,42.38,42.38,0,0,1,12.73-7.84,48,48,0,0,1,18.22-3.13q14.88,0,23.89,6.28a43.11,43.11,0,0,1,13.72,15.12,56,56,0,0,1,6.07,18.26,113.27,113.27,0,0,1,1.37,15.7l.39.39V637.37a19.61,19.61,0,0,0,5.68,14.13,19,19,0,0,0,14.3,5.89v10.19h-80.7V657.39a20.08,20.08,0,0,0,20-20V538.68a100.55,100.55,0,0,0-.79-10.38,55.24,55.24,0,0,0-3.33-13.52A36.45,36.45,0,0,0,1673,503q-4.71-5.08-12.54-5.09a14.24,14.24,0,0,0-11,4.7,38.37,38.37,0,0,0-7,11.17,72.39,72.39,0,0,0-4.12,12.73q-1.36,6.27-1.76,9.4V637.41a20.08,20.08,0,0,0,20,20v10.19h-80.7V657.39a20.08,20.08,0,0,0,20-20V529.28q0-14.49-6.27-19.2a22.39,22.39,0,0,0-13.71-4.7V495.2A83.4,83.4,0,0,0,1596,493a78.64,78.64,0,0,0,14.69-5,37.14,37.14,0,0,0,11.37-7.64Z" transform="translate(8.47 -355.03)"/><path d="M1806.19,671.49a45.18,45.18,0,0,1-16.45-2.74,42,42,0,0,1-12.15-7,35.25,35.25,0,0,1-8.22-10,50.84,50.84,0,0,1-4.71-11.56q-4.31-13.71-3.52-31.73V544.56q0-4.69.59-15.47a69.7,69.7,0,0,1,4.89-21.75A51.72,51.72,0,0,1,1780.14,488q9.19-8.42,26-8.42a113.88,113.88,0,0,1,14.3.78,94.42,94.42,0,0,1,11.36,2.15q5.3,1.38,10.58,2.94a107.21,107.21,0,0,0,12,2.74q5.08,1.19,13.71,2.36h.79q8.61,1.17,19.19,2.15t21.94,1v10.19a20.06,20.06,0,0,0-20,20v154l-.78.79q-1.56,18.41-6.84,31a70,70,0,0,1-12.7,20.56,51.67,51.67,0,0,1-16.42,12.15,73,73,0,0,1-18.37,5.68q-21.5,3.92-48.46-3.53V731.83q16.38,4.7,29.66.39a40.08,40.08,0,0,0,11.31-6.07,43.8,43.8,0,0,0,10.15-11.36,67.94,67.94,0,0,0,7.8-18.22,121.25,121.25,0,0,0,3.91-26.64v-29a44.27,44.27,0,0,1-4.12,9.59,40.32,40.32,0,0,1-8,10,42.16,42.16,0,0,1-12.73,7.83A47.89,47.89,0,0,1,1806.19,671.49Zm19.41-177.08q-9.33,0-14.18,8.23a56.71,56.71,0,0,0-6.79,18.41,155.51,155.51,0,0,0-2.75,26.25v61.12a109,109,0,0,0,2.75,21.94,40.88,40.88,0,0,0,6.79,14.89q4.85,6.66,14.18,6.66a14.18,14.18,0,0,0,10.67-4.71,38,38,0,0,0,7.19-10.77,63.05,63.05,0,0,0,4.08-12.34c.9-4.18,1.49-7.31,1.75-9.4V518.31a49.39,49.39,0,0,0-1.56-7.25,26.91,26.91,0,0,0-3.69-7.83,20.53,20.53,0,0,0-7-6.27Q1832.59,494.41,1825.6,494.41Z" transform="translate(8.47 -355.03)"/><image width="438" height="570" transform="scale(0.65)" xlink:href="../Downloads/noun_vending_machine_51068-removebg-preview.png"/></svg>