<svg id="Layer_1" data-name="Layer 1" xmlns="http://www.w3.org/2000/svg" xmlns:xlink="http://www.w3.org/1999/xlink" viewBox="0 0 1519.55 312.24"><title>ctvendlogov3</title><path d="M499.37,569.75q0-53.67,15.51-79.59t47.48-25.91A80.61,80.61,0,0,1,585,467.51a48.44,48.44,0,0,1,18.62,9.77,11.11,11.11,0,0,1,3.72,6.52,13.2,13.2,0,0,1-.62,7,12.59,12.59,0,0,1-4.34,5.59,11.59,11.59,0,0,1-7.14,2.32A11.79,11.79,0,0,1,583.46,490q-3.11-9.31-9-13.5t-11.17-4.19h-.62c-3.93,0-7.56,1.65-10.86,5s-6.21,8.77-8.69,16.42-4.4,17.65-5.74,30.05a434.45,434.45,0,0,0-2,45.85q0,25.71,3.26,44.15T547,644q5.12,11.77,11.79,17.34t13.5,5.58a31.29,31.29,0,0,0,14.43-3.1A45.37,45.37,0,0,0,596.8,657a38,38,0,0,0,7.76-10.24l9.62,5.9a53.53,53.53,0,0,1-11.48,11.17,62.94,62.94,0,0,1-14.43,7.78,52.23,52.23,0,0,1-19.4,3.39q-31.95,0-50.73-26.69T499.37,569.75Z" transform="translate(-200.23 -427.39)"/><path d="M634.66,522.9h-8.07V464.25H753.81V522.9h-8.06V501.49a29,29,0,0,0-2.18-11.17,27.71,27.71,0,0,0-6.05-9.16,30.43,30.43,0,0,0-9-6.2,30.06,30.06,0,0,0-11-2.64l-10.24.31V649.19a18,18,0,0,0,18,18h9v8.07H643.34v-8.07h9a18,18,0,0,0,18-18V472.32h-6.83a27.24,27.24,0,0,0-11.17,2.33A28.92,28.92,0,0,0,637,490.16a28.5,28.5,0,0,0-2.32,11.33Z" transform="translate(-200.23 -427.39)"/><path d="M899.34,479.14a17.54,17.54,0,0,0-3.41,15.21l32.89,147.4,32.59-147.4a17.74,17.74,0,0,0,0-8.07,17.94,17.94,0,0,0-3.42-7.14,18.91,18.91,0,0,0-6-5,16.87,16.87,0,0,0-7.91-1.86h-14.9v-8.07h86.58v8.07H999a24.65,24.65,0,0,0-15.82,5.43,23.85,23.85,0,0,0-8.69,14.12l-41,183.39L900.27,675,858.38,486.59a18.76,18.76,0,0,0-6.51-10.24,17.32,17.32,0,0,0-11.17-4h-9.31v-8.07h85.33v8.07h-3.1A17.13,17.13,0,0,0,899.34,479.14Z" transform="translate(-200.23 -427.39)"/><path d="M979.4,601.72q0-21.72,4.34-36.46t12-23.59a42.61,42.61,0,0,1,17.84-12.57,64.06,64.06,0,0,1,22-3.72q14,0,24,3.88a34.55,34.55,0,0,1,16.61,13.81q6.51,9.93,9.77,26.68t3.26,42.52h-76q1.24,16.85,5.28,27.92t9.46,17.63q5.43,6.55,10.86,9.2a22.21,22.21,0,0,0,9.47,2.65,38.8,38.8,0,0,0,14.74-2.48,43.55,43.55,0,0,0,10.08-5.58,26.2,26.2,0,0,0,7.45-8.38v13a32.47,32.47,0,0,1-9.31,5.8,56.84,56.84,0,0,1-12.72,4,91.63,91.63,0,0,1-18.62,1.64,65.6,65.6,0,0,1-23-4,49,49,0,0,1-19.24-13.19q-8.38-9.15-13.35-23.58T979.4,601.72Zm77.58-.31q0-21.72-1.71-34.91t-4.81-20.33q-3.11-7.14-7-9.62a14.59,14.59,0,0,0-7.91-2.48,15.78,15.78,0,0,0-8.38,2.48q-4,2.49-7.14,9.62t-5.12,20.48q-2,13.35-2,34.76Z" transform="translate(-200.23 -427.39)"/><path d="M1149.76,526.62v22.65a34.52,34.52,0,0,1,3.26-7.6,31.88,31.88,0,0,1,6.36-7.91,33.42,33.42,0,0,1,10.08-6.21,38.07,38.07,0,0,1,14.43-2.48q11.79,0,18.93,5a34.13,34.13,0,0,1,10.86,12,44.42,44.42,0,0,1,4.81,14.46,90,90,0,0,1,1.09,12.44l.31.31V651a15.53,15.53,0,0,0,4.5,11.2,15,15,0,0,0,11.32,4.66V675h-63.92v-8.07a15.88,15.88,0,0,0,15.82-15.82v-78.2a77.37,77.37,0,0,0-.62-8.23,43.94,43.94,0,0,0-2.63-10.7,28.79,28.79,0,0,0-5.74-9.31,12.88,12.88,0,0,0-9.93-4,11.26,11.26,0,0,0-8.69,3.72,30.63,30.63,0,0,0-5.59,8.84,57.64,57.64,0,0,0-3.26,10.09c-.72,3.31-1.19,5.79-1.39,7.45v80.37a15.88,15.88,0,0,0,15.82,15.82V675h-63.92v-8.07a15.89,15.89,0,0,0,15.83-15.82V565.41q0-11.48-5-15.2a17.67,17.67,0,0,0-10.86-3.73v-8.07a65.79,65.79,0,0,0,16-1.75,62.7,62.7,0,0,0,11.64-4,29.54,29.54,0,0,0,9-6.06Z" transform="translate(-200.23 -427.39)"/><path d="M1366.35,484.11a18.16,18.16,0,0,0-10.86,3.57q-5,3.57-5,15.05V642.37a15.89,15.89,0,0,0,15.83,15.82v8.07q-9,0-17.38.78t-15.21,1.7h-.62c-2.28.42-4.29.73-6.05.93s-3.36.42-4.81.62a85.08,85.08,0,0,0-9.46,2.18c-2.79.82-5.59,1.6-8.38,2.32s-5.79,1.35-9,1.87a73,73,0,0,1-11.32.77q-13.35,0-20.64-6.69a41.06,41.06,0,0,1-10.71-15.38,55.55,55.55,0,0,1-3.87-17.26q-.47-8.55-.47-12.29v-51a72.05,72.05,0,0,1,2.79-24.88,40.83,40.83,0,0,1,3.73-9.17,28,28,0,0,1,6.51-7.92,33.63,33.63,0,0,1,9.62-5.6,35.84,35.84,0,0,1,13-2.18,38,38,0,0,1,14.42,2.48,33.48,33.48,0,0,1,10.09,6.21,31.88,31.88,0,0,1,6.36,7.91,35,35,0,0,1,3.26,7.6V464.56H1330a35.61,35.61,0,0,0,9,5.9,55.33,55.33,0,0,0,11.17,3.88,67.56,67.56,0,0,0,16.14,1.7Zm-48.1,86.58c-.2-1.66-.67-4.14-1.39-7.45a57.46,57.46,0,0,0-3.23-10.09,28.89,28.89,0,0,0-5.69-8.84,11.27,11.27,0,0,0-8.45-3.72q-7.4,0-11.23,5.43a34,34,0,0,0-5.39,11.94A85.79,85.79,0,0,0,1280.7,575v48.72a125.52,125.52,0,0,0,2.17,21.1,43.27,43.27,0,0,0,5.39,14.43,12.34,12.34,0,0,0,11.23,6.36,18.13,18.13,0,0,0,9.07-2,15.63,15.63,0,0,0,5.53-5.12,23.47,23.47,0,0,0,2.93-6.36,38.9,38.9,0,0,0,1.23-5.74Z" transform="translate(-200.23 -427.39)"/><path d="M1426.85,651.06a15.89,15.89,0,0,0,15.83,15.82V675h-63.92v-8.07a15.88,15.88,0,0,0,15.82-15.82V565.41q0-11.48-5-15.2a17.71,17.71,0,0,0-10.86-3.73v-8.07a67.58,67.58,0,0,0,16-1.7,55.1,55.1,0,0,0,11.32-3.88,35.61,35.61,0,0,0,9-5.9h11.79ZM1412,504.59a20.79,20.79,0,1,1,0-41.58,19.56,19.56,0,0,1,14.58,6.05,21.36,21.36,0,0,1,0,29.48A19.56,19.56,0,0,1,1412,504.59Z" transform="translate(-200.23 -427.39)"/><path d="M1503.18,526.62v22.65a35,35,0,0,1,3.26-7.6,31.88,31.88,0,0,1,6.36-7.91,33.48,33.48,0,0,1,10.09-6.21,38,38,0,0,1,14.43-2.48q11.79,0,18.93,5a34.32,34.32,0,0,1,10.86,12,44.42,44.42,0,0,1,4.81,14.46,89.74,89.74,0,0,1,1.08,12.44l.31.31V651a15.57,15.57,0,0,0,4.5,11.2,15.08,15.08,0,0,0,11.33,4.66V675h-63.92v-8.07A15.88,15.88,0,0,0,1541,651.06v-78.2a80.17,80.17,0,0,0-.62-8.23,44,44,0,0,0-2.64-10.7,28.45,28.45,0,0,0-5.74-9.31,12.85,12.85,0,0,0-9.93-4,11.28,11.28,0,0,0-8.69,3.72,30.61,30.61,0,0,0-5.58,8.84,56.81,56.81,0,0,0-3.26,10.09c-.73,3.31-1.19,5.79-1.4,7.45v80.37A15.89,15.89,0,0,0,1519,666.88V675h-63.92v-8.07a15.88,15.88,0,0,0,15.82-15.82V565.41q0-11.48-5-15.2a17.69,17.69,0,0,0-10.86-3.73v-8.07a65.91,65.91,0,0,0,16-1.75,62.32,62.32,0,0,0,11.63-4,29.42,29.42,0,0,0,9-6.06Z" transform="translate(-200.23 -427.39)"/><path d="M1637.54,678.05a36,36,0,0,1-13-2.17,33.61,33.61,0,0,1-9.62-5.59,28.05,28.05,0,0,1-6.52-7.91,40,40,0,0,1-3.72-9.15q-3.42-10.86-2.79-25.14V577.51q0-3.72.46-12.25A55.12,55.12,0,0,1,1606.2,548a40.85,40.85,0,0,1,10.71-15.36q7.27-6.66,20.63-6.67a90.58,90.58,0,0,1,11.33.62,75.74,75.74,0,0,1,9,1.71c2.79.73,5.58,1.5,8.38,2.33a87.51,87.51,0,0,0,9.46,2.17q4,.93,10.86,1.86h.62q6.82.93,15.21,1.71t17.37.77v8.07A15.88,15.88,0,0,0,1704,561.07V683l-.62.62q-1.24,14.58-5.42,24.51a55.48,55.48,0,0,1-10.06,16.29,40.89,40.89,0,0,1-13,9.62,58,58,0,0,1-14.55,4.5q-17,3.11-38.39-2.79v-9.93q13,3.72,23.49.31a31.67,31.67,0,0,0,9-4.81,34.36,34.36,0,0,0,8-9,53.87,53.87,0,0,0,6.18-14.43,95.79,95.79,0,0,0,3.1-21.1v-23a34.8,34.8,0,0,1-3.26,7.6,32.11,32.11,0,0,1-6.36,7.91,33.33,33.33,0,0,1-10.09,6.21A38,38,0,0,1,1637.54,678.05Zm15.37-140.26a12.31,12.31,0,0,0-11.23,6.52,45,45,0,0,0-5.38,14.58,123,123,0,0,0-2.17,20.79v48.41a86.19,86.19,0,0,0,2.17,17.38,32.4,32.4,0,0,0,5.38,11.79q3.84,5.28,11.23,5.28a11.29,11.29,0,0,0,8.46-3.73,30.37,30.37,0,0,0,5.69-8.53,49.37,49.37,0,0,0,3.23-9.78q1.08-4.95,1.39-7.44V556.72a39.34,39.34,0,0,0-1.24-5.74,21.27,21.27,0,0,0-2.92-6.2,16.26,16.26,0,0,0-5.54-5A18.18,18.18,0,0,0,1652.91,537.79Z" transform="translate(-200.23 -427.39)"/><image width="438" height="570" transform="scale(0.51)" xlink:href="../Downloads/noun_vending_machine_51068-removebg-preview.png"/></svg>