<svg xmlns="http://www.w3.org/2000/svg" viewBox="0 0 160 40"><g fill="none" fill-rule="evenodd"><path fill="#F85A3E" d="M3.746 35.641H0V0h8.974l16.154 3.077V35.64h-13.99L5.64 40l-1.895-4.359zM21.795 4.615v5.641h2.051V4.872l-2.051-.257zM11.538 27.95h7.95V4.359l-10-1.538v27.948l2.05-2.82z"/><path fill="#25272A" fill-rule="nonzero" d="M50.835 9.867l5.514 15.421 5.457-15.421h4.164l-7.955 20.39h-3.331L46.67 9.866h4.164zM71.82 30.544c-1.206 0-2.297-.206-3.273-.618a7.507 7.507 0 01-2.499-1.68 7.457 7.457 0 01-1.594-2.47 7.926 7.926 0 01-.56-2.958 8.38 8.38 0 01.546-3.03c.364-.947.89-1.78 1.58-2.498.689-.718 1.526-1.287 2.512-1.708.986-.422 2.092-.632 3.317-.632 1.226 0 2.322.21 3.288.632.967.42 1.79.986 2.47 1.694a7.2 7.2 0 011.55 2.47c.355.938.532 1.914.532 2.929 0 .249-.005.488-.014.718a2.92 2.92 0 01-.072.574h-11.63c.057.594.2 1.12.43 1.58a3.877 3.877 0 002.125 1.924c.46.172.938.258 1.436.258.766 0 1.489-.186 2.168-.56.68-.373 1.144-.866 1.393-1.479l3.303.92c-.556 1.148-1.441 2.09-2.657 2.828-1.215.737-2.666 1.106-4.35 1.106zm3.906-9.075c-.096-1.13-.512-2.034-1.25-2.714-.736-.68-1.631-1.02-2.684-1.02-.517 0-1 .091-1.45.273-.45.182-.848.436-1.192.761a3.944 3.944 0 00-.847 1.178c-.22.46-.35.967-.388 1.522h7.811zm19.204 8.787h-3.85v-8.443c0-1.206-.211-2.087-.632-2.642-.421-.555-1.005-.833-1.752-.833-.383 0-.775.077-1.178.23-.402.153-.78.369-1.134.646a5.257 5.257 0 00-.962.991 3.917 3.917 0 00-.632 1.264v8.787h-3.848V15.208h3.475v2.786c.555-.957 1.36-1.704 2.412-2.24 1.053-.536 2.24-.804 3.561-.804.938 0 1.704.172 2.298.517a3.733 3.733 0 011.378 1.35c.326.555.55 1.186.675 1.895.124.708.187 1.426.187 2.154v9.39zm8.492.288a6.832 6.832 0 01-2.872-.603 6.772 6.772 0 01-2.269-1.666 7.784 7.784 0 01-1.479-2.484 8.666 8.666 0 01-.531-3.059c0-1.091.167-2.106.502-3.044a7.99 7.99 0 011.393-2.47 6.42 6.42 0 012.125-1.665 6.068 6.068 0 012.7-.603c1.11 0 2.11.268 3 .804a5.825 5.825 0 012.083 2.096V9.292h3.848v16.542c0 .402.067.69.201.861.134.173.364.268.69.288v3.273c-.67.134-1.216.201-1.638.201-.689 0-1.254-.172-1.694-.516a1.897 1.897 0 01-.747-1.35l-.086-.948c-.555.957-1.306 1.68-2.254 2.168a6.407 6.407 0 01-2.972.733zm1.005-3.274c.363 0 .737-.062 1.12-.187a3.947 3.947 0 001.062-.531 4.64 4.64 0 00.876-.804c.259-.307.455-.642.589-1.005v-3.59a4.202 4.202 0 00-.646-1.163 4.783 4.783 0 00-.948-.92 4.945 4.945 0 00-1.12-.617 3.183 3.183 0 00-1.163-.23c-.574 0-1.106.125-1.594.374a3.784 3.784 0 00-1.25 1.02c-.344.43-.612.923-.803 1.478a5.249 5.249 0 00-.287 1.723c0 .632.105 1.216.315 1.752a4.56 4.56 0 00.862 1.407 3.935 3.935 0 002.987 1.293zm10.186 2.986V15.208h3.848v15.048h-3.848zm0-17.144v-3.82h3.848v3.82h-3.848zm20.754 14.847c-1.627 1.627-3.523 2.441-5.686 2.441a9.006 9.006 0 01-3.776-.804 9.55 9.55 0 01-3.073-2.211c-.871-.939-1.56-2.044-2.068-3.317-.507-1.273-.76-2.647-.76-4.121 0-1.398.253-2.714.76-3.95a10.289 10.289 0 012.096-3.244 10.045 10.045 0 013.145-2.211c1.206-.546 2.518-.819 3.934-.819 1.915 0 3.557.402 4.926 1.206 1.368.804 2.398 1.886 3.087 3.245l-2.958 2.183c-.517-1.015-1.24-1.79-2.168-2.326a5.955 5.955 0 00-3.03-.804 5.18 5.18 0 00-2.37.545 5.549 5.549 0 00-1.837 1.494 7.034 7.034 0 00-1.178 2.182 8.124 8.124 0 00-.416 2.614c0 .957.153 1.852.46 2.685a6.84 6.84 0 001.263 2.168 5.916 5.916 0 001.91 1.45 5.464 5.464 0 002.398.531c1.972 0 3.752-.928 5.341-2.785v-1.436h-4.107v-2.9h7.381v10.481h-3.274V27.96zM149.63 30.4c-1.493 0-2.848-.292-4.063-.876a9.98 9.98 0 01-3.13-2.326 10.584 10.584 0 01-2.025-3.317 10.557 10.557 0 01-.718-3.82c0-1.359.254-2.66.76-3.905a10.778 10.778 0 012.097-3.303 10.002 10.002 0 013.174-2.283c1.225-.565 2.556-.847 3.991-.847 1.475 0 2.82.302 4.035.905a10.079 10.079 0 013.116 2.369 10.908 10.908 0 012.01 3.331 10.455 10.455 0 01-.028 7.682 10.564 10.564 0 01-2.068 3.274 9.942 9.942 0 01-3.159 2.269c-1.225.565-2.556.847-3.992.847zm-5.916-10.338c0 .88.134 1.732.402 2.555a6.825 6.825 0 001.163 2.183 5.783 5.783 0 001.867 1.522c.737.383 1.575.574 2.513.574.957 0 1.804-.196 2.542-.588a5.787 5.787 0 001.866-1.565 6.984 6.984 0 001.149-2.197 8.159 8.159 0 00.388-2.484 7.96 7.96 0 00-.417-2.556 7.047 7.047 0 00-1.177-2.183 5.62 5.62 0 00-1.867-1.508c-.737-.373-1.565-.56-2.484-.56-.957 0-1.81.197-2.556.59a5.666 5.666 0 00-1.867 1.55 6.965 6.965 0 00-1.134 2.182 8.159 8.159 0 00-.388 2.485z"/></g></svg>