<svg xmlns="http://www.w3.org/2000/svg" viewBox="0 0 64 64"><path d="M11.004 60.979a.998.998 0 00.289.728l2 2a.997.997 0 001.414 0L16 62.414l1.293 1.293a.997.997 0 001.414 0L20 62.414l1.293 1.293a.997.997 0 001.414 0L24 62.414l1.293 1.293a.997.997 0 001.414 0L28 62.414l1.293 1.293a.997.997 0 001.414 0L32 62.414l1.293 1.293a.997.997 0 001.414 0L36 62.414l1.293 1.293a.997.997 0 001.414 0L40 62.414l1.293 1.293a.997.997 0 001.414 0L44 62.414l1.293 1.293a.997.997 0 001.414 0L48 62.414l1.293 1.293a.997.997 0 001.414 0l2-2c.2-.2.294-.465.289-.728V3.02a.996.996 0 00-.289-.727l-2-2a.999.999 0 00-1.414 0L48 1.586 46.707.293a.999.999 0 00-1.414 0L44 1.586 42.707.293a.999.999 0 00-1.414 0L40 1.586 38.707.293a.999.999 0 00-1.414 0L36 1.586 34.707.293a.999.999 0 00-1.414 0L32 1.586 30.707.293a.999.999 0 00-1.414 0L28 1.586 26.707.293a.999.999 0 00-1.414 0L24 1.586 22.707.293a.999.999 0 00-1.414 0L20 1.586 18.707.293a.999.999 0 00-1.414 0L16 1.586 14.707.293a.999.999 0 00-1.414 0l-2 2a.996.996 0 00-.289.727zM14 2.414l1.293 1.293a.997.997 0 001.414 0L18 2.414l1.293 1.293a.997.997 0 001.414 0L22 2.414l1.293 1.293a.997.997 0 001.414 0L26 2.414l1.293 1.293a.997.997 0 001.414 0L30 2.414l1.293 1.293a.997.997 0 001.414 0L34 2.414l1.293 1.293a.997.997 0 001.414 0L38 2.414l1.293 1.293a.997.997 0 001.414 0L42 2.414l1.293 1.293a.997.997 0 001.414 0L46 2.414l1.293 1.293a.997.997 0 001.414 0L50 2.414l.996.996V4H13.004v-.59zm36 59.172l-1.293-1.293a.995.995 0 00-.702-.292h2.991v.589zm-4 0l-1.293-1.293a.995.995 0 00-.702-.292h3.99a.995.995 0 00-.702.292zm-4 0l-1.293-1.293a.995.995 0 00-.702-.292h3.99a.995.995 0 00-.702.292zm-4 0l-1.293-1.293a.995.995 0 00-.702-.292h3.99a.995.995 0 00-.702.292zm-4 0l-1.293-1.293a.995.995 0 00-.702-.292h3.99a.995.995 0 00-.702.292zm-4 0l-1.293-1.293a.995.995 0 00-.702-.292h3.99a.995.995 0 00-.702.292zm-4 0l-1.293-1.293a.995.995 0 00-.702-.292h3.99a.995.995 0 00-.702.292zm-4 0l-1.293-1.293a.995.995 0 00-.702-.292h3.99a.995.995 0 00-.702.292zm-4 0l-1.293-1.293a.995.995 0 00-.702-.292h3.99a.995.995 0 00-.702.292zm-4 0l-.996-.996v-.589h2.991a.995.995 0 00-.702.292zm-.996-3.585V6h37.992v52.001z"/><path d="M24.199 30.993h15.602c3.418 0 6.199-2.69 6.199-5.998s-2.781-6-6.199-6c-2.03 0-3.509.521-4.813.98-1.048.369-1.952.687-2.988.687s-1.94-.318-2.988-.687c-1.304-.459-2.782-.98-4.813-.98-3.418 0-6.199 2.691-6.199 6 0 3.308 2.781 5.998 6.199 5.998zM44 24.996c0 2.204-1.884 3.998-4.199 3.998H28.847c1.938-1.37 3.566-2.992 3.865-3.295 1.794-1.818 5.304-4.702 7.089-4.702C42.116 20.996 44 22.79 44 24.996zm-19.801-4c1.688 0 2.938.44 4.148.866 1.118.394 2.274.801 3.652.801.406 0 .789-.042 1.162-.103a31.861 31.861 0 00-1.874 1.733c-1.794 1.817-5.304 4.7-7.089 4.7-2.314 0-4.198-1.793-4.198-3.997 0-2.206 1.884-4 4.199-4zM45 34.999H19a1 1 0 100 2h26a1 1 0 100-2zm0 3H19a1 1 0 100 2h26a1 1 0 100-2zm-6 3H25a1 1 0 100 2h14a1 1 0 100-2zM27.031 51h-.011c-.552 0-.994.447-.994 1s.452 1 1.005 1a1 1 0 100-2zm4.999 0h-.01c-.552 0-.994.447-.994 1s.452 1 1.005 1a1 1 0 10-.001-2zm4.999 0h-.011c-.552 0-.994.447-.994 1s.452 1 1.005 1a1 1 0 100-2z"/></svg>