<svg xmlns="http://www.w3.org/2000/svg" viewBox="0 0 64 64"><path d="M12 60.998h2.002V63a1 1 0 001 1h10a1 1 0 001-1v-2.002h11.994V63a1 1 0 001 1h10a1 1 0 001-1v-2.002H52a1 1 0 001-1V5c0-.13-.026-.26-.077-.382a.99.99 0 00-.217-.326L48.708.294a.99.99 0 00-.326-.217A.991.991 0 0048 0H16c-.13 0-.26.026-.382.077a.99.99 0 00-.326.217l-3.998 3.998a.99.99 0 00-.217.326A.991.991 0 0011 5v54.998a1 1 0 001 1zM16.414 2h31.172l2 2H14.414zm7.588 60h-8v-1.002h8zm23.994 0h-8v-1.002h8zM51 58.998H13V6h38z"/><path d="M15 58h34a1 1 0 001-1v-7a1 1 0 00-1-1H15a1 1 0 00-1 1v7a1 1 0 001 1zm1-7h32v5H16zm-1-3h34a1 1 0 001-1V8a1 1 0 00-1-1H15a1 1 0 00-1 1v39a1 1 0 001 1zm4.998-29.999c0-1.102.895-1.997 1.995-2l.007.001.007-.001a2.001 2.001 0 11-2.009 2zM48 22.002V33h-4.109A6.98 6.98 0 0046 28.002v-4.001a1 1 0 10-2 0v.142c-1.72.447-2.999 2-3 3.857v.001c0 1.103-.897 2-2 2h-1c-.058 0-.106.023-.161.032-.052.009-.104.002-.155.02-.013.004-.021.014-.032.019-.07.026-.129.068-.19.109-.048.031-.1.056-.141.095-.049.045-.081.102-.12.155-.036.051-.076.097-.103.152-.025.055-.033.115-.049.175-.018.068-.038.133-.041.204 0 .014-.008.025-.008.039 0 .058.023.107.033.162.008.052.002.104.019.154l.56 1.683H33.89A6.976 6.976 0 0036 28.002v-4.001a1 1 0 10-2 0v.142c-1.72.447-2.999 2-3 3.857v.001c0 1.103-.897 2-2 2h-1c-.058 0-.106.023-.161.032-.053.009-.104.002-.155.02-.013.004-.021.014-.032.019-.07.026-.129.068-.19.109-.048.031-.1.056-.141.095-.049.045-.081.102-.12.155-.036.051-.076.097-.103.152-.025.055-.033.115-.049.175-.018.068-.038.133-.041.204 0 .014-.008.025-.008.039 0 .058.023.107.033.162.008.052.002.104.019.154l.56 1.683H23.89A6.976 6.976 0 0026 28.002v-4.001a1 1 0 10-2 0v.142c-1.72.447-2.999 2-3 3.857v.001c0 1.103-.897 2-2 2h-1c-.058 0-.107.023-.162.032-.052.009-.103.002-.154.02-.013.004-.021.014-.032.019-.07.026-.129.068-.19.109-.048.031-.1.056-.141.095-.049.045-.081.102-.12.155-.036.051-.076.097-.103.152-.025.055-.033.115-.049.175-.018.068-.038.133-.041.204 0 .014-.008.025-.008.039 0 .058.023.107.033.162.008.052.002.104.019.154l.56 1.683H16V22.002zm-18.002-4.001c0-1.102.895-1.997 1.995-2l.007.001.007-.001a2.001 2.001 0 11-2.009 2zm10 0c0-1.102.895-1.997 1.995-2l.007.001.007-.001a2.001 2.001 0 11-2.009 2zM43 28.003c0-.738.405-1.376 1-1.724v1.722c0 2.519-1.878 4.587-4.303 4.93l-.323-.968c2.028-.192 3.625-1.883 3.626-3.96zm-10 0c0-.738.405-1.376 1-1.724v1.722c0 2.519-1.878 4.587-4.303 4.93l-.323-.968c2.028-.192 3.625-1.883 3.626-3.96zm-10 0c0-.738.405-1.376 1-1.724v1.722c0 2.519-1.878 4.587-4.303 4.93l-.323-.968c2.028-.192 3.625-1.883 3.626-3.96zM20 44c0-1.695 1.246-3.057 1.998-3.724C22.75 40.946 24 42.314 24 44c0 1.103-.897 2-2 2s-2-.897-2-2zm9.998 0c0-1.695 1.246-3.057 1.998-3.724.752.67 2.002 2.038 2.002 3.724 0 1.103-.897 2-2 2s-2-.897-2-2zm10 0c0-1.695 1.246-3.057 1.998-3.724.752.67 2.002 2.038 2.002 3.724 0 1.103-.897 2-2 2s-2-.897-2-2zm5.443 2a3.953 3.953 0 00.557-2c0-2.768-2.067-4.746-3-5.499V38a1 1 0 10-2 0v.501c-.933.753-3 2.731-3 5.499 0 .731.212 1.409.557 2h-3.113a3.953 3.953 0 00.557-2c0-2.768-2.067-4.746-3-5.499V38a1 1 0 10-2 0v.501c-.933.753-3 2.731-3 5.499 0 .731.212 1.409.557 2h-3.111A3.97 3.97 0 0026 44c0-2.768-2.067-4.746-3-5.499V38a1 1 0 10-2 0v.501c-.933.753-3 2.731-3 5.499 0 .731.212 1.409.557 2H16V35h2.994l.006.001.02-.001h9.975l.006.001.02-.001h9.975l.006.001.02-.001H48v11zM48 9v11.002h-2.557A3.953 3.953 0 0046 18.001c0-1.858-1.279-3.411-3-3.859v-.139a1 1 0 10-2 0v.139c-1.722.447-3.002 2.001-3.002 3.859 0 .732.212 1.41.557 2.001h-3.111A3.963 3.963 0 0036 18.001c0-1.858-1.279-3.411-3-3.859v-.139a1 1 0 10-2 0v.139c-1.722.447-3.002 2.001-3.002 3.859 0 .732.212 1.41.557 2.001h-3.111A3.963 3.963 0 0026 18.001c0-1.858-1.279-3.411-3-3.859v-.139a1 1 0 10-2 0v.139c-1.722.447-3.002 2.001-3.002 3.859 0 .732.212 1.41.557 2.001H16V9z"/></svg>