<svg xmlns="http://www.w3.org/2000/svg" viewBox="0 0 64 64"><path d="M50.997 63v-2.002h2.004a1 1 0 001-1V5c0-.13-.026-.26-.077-.382a.99.99 0 00-.217-.326L49.709.294a.99.99 0 00-.326-.217.991.991 0 00-.382-.077H14.999c-.13 0-.26.026-.382.077a.99.99 0 00-.326.217l-3.998 3.998a.99.99 0 00-.217.326.991.991 0 00-.077.382v54.998a1 1 0 001 1h2.002V63a1 1 0 001 1h7.998a1 1 0 001-1v-2.002h18V63a1 1 0 001 1h7.998a1 1 0 001-1zm1.004-4.002H40V6h12.001zM15.413 2h33.174l2 2H13.413zm-3.414 4H38v52.998H11.999zm9 56h-5.998v-1.002h5.998zm27.998-1.002V62h-5.998v-1.002z"/><path d="M43.001 26.006h6a1 1 0 001-1v-6a1 1 0 00-1-1h-6a1 1 0 00-1 1v6a1 1 0 001 1zm1-6h4v4h-4zm-.974 8.009h-.011c-.552 0-.994.447-.994 1s.452 1 1.005 1a1 1 0 100-2zm3 0h-.011c-.552 0-.994.447-.994 1s.452 1 1.005 1a1 1 0 100-2zm3 0h-.011c-.552 0-.994.447-.994 1s.452 1 1.005 1a1 1 0 100-2zm-6 3h-.011c-.552 0-.994.447-.994 1s.452 1 1.005 1a1 1 0 100-2zm3 0h-.011c-.552 0-.994.447-.994 1s.452 1 1.005 1a1 1 0 100-2zm3 0h-.011c-.552 0-.994.447-.994 1s.452 1 1.005 1a1 1 0 100-2zm-6 3h-.011c-.552 0-.994.447-.994 1s.452 1 1.005 1a1 1 0 100-2zm3 0h-.011c-.552 0-.994.447-.994 1s.452 1 1.005 1a1 1 0 100-2zm3 0h-.011c-.552 0-.994.447-.994 1s.452 1 1.005 1a1 1 0 100-2zm-6.028 7.984h.002v4c0 .011.006.02.006.03.002.066.024.131.04.197.016.064.024.131.052.189.004.01.003.021.008.03a.977.977 0 00.179.248c.015.015.033.024.049.039a1.024 1.024 0 00.323.196c.109.04.224.068.342.069h.003l.006-.001a.991.991 0 00.413-.098c.009-.005.019-.002.027-.007L46 46.115l1.555.776c.009.005.019.002.027.007a.991.991 0 00.413.098l.006.001h.003a1.037 1.037 0 00.667-.267c.016-.013.032-.022.046-.037a.963.963 0 00.18-.248c.005-.01.004-.021.008-.03.028-.06.036-.126.052-.19.016-.066.038-.13.04-.196 0-.011.006-.02.006-.03v-4a1 1 0 100-2h-6.002c-.553 0-1 .447-1 1s.445 1 .998 1zm4.002 2.383l-.555-.277c-.021-.011-.046-.009-.067-.019a1.023 1.023 0 00-.197-.053c-.062-.012-.121-.024-.183-.023-.062-.001-.121.012-.183.023a.939.939 0 00-.197.053c-.022.01-.046.008-.067.019l-.551.275v-2.381h2zM16.999 26.004h16c1.654 0 3-1.346 3-3v-8c0-1.654-1.346-3-3-3h-16c-1.654 0-3 1.346-3 3v8c0 1.654 1.346 3 3 3zm3-7a1 1 0 112 0 1 1 0 01-2 0zm4-4a1 1 0 112 0 1 1 0 01-2 0zm9-1a1 1 0 011 1v5.185a2.962 2.962 0 00-1-.185c-.476 0-.919.121-1.318.318.197-.399.318-.843.318-1.318 0-1.654-1.346-3-3-3-.476 0-.919.121-1.318.318.197-.399.318-.843.318-1.318 0-.353-.072-.686-.185-1zm-13 9a1 1 0 112 0 1 1 0 01-2 0zm9-3a1 1 0 110-2 1 1 0 010 2zm-3-1a1 1 0 11-2 0 1 1 0 012 0zm-2 4a1 1 0 112 0 1 1 0 01-2 0zm4 0a1 1 0 112 0 1 1 0 01-2 0zm-11 1a1 1 0 110-2 1 1 0 010 2zm16 0a1 1 0 110-2 1 1 0 010 2zm-16-10h5.185a2.962 2.962 0 00-.185 1c0 .476.121.919.318 1.318a2.966 2.966 0 00-1.318-.318c-1.654 0-3 1.346-3 3 0 .476.121.919.318 1.318a2.966 2.966 0 00-1.318-.318c-.353 0-.686.072-1 .185v-5.185a1 1 0 011-1zM31.001 33h-12a1 1 0 00-1 1v13.998a1 1 0 001 1h12a1 1 0 001-1V34a1 1 0 00-1-1zm-7.847 8.999h3.693l-.714 4.999h-2.266zm6.847 4.999h-1.846l.836-5.857c.004-.025-.006-.048-.004-.072.001-.024.014-.045.014-.069 0-.044-.02-.081-.025-.124a1.084 1.084 0 00-.039-.198c-.021-.061-.051-.113-.082-.168a.948.948 0 00-.106-.158.933.933 0 00-.14-.126.961.961 0 00-.157-.106.92.92 0 00-.187-.065c-.042-.013-.077-.037-.122-.044-.024-.003-.047.006-.071.004-.024-.001-.046-.014-.07-.014h-6c-.024 0-.045.012-.068.014-.025.002-.048-.008-.073-.004-.045.007-.08.031-.122.044-.065.018-.127.035-.187.065a.92.92 0 00-.157.106.984.984 0 00-.14.126.991.991 0 00-.106.158c-.031.055-.061.107-.081.168-.022.064-.031.13-.04.198-.006.043-.025.08-.025.124 0 .024.013.045.014.069.002.024-.008.047-.004.072l.837 5.857h-1.847V35h3.998v.001a1 1 0 102 0V35h4.002v11.998z"/></svg>