<svg xmlns="http://www.w3.org/2000/svg" viewBox="0 0 64 64"><path d="M32 64c6.617 0 12-5.383 12-12V4c0-2.206-1.794-4-4-4H24c-2.206 0-4 1.794-4 4v48c0 6.617 5.383 12 12 12zm0-2c-3.35 0-6.313-1.662-8.129-4.198C26.012 59.78 28.862 61 32 61s5.988-1.22 8.129-3.198C38.313 60.338 35.35 62 32 62zm0-44c-4.283 0-7.937-2.713-9.357-6.507C24.844 14.236 28.217 16 32 16s7.157-1.764 9.357-4.507C39.937 15.287 36.283 18 32 18zm9.357-2.507C39.937 19.287 36.283 22 32 22s-7.937-2.713-9.357-6.507C24.844 18.236 28.217 20 32 20s7.157-1.764 9.357-4.507zM32 24c3.138 0 5.988-1.22 8.129-3.198C38.313 23.338 35.35 25 32 25s-6.313-1.662-8.129-4.198C26.012 22.78 28.862 24 32 24zM24 2h16c1.103 0 2 .897 2 2 0 5.514-4.486 10-10 10S22 9.514 22 4c0-1.103.897-2 2-2zm8 25c4.172 0 7.849-2.142 10-5.381V49c0 5.514-4.486 10-10 10s-10-4.486-10-10V21.619C24.151 24.858 27.828 27 32 27z"/><path d="M32 42c2.757 0 5-2.243 5-5s-2.243-5-5-5-5 2.243-5 5 2.243 5 5 5zm0-8c1.654 0 3 1.346 3 3s-1.346 3-3 3-3-1.346-3-3 1.346-3 3-3zm-6 12.001h12a1 1 0 100-2H26a1 1 0 100 2zm9 1h-6a1 1 0 100 2h6a1 1 0 100-2z"/><path d="M32.023 38.016a1 1 0 100-2h-.011c-.552 0-.994.447-.994 1s.453 1 1.005 1z"/></svg>