<svg xmlns="http://www.w3.org/2000/svg" viewBox="0 0 64 64"><path d="M24.121 42.002h15.758C45.46 42.002 50 37.464 50 31.887v-3.404c0-5.228-4.262-9.48-9.5-9.48a9.444 9.444 0 00-7.37 3.512c-.36.441-.698.944-1.003 1.495l-.007.01-.12.194-.12-.194a9.453 9.453 0 00-8.38-5.018c-5.238 0-9.5 4.253-9.5 9.48v3.404c0 5.578 4.54 10.116 10.121 10.116zM16 28.482c0-4.125 3.364-7.48 7.5-7.48a7.457 7.457 0 015.821 2.777c.293.358.569.772.821 1.232h.001c.015.026.03.053.047.078l.633 1.025-1.175 1.9-1.147-1.855a.671.671 0 00-.061-.102 6.08 6.08 0 00-.671-1.019A5.475 5.475 0 0023.499 23c-3.032 0-5.5 2.459-5.5 5.48v3.404c0 3.372 2.746 6.115 6.121 6.115h15.758c3.375 0 6.121-2.743 6.121-6.115V28.48c0-3.021-2.468-5.48-5.5-5.48a5.47 5.47 0 00-4.267 2.036c-.26.317-.486.66-.635.953a.914.914 0 00-.076.131L29.412 36H27.06l6.747-10.911c.018-.025.033-.053.048-.079h.001c.252-.46.528-.874.824-1.235a7.453 7.453 0 015.818-2.774c4.136 0 7.5 3.355 7.5 7.48v3.404c0 4.475-3.644 8.115-8.121 8.115H24.121C19.643 40 16 36.359 16 31.885zm8.121 7.52A4.123 4.123 0 0120 31.887v-3.404c0-1.919 1.57-3.48 3.5-3.48 1.058 0 2.047.473 2.718 1.3.174.214.325.443.442.667.016.03.043.079.067.117.017.032.035.066.049.089l1.696 2.743-3.763 6.084h-.588zm15.758 0h-.589l-3.763-6.085 1.689-2.731c.016-.025.038-.066.058-.104.021-.033.045-.073.057-.098.126-.239.277-.469.454-.685a3.48 3.48 0 012.715-1.298c1.93 0 3.5 1.562 3.5 3.48v3.404a4.123 4.123 0 01-4.121 4.117zm-5.526-4.184l2.586 4.184h-2.352l-1.411-2.282zm-2.352 3.803l.235.381h-.471zM44 46.008H20a1 1 0 100 2h24a1 1 0 100-2zm0 2.996H20a1 1 0 100 2h24a1 1 0 100-2zm-5 2.998H25a1 1 0 100 2h14a1 1 0 100-2z"/><path d="M55.706 6.294l-5.997-6a.99.99 0 00-.326-.217.991.991 0 00-.382-.077H14.999c-.13 0-.26.026-.382.077a.99.99 0 00-.326.217l-5.997 6a.99.99 0 00-.217.326.991.991 0 00-.077.382V63a1 1 0 001 1h46a1 1 0 001-1V7.002c0-.13-.026-.26-.077-.382a.99.99 0 00-.217-.326zM15.413 2h33.174l4 4.002H11.413zM54 62H10V8.002h44z"/></svg>