<svg xmlns="http://www.w3.org/2000/svg" viewBox="0 0 64 64"><path d="M11.004 60.979a.998.998 0 00.289.728l2 2a.997.997 0 001.414 0L16 62.414l1.293 1.293a.997.997 0 001.414 0L20 62.414l1.293 1.293a.997.997 0 001.414 0L24 62.414l1.293 1.293a.997.997 0 001.414 0L28 62.414l1.293 1.293a.997.997 0 001.414 0L32 62.414l1.293 1.293a.997.997 0 001.414 0L36 62.414l1.293 1.293a.997.997 0 001.414 0L40 62.414l1.293 1.293a.997.997 0 001.414 0L44 62.414l1.293 1.293a.997.997 0 001.414 0L48 62.414l1.293 1.293a.997.997 0 001.414 0l2-2c.2-.2.294-.465.289-.728V3.021a.998.998 0 00-.289-.728l-2-2a.999.999 0 00-1.414 0L48 1.586 46.707.293a.999.999 0 00-1.414 0L44 1.586 42.707.293a.999.999 0 00-1.414 0L40 1.586 38.707.293a.999.999 0 00-1.414 0L36 1.586 34.707.293a.999.999 0 00-1.414 0L32 1.586 30.707.293a.999.999 0 00-1.414 0L28 1.586 26.707.293a.999.999 0 00-1.414 0L24 1.586 22.707.293a.999.999 0 00-1.414 0L20 1.586 18.707.293a.999.999 0 00-1.414 0L16 1.586 14.707.293a.999.999 0 00-1.414 0l-2 2c-.2.2-.294.465-.289.728zM14 2.414l1.293 1.293a.997.997 0 001.414 0L18 2.414l1.293 1.293a.997.997 0 001.414 0L22 2.414l1.293 1.293a.997.997 0 001.414 0L26 2.414l1.293 1.293a.997.997 0 001.414 0L30 2.414l1.293 1.293a.997.997 0 001.414 0L34 2.414l1.293 1.293a.997.997 0 001.414 0L38 2.414l1.293 1.293a.997.997 0 001.414 0L42 2.414l1.293 1.293a.997.997 0 001.414 0L46 2.414l1.293 1.293a.997.997 0 001.414 0L50 2.414l.996.996V4H13.004v-.59zm36 59.172l-1.293-1.293a.995.995 0 00-.702-.292h2.991v.589zm-4 0l-1.293-1.293a.995.995 0 00-.702-.292h3.99a.995.995 0 00-.702.292zm-4 0l-1.293-1.293a.995.995 0 00-.702-.292h3.99a.995.995 0 00-.702.292zm-4 0l-1.293-1.293a.995.995 0 00-.702-.292h3.99a.995.995 0 00-.702.292zm-4 0l-1.293-1.293a.995.995 0 00-.702-.292h3.99a.995.995 0 00-.702.292zm-4 0l-1.293-1.293a.995.995 0 00-.702-.292h3.99a.995.995 0 00-.702.292zm-4 0l-1.293-1.293a.995.995 0 00-.702-.292h3.99a.995.995 0 00-.702.292zm-4 0l-1.293-1.293a.995.995 0 00-.702-.292h3.99a.995.995 0 00-.702.292zm-4 0l-1.293-1.293a.995.995 0 00-.702-.292h3.99a.995.995 0 00-.702.292zm-4 0l-.996-.996v-.589h2.991a.995.995 0 00-.702.292zm-.996-3.585V6h37.992v52.001z"/><path d="M17.001 26c.005 8.267 6.731 14.989 14.999 14.989 8.265 0 14.987-6.717 14.999-14.979a1 1 0 00-.305-.738l-3.982-3.982a.999.999 0 00-1.414 0l-3.293 3.294-5.295-5.294a.999.999 0 00-1.414 0l-5.294 5.294-3.293-3.294a.999.999 0 00-1.414 0l-3.971 3.971a.987.987 0 00-.324.728v.008l.001.003zm5.001-2.589l1.586 1.586h-3.172zm10.001-2l3.586 3.586h-7.172zm10.001 2l1.586 1.586h-3.172zM32 38.989c-6.828 0-12.432-5.295-12.949-11.992h25.898C44.432 33.694 38.828 38.989 32 38.989z"/><path d="M22.079 19.379a1.003 1.003 0 00.923.618h5a1 1 0 001-1v-5a1.003 1.003 0 00-1.382-.923.99.99 0 00-.326.217l-4.998 4.998a1.001 1.001 0 00-.217 1.09zm3.337-1.382l1.586-1.586v1.586zm10.584 2h5a1.003 1.003 0 00.923-1.382.99.99 0 00-.217-.326l-4.998-4.998a.99.99 0 00-.326-.217 1.003 1.003 0 00-1.382.923v5a1 1 0 001 1zm1-3.586l1.586 1.586H37zm5 27.597H22a1 1 0 100 2h20a1 1 0 100-2zm0 3.003H22a1 1 0 100 2h20a1 1 0 100-2zm-5 3.003H27a1 1 0 100 2h10a1 1 0 100-2z"/></svg>