<svg xmlns="http://www.w3.org/2000/svg" viewBox="0 0 64 64"><path d="M63 23.002h-2.139a4 4 0 00-3.088-2.928 1.991 1.991 0 00-1.764-1.078h-2.156a4 4 0 00-3.086-2.926 1.994 1.994 0 00-1.765-1.078h-6.006a5 5 0 00-4.144 2.205 3.995 3.995 0 00-2.082-1.127 1.991 1.991 0 00-1.764-1.078H29a5 5 0 00-4.144 2.205 3.996 3.996 0 00-2.081-1.127 1.994 1.994 0 00-1.765-1.078h-6.006a5.007 5.007 0 00-4.899 4.004H8.016a5.007 5.007 0 00-4.899 4.006H1a1 1 0 00-1 1v8.004c0 9.374 7.626 17 17 17h29.99l.01.002c9.374 0 17-7.626 17-17v-8.006a1 1 0 00-1-1zm-4.274 0h-1.281a4.01 4.01 0 00.363-.832c.388.172.707.467.918.832zm-40.689-2.006c-.054.071-.12.132-.17.206-.073-.075-.157-.137-.236-.206zm-2.218 1.174c.389.172.707.467.918.832h-1.281c.152-.261.273-.539.363-.832zm6.193-1.174h5.997l.002.01a2.001 2.001 0 01-1.999 1.99c-.011 0-.019.006-.029.006h-6.788a2.994 2.994 0 012.817-2.006zm10.021 0c-.054.071-.12.132-.17.206-.073-.075-.157-.137-.236-.206zm-2.218 1.174c.389.172.707.467.918.832h-1.281c.152-.261.273-.539.363-.832zm6.193-1.174h5.997l.002.01a2.001 2.001 0 01-1.999 1.99c-.011 0-.019.006-.029.006H33.19a2.997 2.997 0 012.818-2.006zm10.021 0c-.054.071-.12.132-.17.206-.073-.075-.157-.137-.236-.206zm-2.217 1.174c.389.172.707.467.918.832h-1.281a4.01 4.01 0 00.363-.832zm6.192-1.174h5.997l.002.01a2.001 2.001 0 01-1.999 1.99c-.011 0-.019.006-.029.006h-6.788a2.995 2.995 0 012.817-2.006zm1.714-2h-1.279c.152-.26.272-.537.362-.83.387.172.706.466.917.83zm-8.721-2.004h5.997l.002.01a2.002 2.002 0 01-1.999 1.99c-.007 0-.013.004-.02.004H40.18a2.995 2.995 0 012.817-2.004zm-5.274 2.004h-1.279c.152-.26.271-.537.362-.83.387.172.706.466.917.83zm-8.721-2.004h5.997l.002.01a2.001 2.001 0 01-1.999 1.99c-.007 0-.013.004-.02.004h-6.798a2.997 2.997 0 012.818-2.004zm-5.274 2.004h-1.279c.152-.26.272-.537.362-.83.387.172.706.466.917.83zm-8.721-2.004h5.997l.002.01a2.002 2.002 0 01-1.999 1.99c-.007 0-.013.004-.02.004h-6.798a2.997 2.997 0 012.818-2.004zm-6.991 4.004h5.997l.002.01a2.001 2.001 0 01-1.999 1.99c-.011 0-.019.006-.029.006H5.198a2.996 2.996 0 012.818-2.006zm38.992 26.012L47 47.006H17c-8.271 0-15-6.729-15-15v-7.004h60v7.006c0 8.268-6.725 14.995-14.992 15z"/><path d="M59 26.998a1 1 0 00-1 1v4.008c0 6.065-4.935 11-11 11a1 1 0 100 2c7.168 0 13-5.832 13-13v-4.008a1 1 0 00-1-1z"/></svg>