<svg xmlns="http://www.w3.org/2000/svg" viewBox="0 0 64 64"><path d="M11.004 30v33a1 1 0 001 1h39.992a1 1 0 001-1V3.021a.998.998 0 00-.289-.728l-2-2a.999.999 0 00-1.414 0L48 1.586 46.707.293a.999.999 0 00-1.414 0L44 1.586 42.707.293a.999.999 0 00-1.414 0L40 1.586 38.707.293a.999.999 0 00-1.414 0L36 1.586 34.707.293a.999.999 0 00-1.414 0L32 1.586 30.707.293a.999.999 0 00-1.414 0L28 1.586 26.707.293a.999.999 0 00-1.414 0L24 1.586 22.707.293a.999.999 0 00-1.414 0L20 1.586 18.707.293a.999.999 0 00-1.414 0L16 1.586 14.707.293a.999.999 0 00-1.414 0l-2 2c-.2.2-.294.465-.289.728zM14 2.414l1.293 1.293a.997.997 0 001.414 0L18 2.414l1.293 1.293a.997.997 0 001.414 0L22 2.414l1.293 1.293a.997.997 0 001.414 0L26 2.414l1.293 1.293a.997.997 0 001.414 0L30 2.414l1.293 1.293a.997.997 0 001.414 0L34 2.414l1.293 1.293a.997.997 0 001.414 0L38 2.414l1.293 1.293a.997.997 0 001.414 0L42 2.414l1.293 1.293a.997.997 0 001.414 0L46 2.414l1.293 1.293a.997.997 0 001.414 0L50 2.414l.996.996v1.592H13.004V3.41zm36.996 35.588H15.011l-.01-.002-.01.002h-1.987V31h37.992zm-2.997 2a1 1 0 01-1 .998h-12a1 1 0 01-1-.998zm-19 0a1 1 0 01-1 .998h-2a1 1 0 01-1-.998zm-8.998 0a1 1 0 01-1 .998h-2a1 1 0 01-1-.998zm-4-11.002a1 1 0 011-.998h2a1 1 0 011 .998zm8.998 0a1 1 0 011-.998h2a1 1 0 011 .998zm9 0a1 1 0 011-1h12a1 1 0 011 1zm16 0c0-1.654-1.346-3-3-3h-12c-1.654 0-3 1.346-3 3h-1a3.004 3.004 0 00-3-2.998h-2a3.004 3.004 0 00-3 2.998h-.998a3.004 3.004 0 00-3-2.998h-2a3.004 3.004 0 00-3 2.998h-.997V7.002h37.992V29zM13.004 40.002h.997a3.004 3.004 0 003 2.998h2a3.004 3.004 0 003-2.998h.998a3.004 3.004 0 003 2.998h2a3.004 3.004 0 003-2.998h1a3.004 3.004 0 003 2.998h12a3.004 3.004 0 003-2.998h.997V62H13.004z"/><path d="M29.001 8h-12c-1.654 0-3 1.346-3 3v2c0 1.654 1.346 3 3 3h12c1.654 0 3-1.346 3-3v-2c0-1.654-1.346-3-3-3zm1 5a1 1 0 01-1 1h-12a1 1 0 01-1-1v-2a1 1 0 011-1h12a1 1 0 011 1zm-1 4h-12c-1.654 0-3 1.346-3 3v2c0 1.654 1.346 3 3 3h12c1.654 0 3-1.346 3-3v-2c0-1.654-1.346-3-3-3zm1 5a1 1 0 01-1 1h-12a1 1 0 01-1-1v-2a1 1 0 011-1h12a1 1 0 011 1zM46.999 8.002h-2c-1.654 0-3 1.346-3 3V22c0 1.654 1.346 3 3 3h2c1.654 0 3-1.346 3-3V11.002c0-1.654-1.346-3-3-3zm1 13.998a1 1 0 01-1 1h-2a1 1 0 01-1-1V11.002a1 1 0 011-1h2a1 1 0 011 1zM38.001 8.002h-2c-1.654 0-3 1.346-3 3V22c0 1.654 1.346 3 3 3h2c1.654 0 3-1.346 3-3V11.002c0-1.654-1.346-3-3-3zm1 13.998a1 1 0 01-1 1h-2a1 1 0 01-1-1V11.002a1 1 0 011-1h2a1 1 0 011 1zm-10 22.002h-12c-1.654 0-3 1.346-3 3v2c0 1.654 1.346 3 3 3h12c1.654 0 3-1.346 3-3v-2c0-1.654-1.346-3-3-3zm1 5a1 1 0 01-1 1h-12a1 1 0 01-1-1v-2a1 1 0 011-1h12a1 1 0 011 1zm-1 4h-12c-1.654 0-3 1.346-3 3v2c0 1.654 1.346 3 3 3h12c1.654 0 3-1.346 3-3v-2c0-1.654-1.346-3-3-3zm1 5a1 1 0 01-1 1h-12a1 1 0 01-1-1v-2a1 1 0 011-1h12a1 1 0 011 1zm16.998-13.998h-2c-1.654 0-3 1.346-3 3v10.998c0 1.654 1.346 3 3 3h2c1.654 0 3-1.346 3-3V47.004c0-1.654-1.346-3-3-3zm1 13.998a1 1 0 01-1 1h-2a1 1 0 01-1-1V47.004a1 1 0 011-1h2a1 1 0 011 1zm-9.998-13.998h-2c-1.654 0-3 1.346-3 3v10.998c0 1.654 1.346 3 3 3h2c1.654 0 3-1.346 3-3V47.004c0-1.654-1.346-3-3-3zm1 13.998a1 1 0 01-1 1h-2a1 1 0 01-1-1V47.004a1 1 0 011-1h2a1 1 0 011 1zM44 32H20a1 1 0 100 2h24a1 1 0 100-2zm-6 3H26a1 1 0 100 2h12a1 1 0 100-2z"/></svg>