<svg xmlns="http://www.w3.org/2000/svg" viewBox="0 0 64 64"><path d="M52.994 3c0-1.654-1.346-3-3-3h-35.99c-1.654 0-3 1.346-3 3v58c0 1.654 1.346 3 3 3h35.99c1.654 0 3-1.346 3-3V8.01l.002-.01-.002-.01zm-39.99 3h37.99v1h-37.99zm1-4h35.99a1 1 0 011 1v1h-37.99V3a1 1 0 011-1zm35.99 60h-35.99a1 1 0 01-1-1V9h37.99v52a1 1 0 01-1 1z"/><path d="M24.002 26.996h15.994c3.859 0 7-3.141 7-7s-3.141-7-7-7H24.002c-3.859 0-7 3.141-7 7s3.141 7 7 7zm0-12h1.378l-1.276 2.553a1 1 0 101.789.894l1.724-3.447h3.764l-1.276 2.553a1 1 0 101.789.894l1.724-3.447h3.764l-1.276 2.553a1 1 0 101.789.894l1.724-3.447h.38c2.757 0 5 2.243 5 5s-2.243 5-5 5H24.002c-2.757 0-5-2.243-5-5s2.243-5 5-5zm16.994 16.005a1 1 0 00-1-1H24.002a1 1 0 100 2h15.994a1 1 0 001-1zM28 33.004a1 1 0 100 2h7.998a1 1 0 100-2zm21.004 21.997V40.003a1 1 0 00-1-1H15.996a1 1 0 00-1 1v19a1 1 0 001 1h32.008a1 1 0 001-1v-3.982l.002-.01-.002-.01zm-2-.99h-2.006V44.02c0-.007.004-.013.004-.02s-.004-.013-.004-.02v-2.978h2.006zM42.998 43h-2v-1.997h2zm-4 11.011h-2V44.01L37 44l-.002-.01v-2.987h2zm-4-11.011h-2v-1.997h2zm-4 11.011h-2V44.01L29 44l-.002-.01v-2.987h2zm-4-11.011h-2v-1.997h2zm-4 11.011h-2V41.003h2zm-2 2h2v1.992h-2zm4-.981c0-.007.004-.013.004-.02s-.004-.013-.004-.02V45h2v13.003h-2zm4 .981h2v1.992h-2zm4-.971c0-.011.006-.019.006-.029s-.006-.019-.006-.029V45h2v13.003h-2zm4 .971h2v1.992h-2zm4-.971c0-.011.006-.019.006-.029s-.006-.019-.006-.029V45h2v13.003h-2zm-22-14.037V43h-2.002v-1.997zM16.996 45h2.002v13.003h-2.002zm28.002 13.003v-1.992h2.006v1.992z"/></svg>