<svg xmlns="http://www.w3.org/2000/svg" viewBox="0 0 64 64"><path d="M32 64c5.514 0 10-4.486 10-10V22a9.988 9.988 0 00-1.087-4.49A9.917 9.917 0 0042 13v-3c0-5.514-4.486-10-10-10S22 4.486 22 10v3c0 1.624.397 3.153 1.087 4.51A9.988 9.988 0 0022 22v32c0 5.514 4.486 10 10 10zm0-62c4.411 0 8 3.589 8 8s-3.589 8-8 8-8-3.589-8-8 3.589-8 8-8zm6.64 15.457C37.202 19.592 34.763 21 32 21s-5.202-1.408-6.64-3.543C27.129 19.033 29.451 20 32 20s4.871-.967 6.64-2.543zM32 23a9.97 9.97 0 007.583-3.5c.265.805.417 1.645.417 2.5 0 4.411-3.589 8-8 8s-8-3.589-8-8c0-.854.152-1.695.417-2.5A9.97 9.97 0 0032 23zm-8 4.975C25.825 30.412 28.728 32 32 32s6.175-1.588 8-4.025V54c0 4.411-3.589 8-8 8s-8-3.589-8-8z"/><path d="M32 45.001c2.206 0 4-1.794 4-4s-1.794-4-4-4-4 1.794-4 4 1.794 4 4 4zm0-6c1.103 0 2 .897 2 2s-.897 2-2 2-2-.897-2-2 .897-2 2-2zm5 10.001a1 1 0 100-2H27a1 1 0 100 2zm-2 1h-6a1 1 0 100 2h6a1 1 0 100-2zM28.032 7.001a1 1 0 000-2h-.011c-.552 0-.994.448-.994 1s.452 1 1.005 1zM32.03 11a1 1 0 000-2h-.01c-.552 0-.994.448-.994 1s.452 1 1.004 1zm3.998 3.999a1 1 0 000-2h-.011c-.552 0-.994.448-.994 1s.453 1 1.005 1zm-8.007 0a1 1 0 000-2h-.011c-.552 0-.994.448-.994 1s.452 1 1.005 1zm8.007-8.004a1 1 0 000-2h-.011c-.552 0-.994.448-.994 1s.453 1 1.005 1zm0 20.007a1 1 0 000-2h-.011c-.552 0-.994.448-.994 1s.453 1 1.005 1zm-8.007 0a1 1 0 000-2h-.011c-.552 0-.994.448-.994 1s.452 1 1.005 1z"/></svg>