<svg xmlns="http://www.w3.org/2000/svg" viewBox="0 0 64 64"><path d="M6.001 64h51.998a1 1 0 001-1V1a1 1 0 00-1-1H6.001a1 1 0 00-1 1v62a1 1 0 001 1zm1-57H13v55H7.001zm49.998 55H15V2h41.999zM13 2v3H7.001V2z"/><path d="M36 36.992c7.724 0 14.008-6.284 14.008-14.008v-2.002a1 1 0 00-1-1h-.596l-.993-.992 4.291-4.292a.999.999 0 10-1.414-1.414l-4.292 4.292-.293-.293a.999.999 0 00-1.414 0l-2.296 2.295-2.296-2.295a.999.999 0 00-1.414 0l-2.296 2.295-2.296-2.295a.999.999 0 00-1.414 0l-2.29 2.289-2.29-2.289a.999.999 0 00-1.414 0l-2.701 2.699h-.598a1 1 0 00-1 1v2.002c0 7.724 6.284 14.008 14.008 14.008zm-3.008-17.588l.579.578h-1.158zm6.006 0l.579.578h-1.158zm6.006 0l.579.578h-1.158zm-18.006 0l.579.578h-1.158zm-3.006 2.58l.008.002c.007 0 .014-.004.02-.004h5.94c.014.001.026.008.04.008s.026-.007.04-.008h5.914c.014.001.026.008.04.008s.026-.007.04-.008h5.926c.014.001.026.008.04.008s.026-.007.04-.008h5.926c.014.001.026.008.04.008h.002v.994c0 6.621-5.387 12.008-12.008 12.008s-12.008-5.387-12.008-12.008z"/><path d="M32.289 13.711l3.002 2.988a.998.998 0 001.414-.004c.004-.003.004-.008.008-.012l2.986-2.973a.996.996 0 00.292-.721.997.997 0 00-.292-.721L36.697 9.28a1 1 0 00-1.414.004c-.004.003-.004.008-.008.012l-2.986 2.973a.996.996 0 00-.292.721.996.996 0 00.292.721zm3.705-2.308l1.595 1.587-1.595 1.587-1.595-1.587zM22.992 42.002h26.016a1 1 0 100-2H22.992a1 1 0 100 2zm0 3.003h26.016a1 1 0 100-2H22.992a1 1 0 100 2zM30 48.002h12a1 1 0 100-2H30a1 1 0 100 2zM30.027 54h-.011c-.552 0-.994.447-.994 1s.452 1 1.005 1a1 1 0 100-2zm6.006 0h-.011c-.552 0-.994.447-.994 1s.452 1 1.005 1a1 1 0 100-2zm6.006 0h-.011c-.552 0-.994.447-.994 1s.452 1 1.005 1a1 1 0 100-2z"/></svg>