<svg xmlns="http://www.w3.org/2000/svg" viewBox="0 0 64 64"><path d="M20.995 64h35.999a1 1 0 001-1V1a1 1 0 00-1-1H7.006a1 1 0 00-1 1v62a1 1 0 001 1zm-9.993-2V2h8.993v60zM55.994 2v60H38.99V2h2.003zM36.99 2v60h-.996V2zm-2.996 0v60h-9.003V2h2.013zM22.991 2v60h-.996V2zM8.006 2h.996v60h-.996z"/><path d="M44.023 8.999a1 1 0 100-2h-.011c-.552 0-.994.447-.994 1s.453 1 1.005 1zm7.008 0a1 1 0 100-2h-.011c-.552 0-.994.447-.994 1s.453 1 1.005 1zm-7.008 8a1 1 0 100-2h-.011c-.552 0-.994.447-.994 1s.453 1 1.005 1zm7.008 0a1 1 0 100-2h-.011c-.552 0-.994.447-.994 1s.453 1 1.005 1zm-7.008 8a1 1 0 100-2h-.011c-.552 0-.994.447-.994 1s.453 1 1.005 1zm7.008 0a1 1 0 100-2h-.011c-.552 0-.994.447-.994 1s.453 1 1.005 1zm-7.008 8a1 1 0 100-2h-.011c-.552 0-.994.447-.994 1s.453 1 1.005 1zm7.008 0a1 1 0 100-2h-.011c-.552 0-.994.447-.994 1s.453 1 1.005 1zm-7.008 8a1 1 0 100-2h-.011c-.552 0-.994.447-.994 1s.453 1 1.005 1zm7.008 0a1 1 0 100-2h-.011c-.552 0-.994.447-.994 1s.453 1 1.005 1zm-7.008 8a1 1 0 100-2h-.011c-.552 0-.994.447-.994 1s.453 1 1.005 1zm7.008 0a1 1 0 100-2h-.011c-.552 0-.994.447-.994 1s.453 1 1.005 1zm-7.008 8a1 1 0 100-2h-.011c-.552 0-.994.447-.994 1s.453 1 1.005 1zm7.008 0a1 1 0 100-2h-.011c-.552 0-.994.447-.994 1s.453 1 1.005 1zm-20.998-48a1 1 0 100-2h-.011c-.552 0-.994.447-.994 1s.452 1 1.005 1zm0 8a1 1 0 100-2h-.011c-.552 0-.994.447-.994 1s.452 1 1.005 1zm0 8a1 1 0 100-2h-.011c-.552 0-.994.447-.994 1s.452 1 1.005 1zm0 8a1 1 0 100-2h-.011c-.552 0-.994.447-.994 1s.452 1 1.005 1zm0 8a1 1 0 100-2h-.011c-.552 0-.994.447-.994 1s.452 1 1.005 1zm0 8a1 1 0 100-2h-.011c-.552 0-.994.447-.994 1s.452 1 1.005 1zm0 8a1 1 0 100-2h-.011c-.552 0-.994.447-.994 1s.452 1 1.005 1zm-14.013-48a1 1 0 100-2h-.011c-.552 0-.994.447-.994 1s.452 1 1.005 1zm0 6h-.011c-.552 0-.994.447-.994 1s.452 1 1.005 1a1 1 0 100-2zm0 8h-.011c-.552 0-.994.447-.994 1s.452 1 1.005 1a1 1 0 100-2zm0 8h-.011c-.552 0-.994.447-.994 1s.452 1 1.005 1a1 1 0 100-2zm0 8h-.011c-.552 0-.994.447-.994 1s.452 1 1.005 1a1 1 0 100-2zm0 8h-.011c-.552 0-.994.447-.994 1s.452 1 1.005 1a1 1 0 100-2zm0 8h-.011c-.552 0-.994.447-.994 1s.452 1 1.005 1a1 1 0 100-2z"/></svg>