<svg xmlns="http://www.w3.org/2000/svg" viewBox="0 0 64 64"><path d="M31.999 9.001c-6.617 0-12 5.383-12 12V24c0 4.92 2.979 9.153 7.226 11.004-4.247 1.85-7.226 6.083-7.226 11.003v2.999c0 6.617 5.383 12 12 12s12-5.383 12-12v-2.999c0-4.92-2.979-9.153-7.226-11.003C41.02 33.153 43.999 28.92 43.999 24v-2.999c0-6.617-5.383-12-12-12zm0 50.005c-3.349 0-6.311-1.66-8.127-4.195 2.141 1.978 4.99 3.196 8.127 3.196s5.986-1.219 8.127-3.196c-1.816 2.535-4.778 4.195-8.127 4.195zm10-12.999c0 5.514-4.486 10-10 10s-10-4.486-10-10 4.486-10 10-10 10 4.486 10 10zM31.999 34c-3.349 0-6.311-1.66-8.127-4.195 2.141 1.978 4.99 3.196 8.127 3.196s5.986-1.219 8.127-3.196C38.31 32.34 35.348 34 31.999 34zm0-2.999c-5.514 0-10-4.486-10-10s4.486-10 10-10 10 4.486 10 10-4.486 10-10 10z"/><path d="M31.999 16.001c-2.757 0-5 2.243-5 5 0 .857.237 1.653.619 2.359.037.096.08.188.146.269.884 1.418 2.445 2.372 4.235 2.372 1.789 0 3.349-.952 4.233-2.368a.988.988 0 00.156-.289 4.93 4.93 0 00.61-2.343 5.004 5.004 0 00-4.999-5zm0 2c1.654 0 3 1.346 3 3l-.001.011a5 5 0 00-2.999-1.007A5.006 5.006 0 0029 21.011l-.001-.01c0-1.654 1.346-3 3-3zm0 6c-.88 0-1.665-.388-2.214-.993a2.991 2.991 0 012.214-1.003c.854 0 1.65.381 2.214 1.003a2.983 2.983 0 01-2.214.993z"/><path d="M38.099 14.589a1 1 0 00-.851-.714l-1.071-.118-.64-.869a1.008 1.008 0 00-1.044-.38l-1.05.258-.893-.597a.999.999 0 00-1.111.001l-.896.599-1.049-.256a.988.988 0 00-1.042.38l-.638.867-1.072.119a1.002 1.002 0 00-.85.714l-.302 1.032-.967.479c-.362.18-.581.559-.555.962l.07 1.073-.746.781a1.002 1.002 0 00-.191 1.094l.434.984-.435.99a.999.999 0 00.194 1.093l.743.776-.069 1.078c-.025.403.193.783.556.962l.966.476.303 1.035a1 1 0 00.851.713l1.07.117.64.87c.239.325.652.473 1.044.379l1.04-.255.901.601a.998.998 0 001.11 0l.897-.599 1.047.256a1 1 0 001.043-.38l.639-.868 1.072-.118c.401-.044.737-.326.851-.714l.303-1.036.967-.476c.362-.18.582-.559.556-.962l-.07-1.077.745-.778a.999.999 0 00.193-1.094L40.358 21l.434-.988a.999.999 0 00-.193-1.094l-.745-.778.07-1.077a1 1 0 00-.557-.962l-.966-.476zm.252 6.813l.342.778-.587.613a1 1 0 00-.276.757l.056.849-.763.375a1.007 1.007 0 00-.518.617l-.238.817-.846.093a1 1 0 00-.696.402l-.504.685-.825-.202a1.015 1.015 0 00-.792.14l-.708.473-.713-.475a1.005 1.005 0 00-.793-.14l-.818.201-.505-.687a.997.997 0 00-.696-.401l-.843-.092-.239-.817a1.002 1.002 0 00-.518-.616l-.761-.374.055-.851a1 1 0 00-.276-.756l-.586-.612.343-.781a1.002 1.002 0 00-.001-.805l-.342-.775.589-.616c.193-.202.292-.477.274-.756l-.056-.846.763-.377c.251-.124.438-.348.517-.616l.238-.814.846-.094a1 1 0 00.695-.402l.502-.683.828.201a1 1 0 00.792-.141l.705-.471.703.47c.233.155.519.205.794.14l.829-.204.504.686a.996.996 0 00.696.402l.845.093.239.818a1 1 0 00.519.617l.761.374-.056.85a1 1 0 00.276.756l.587.613-.342.779a.99.99 0 000 .805zM26.999 46.007c0 .857.237 1.653.619 2.359.037.096.08.188.146.269.884 1.418 2.445 2.372 4.235 2.372 1.789 0 3.349-.952 4.233-2.368a.988.988 0 00.156-.289 4.93 4.93 0 00.61-2.343c0-2.757-2.243-5-5-5s-4.999 2.243-4.999 5zm5 3c-.88 0-1.665-.388-2.214-.993a2.991 2.991 0 012.214-1.003c.854 0 1.65.381 2.214 1.003a2.983 2.983 0 01-2.214.993zm0-6c1.654 0 3 1.346 3 3l-.001.011a5 5 0 00-2.999-1.007A5.006 5.006 0 0029 46.017l-.001-.01c0-1.654 1.346-3 3-3z"/><path d="M31.439 37.176l-.896.599-1.049-.256a.988.988 0 00-1.042.38l-.638.867-1.072.119a1.002 1.002 0 00-.85.714l-.302 1.032-.967.479c-.362.18-.581.559-.555.962l.07 1.073-.746.781a1.002 1.002 0 00-.191 1.094l.434.984-.435.99a.999.999 0 00.194 1.093l.743.776-.069 1.078c-.025.403.193.783.556.962l.966.476.303 1.035a1 1 0 00.851.713l1.07.117.64.87c.239.325.652.471 1.044.379l1.04-.255.901.601a.998.998 0 001.11 0l.897-.599 1.047.256a1 1 0 001.043-.38l.639-.868 1.072-.118c.401-.044.737-.326.851-.714l.303-1.036.967-.476c.362-.18.582-.559.556-.962l-.07-1.077.745-.778a.999.999 0 00.193-1.094l-.434-.987.434-.988a.999.999 0 00-.193-1.094l-.745-.778.07-1.077a1 1 0 00-.557-.962l-.966-.476-.303-1.036a1 1 0 00-.851-.714l-1.071-.118-.64-.869a1.008 1.008 0 00-1.044-.38l-1.05.258-.893-.597a.997.997 0 00-1.11.001zm1.259 2.504c.233.155.519.205.794.14l.829-.204.504.686a.996.996 0 00.696.402l.845.093.239.818a1 1 0 00.519.617l.761.374-.056.85a1 1 0 00.276.756l.587.613-.342.779a.998.998 0 000 .805l.342.778-.587.613a1 1 0 00-.276.757l.056.849-.763.375a1.007 1.007 0 00-.518.617l-.238.817-.846.093a1 1 0 00-.696.402l-.504.685-.825-.202a1.011 1.011 0 00-.792.14l-.708.473-.713-.475a1.005 1.005 0 00-.793-.14l-.818.201-.505-.687a.997.997 0 00-.696-.401l-.843-.092-.239-.817a1.002 1.002 0 00-.518-.616l-.761-.374.055-.851a1 1 0 00-.276-.756l-.586-.612.343-.781a1.002 1.002 0 00-.001-.805l-.342-.775.589-.616c.193-.202.292-.477.274-.756l-.056-.846.763-.377c.251-.124.438-.348.517-.616l.238-.814.846-.094a1 1 0 00.695-.402l.502-.683.828.201a1 1 0 00.792-.141l.705-.471z"/><path d="M45.999 64a1 1 0 001-1V1a1 1 0 00-1-1H18.001a1 1 0 00-1 1v62a1 1 0 001 1zm-26.998-2V8h25.998v54zM44.999 2v4H19.001V2z"/><path d="M35 5h7a1 1 0 100-2h-7a1 1 0 100 2zM21.997 5h7a1 1 0 100-2h-7a1 1 0 100 2zm10.027 0a1 1 0 100-2h-.011c-.552 0-.994.447-.994 1s.453 1 1.005 1z"/></svg>