<svg xmlns="http://www.w3.org/2000/svg" viewBox="0 0 64 64"><path d="M59 17.997H36.99c-.222 0-.434.037-.647.065a.974.974 0 00-.324-.065H5c-2.757 0-5 2.243-5 5v18.006c0 2.757 2.243 5 5 5h31.019a.969.969 0 00.324-.065c.214.028.426.065.647.065H59c2.757 0 5-2.243 5-5V22.997c0-2.757-2.243-5-5-5zM43.025 44.003H36.99c-1.654 0-3-1.346-3-3V22.997c0-1.654 1.346-3 3-3h6.035a4.947 4.947 0 00-1.025 3v18.006c0 1.13.391 2.162 1.025 3zM2 41.003V22.997c0-1.654 1.346-3 3-3h28.016a4.947 4.947 0 00-1.025 3v18.006c0 1.13.391 2.162 1.025 3H5c-1.654 0-3-1.346-3-3zm60 0c0 1.654-1.346 3-3 3H47c-1.654 0-3-1.346-3-3V22.997c0-1.654 1.346-3 3-3h12c1.654 0 3 1.346 3 3z"/><path d="M49.032 23.997h-.011c-.552 0-.994.448-.994 1s.452 1 1.005 1a1 1 0 000-2zm3.998 7h-.01c-.552 0-.994.448-.994 1s.452 1 1.005 1a1 1 0 10-.001-2zm3.998 7.002h-.011c-.552 0-.994.447-.994 1s.452 1 1.005 1a1 1 0 100-2zm-8.007 0h-.011c-.552 0-.994.447-.994 1s.452 1 1.005 1a1 1 0 100-2zm8.007-14.008h-.011c-.552 0-.994.448-.994 1s.452 1 1.005 1a1 1 0 000-2zm-17.996.006h-.011c-.552 0-.994.448-.994 1s.452 1 1.005 1a1 1 0 000-2zm-.011 14.002h-.011c-.552 0-.994.447-.994 1s.452 1 1.005 1a1 1 0 100-2zm-28.02-6.001h13a1 1 0 001-1v-4a1 1 0 00-1-1h-13a1 1 0 00-1 1v4a1 1 0 001 1zm1-3.999h11v2h-11zm14.998 6h-19a1 1 0 100 2h19a1 1 0 100-2zm-5 3h-9a1 1 0 100 2h9a1 1 0 100-2z"/></svg>