<svg xmlns="http://www.w3.org/2000/svg" viewBox="0 0 64 64"><path d="M20.051 62.685c-.018.054-.012.107-.02.161-.009.052-.031.099-.031.154 0 .014.007.024.008.038.003.073.023.14.042.209.015.058.022.117.048.17.026.058.067.104.104.154.038.054.071.109.119.154.042.04.095.065.144.097.061.04.117.081.187.107.013.005.021.016.034.02.103.034.21.051.314.051h22c.104 0 .211-.017.315-.051.013-.004.021-.015.034-.02.069-.026.126-.067.187-.107.049-.031.102-.058.144-.097.049-.045.081-.101.119-.154.036-.051.077-.097.104-.153.025-.054.033-.113.048-.171.019-.069.039-.137.042-.209 0-.014.007-.024.007-.038 0-.055-.022-.103-.031-.154-.009-.055-.002-.107-.02-.161l-.948-2.85V24.994a1 1 0 00-1-1h-.072c.032-.16.05-.325.05-.494v-3c0-.565-.195-1.081-.513-1.5.317-.419.513-.935.513-1.5s-.195-1.081-.513-1.5c.317-.419.513-.935.513-1.5s-.195-1.081-.513-1.5c.317-.419.513-.935.513-1.5v-3c0-.565-.195-1.081-.513-1.5.317-.419.513-.935.513-1.5s-.196-1.081-.513-1.5c.317-.419.513-.935.513-1.5 0-1.379-1.121-2.5-2.5-2.5h-3c-.565 0-1.081.195-1.5.513C34.559.195 34.043 0 33.478 0s-1.081.195-1.5.513a2.471 2.471 0 00-1.5-.513c-.564 0-1.08.195-1.499.512a2.48 2.48 0 00-1.5-.512h-3a2.502 2.502 0 00-2.5 2.5c0 .565.195 1.081.513 1.5-.317.419-.513.935-.513 1.5s.195 1.081.513 1.5a2.477 2.477 0 00-.513 1.5v3c0 .565.195 1.081.513 1.5-.317.419-.513.935-.513 1.5s.195 1.081.513 1.5c-.317.419-.513.935-.513 1.5s.195 1.081.513 1.5a2.477 2.477 0 00-.513 1.5v3c0 .169.018.334.05.494h-.042a1 1 0 00-1 1c0 .022.012.041.013.063v34.778zM23.979 17.5c0-.275.225-.5.5-.5h3a.5.5 0 01.499.495v.008a.5.5 0 01-.499.497h-3a.5.5 0 01-.5-.5zm0-3c0-.275.225-.5.5-.5h3a.5.5 0 01.499.497v.008a.5.5 0 01-.499.495h-3a.5.5 0 01-.5-.5zm0-9c0-.275.225-.5.5-.5h3a.5.5 0 01.499.495v.008a.5.5 0 01-.499.497h-3a.5.5 0 01-.5-.5zm0-3c0-.275.225-.5.5-.5h3a.5.5 0 01.499.497v.008a.5.5 0 01-.499.495h-3a.5.5 0 01-.5-.5zm15.5-.5c.275 0 .5.225.5.5s-.225.5-.5.5h-3c-.275 0-.5-.225-.5-.5s.225-.5.5-.5zm.5 3.5c0 .275-.225.5-.5.5h-3c-.275 0-.5-.225-.5-.5s.225-.5.5-.5h3c.275 0 .5.225.5.5zm0 9c0 .275-.225.5-.5.5h-3c-.275 0-.5-.225-.5-.5s.225-.5.5-.5h3c.275 0 .5.225.5.5zm0 3c0 .275-.225.5-.5.5h-3c-.275 0-.5-.225-.5-.5s.225-.5.5-.5h3c.275 0 .5.225.5.5zM22.721 60.998H41.28L41.613 62H22.387zm16.728-37.004a.498.498 0 01-.471-.494v-3c0-.275.225-.5.5-.5s.5.225.5.5v3c0 .266-.21.479-.471.494zm-3 0a.498.498 0 01-.471-.494v-3c0-.275.225-.5.5-.5s.5.225.5.5v3c0 .266-.21.479-.471.494zm-9 0a.498.498 0 01-.471-.494v-3c0-.275.225-.5.5-.5s.5.225.5.5v3c0 .266-.21.479-.471.494zm-3 0a.498.498 0 01-.471-.494v-3c0-.275.225-.5.5-.5s.5.225.5.5v3c0 .266-.21.479-.471.494zm-.47-12.494v-3c0-.275.225-.5.5-.5s.5.225.5.5v3c0 .275-.225.5-.5.5s-.5-.225-.5-.5zm3 0v-3c0-.275.225-.5.5-.5s.5.225.5.5v3c0 .275-.225.5-.5.5s-.5-.225-.5-.5zm13-3v3c0 .275-.225.5-.5.5s-.5-.225-.5-.5v-3c0-.275.225-.5.5-.5s.5.225.5.5zm-3 0v3c0 .275-.225.5-.5.5s-.5-.225-.5-.5v-3c0-.275.225-.5.5-.5s.5.225.5.5zm-3.471 15.494h-3.059a.498.498 0 01.029-.994h3c.275 0 .5.225.5.5a.495.495 0 01-.47.494zM33.479 11c.275 0 .5.225.5.5s-.225.5-.5.5h-3c-.275 0-.5-.225-.5-.5s.225-.5.5-.5zm0 10h-3c-.275 0-.5-.225-.5-.5s.225-.5.5-.5h3c.275 0 .5.225.5.5s-.225.5-.5.5zm-3.501-3.51v-2.98l.001-.01v-.003a.5.5 0 01.999.003v3a.5.5 0 01-.999.003V17.5l-.001-.01zm4 .01c0 .275-.225.5-.5.5s-.5-.225-.5-.5v-3c0-.275.225-.5.5-.5s.5.225.5.5zm.001-9c0 .275-.225.5-.5.5h-3c-.275 0-.5-.225-.5-.5s.225-.5.5-.5h3c.275 0 .5.225.5.5zm-9.558 17.494c.02 0 .038.006.058.006s.038-.006.058-.006h2.885c.02 0 .038.006.058.006s.038-.006.058-.006h2.885c.02 0 .038.006.058.006h3c.02 0 .038-.006.058-.006h2.885c.02 0 .038.006.058.006s.038-.006.058-.006h2.885c.02 0 .038.006.058.006s.038-.006.058-.006h1.465v33.004H22.999V25.994zM33.478 2c.275 0 .5.225.5.5v3c0 .275-.225.5-.5.5s-.5-.225-.5-.5v-3a.5.5 0 01.5-.5zm-3 0c.275 0 .5.225.5.5v3a.5.5 0 01-.999.003V5.5l-.001-.01V2.51l.001-.01v-.003A.5.5 0 0130.478 2z"/><path d="M32 42.004c2.757 0 5-2.243 5-5s-2.243-5-5-5-5 2.243-5 5 2.243 5 5 5zm0-8c1.654 0 3 1.346 3 3s-1.346 3-3 3-3-1.346-3-3 1.346-3 3-3zm-6 11.997h11.999a1 1 0 100-2H26a1 1 0 100 2zm0 3h11.999a1 1 0 100-2H26a1 1 0 100 2zm9 1h-6.001a1 1 0 100 2H35a1 1 0 100-2z"/></svg>