<svg xmlns="http://www.w3.org/2000/svg" viewBox="0 0 64 64"><path d="M20 63.998h24c2.757 0 5-2.243 5-5V25.002c0-.034-.016-.063-.02-.096a1.016 1.016 0 00-.118-.382c-.017-.029-.02-.062-.038-.089-.018-.025-.044-.038-.063-.062a1 1 0 00-.672-.355c-.03-.003-.057-.018-.088-.018h-1.034c-.35-9.826-5.816-18.905-14.469-23.867a.992.992 0 00-.994 0C22.852 5.095 17.385 14.174 17.035 24H16a1 1 0 00-1 1v33.996a5.006 5.006 0 005 5.002zm24-2H20c-1.654 0-3-1.346-3-3v-11.47l30-20.625v32.095c0 1.654-1.346 3-3 3zM32 2.162c7.744 4.665 12.624 12.918 12.967 21.84h-11.36c.462-1.559.192-3.353-.827-4.625-.814-1.017-.814-2.733 0-3.75 1.404-1.752 1.404-4.497 0-6.25a1 1 0 10-1.56 1.25c.814 1.017.814 2.733 0 3.748l-.005.009c-1.398 1.753-1.397 4.493.005 6.243.722.901.801 2.351.243 3.375h-12.43C19.376 15.08 24.256 6.827 32 2.162zm12.78 23.84L17 45.101V26.002z"/></svg>