<svg xmlns="http://www.w3.org/2000/svg" viewBox="0 0 64 64"><path d="M27 26.998l.01-.002h9.979l.01.002c4.412 0 8.001-3.589 8.001-8 0-4.412-3.589-8.002-8.001-8.002l-.01.002H27c-4.411 0-8 3.589-8 8s3.589 8 8 8zm-1-13.91v.91a1 1 0 102 0v-1h8.999l.008-.002A6.009 6.009 0 0143 18.998c0 2.967-2.168 5.432-5.001 5.91v-.912a1 1 0 10-2 0v1H27l-.008.002a6.007 6.007 0 01-5.992-6c0-2.967 2.167-5.432 5-5.91z"/><path d="M32.03 19.986a1 1 0 100-2h-.01c-.552 0-.994.447-.994 1s.452 1 1.004 1zm-5.006 4.004a1 1 0 100-2h-.011c-.552 0-.994.447-.994 1s.453 1 1.005 1zm10-7.998a1 1 0 100-2h-.011c-.552 0-.994.447-.994 1s.453 1 1.005 1z"/><path d="M51 0H13a1 1 0 00-1 1v58c0 2.757 2.243 5 5 5h30c2.757 0 5-2.243 5-5V1a1 1 0 00-1-1zM14 4.998h36v.998H14zm0-2V2h36v.998zM47 62H17c-1.654 0-3-1.346-3-3V7.996h36V59c0 1.654-1.346 3-3 3z"/><path d="M48 55.985V39a1 1 0 00-1-1H17a1 1 0 00-1 1v20a1 1 0 001 1h30a1 1 0 001-1v-2.985l.003-.015-.003-.015zM46 55h-1V40h1zm-3-14h-1v-1h1zm-3 14h-1V40h1zm-3-14h-1v-1h1zm-3 14h-1V40h1zm-3-14h-1v-1h1zm-3 14h-1V40h1zm-3-14h-1v-1h1zm-3 14h-1V40h1zm-1 2h1v1h-1zm3-.985l.003-.015-.003-.015V43h1v15h-1zM27 57h1v1h-1zm3-.985l.003-.015-.003-.015V43h1v15h-1zM33 57h1v1h-1zm3-.985l.003-.015-.003-.015V43h1v15h-1zM39 57h1v1h-1zm3-.985l.003-.015-.003-.015V43h1v15h-1zM19 40v1h-1v-1zm-1 3h1v15h-1zm27 15v-1h1v1zM19 32.01h25.999a1 1 0 100-2H19a1 1 0 100 2zm5.999.99a1 1 0 100 2H39a1 1 0 100-2z"/></svg>