<svg xmlns="http://www.w3.org/2000/svg" viewBox="0 0 64 64"><path d="M0 18c0 9.925 8.075 18 18 18 1.616 0 3.176-.234 4.666-.636.021-.006.041-.008.062-.016a18.04 18.04 0 0012.606-12.564c.004-.01.004-.021.008-.03.417-1.518.658-3.107.658-4.754 0-1.562-.221-3.069-.597-4.515-.002-.022-.012-.041-.016-.063a17.992 17.992 0 00-4.576-8.046l-.003-.004A18.01 18.01 0 0022.786.665c-.004-.002-.009-.002-.014-.003A17.94 17.94 0 0018 0c-1.563 0-3.072.221-4.52.598L13.47.6C5.735 2.616 0 9.642 0 18zM27.968 5.506l-3.831 1.027a12.866 12.866 0 00-3.922-1.334l2.491-2.491a15.982 15.982 0 015.262 2.798zm4.914 6.658l-3.855-1.033a13.012 13.012 0 00-1.831-2.322 13.004 13.004 0 00-.873-.791l3.37-.904a16.008 16.008 0 013.189 5.05zm-2.388 15.804l-1.029-3.843a12.934 12.934 0 001.333-3.919l2.495 2.495a15.98 15.98 0 01-2.799 5.267zm-3.301-.775c.28-.28.54-.574.789-.873l.903 3.372a16.009 16.009 0 01-5.051 3.19l1.031-3.854a12.984 12.984 0 002.328-1.835zm3.781-9.639a13.01 13.01 0 00-.787-4.041l3.396.909C33.847 15.574 34 16.769 34 18c0 .812-.08 1.604-.197 2.383zM17.999 7c2.939 0 5.703 1.145 7.782 3.223 4.287 4.289 4.286 11.268-.002 15.557A10.932 10.932 0 0118.001 29a10.928 10.928 0 01-7.778-3.222 10.924 10.924 0 01-3.22-7.762v-.031a10.926 10.926 0 013.22-7.764A10.93 10.93 0 0117.999 7zM8.026 30.49l3.833-1.027a12.838 12.838 0 003.927 1.337l-2.492 2.492a16.002 16.002 0 01-5.268-2.802zm-4.911-6.662L6.97 24.86a13.108 13.108 0 001.839 2.331c.277.278.569.537.867.786l-3.372.903a15.97 15.97 0 01-3.189-5.052zm1.908-5.396a12.94 12.94 0 00.783 4.047l-3.39-.909A15.917 15.917 0 012 18c0-.815.081-1.61.199-2.393zm3.786-9.625a13.08 13.08 0 00-.787.866l-.903-3.37a16.026 16.026 0 015.052-3.188l-1.032 3.854a13.014 13.014 0 00-2.33 1.838zm-2.272 3.051a12.867 12.867 0 00-1.336 3.923L2.71 13.29a15.985 15.985 0 012.801-5.265zm9.075 21.944l2.824-2.824a12.976 12.976 0 004.048-.784l-.907 3.389A15.98 15.98 0 0118 34c-.813 0-1.606-.08-2.388-.198zm4.776-31.604l-2.823 2.823c-1.4.046-2.76.313-4.044.783l.908-3.389A15.984 15.984 0 0118 2c.813 0 1.606.08 2.388.198z"/><path d="M18.024 16.99h-.011c-.552 0-.994.447-.994 1s.452 1 1.005 1a1 1 0 100-2zm4.998-2.998a1 1 0 100-2h-.011c-.552 0-.994.447-.994 1s.453 1 1.005 1zm-5.003-2.062a1 1 0 100-2h-.011c-.552 0-.994.447-.994 1s.452 1 1.005 1zm-4.997 2.08a1 1 0 100-2h-.011c-.552 0-.994.447-.994 1s.453 1 1.005 1zm-2.062 5.002a1 1 0 100-2h-.011c-.552 0-.994.447-.994 1s.452 1 1.005 1zm2.08 2.996h-.011c-.552 0-.994.447-.994 1s.452 1 1.005 1a1 1 0 100-2zm5.002 2.064h-.011c-.552 0-.994.447-.994 1s.452 1 1.005 1a1 1 0 100-2zm4.998-2.08h-.011c-.552 0-.994.447-.994 1s.452 1 1.005 1a1 1 0 100-2zm2.063-3.002a1 1 0 100-2h-.011c-.552 0-.994.447-.994 1s.452 1 1.005 1zm38.283 22.425a18.041 18.041 0 00-12.603-12.75l-.004-.001A17.917 17.917 0 0046 28c-1.563 0-3.07.221-4.517.597-.011.001-.021.006-.031.008C33.727 30.628 28 37.648 28 46c0 9.925 8.075 18 18 18 1.625 0 3.192-.236 4.691-.642l.024-.007C58.357 61.271 64 54.291 64 46c0-1.562-.221-3.069-.597-4.516-.003-.023-.012-.045-.017-.069zm-4.892 14.553l-1.03-3.842a12.946 12.946 0 001.333-3.921l2.496 2.496a15.98 15.98 0 01-2.799 5.267zm-22.47 2.52l3.835-1.027a12.85 12.85 0 003.929 1.337l-2.494 2.494a15.979 15.979 0 01-5.27-2.804zm-4.91-6.662l3.856 1.035a13.128 13.128 0 001.838 2.328c.277.277.568.537.866.786l-3.373.903a15.983 15.983 0 01-3.187-5.052zm2.396-15.799l1.026 3.831a12.85 12.85 0 00-1.335 3.925l-2.492-2.492a15.98 15.98 0 012.801-5.264zm3.299.778c-.278.278-.538.57-.787.868l-.903-3.369a16.045 16.045 0 015.05-3.188l-1.032 3.852a13.031 13.031 0 00-2.328 1.837zm-3.786 9.629c.046 1.4.313 2.761.783 4.045l-3.392-.91A16.024 16.024 0 0130 46c0-.814.081-1.609.199-2.391zm12.979 10.563a10.93 10.93 0 01-7.779-3.222 10.926 10.926 0 01-3.221-7.768v-.017a10.93 10.93 0 013.221-7.772A10.927 10.927 0 0146 35l.004-.001a10.93 10.93 0 017.775 3.222c4.288 4.289 4.288 11.269 0 15.559a10.935 10.935 0 01-7.777 3.217zm9.963-23.493l-3.83 1.027a12.843 12.843 0 00-3.92-1.333l2.489-2.49a15.981 15.981 0 015.261 2.796zm4.917 6.658l-3.857-1.033a12.967 12.967 0 00-1.831-2.322 12.989 12.989 0 00-.872-.791l3.369-.904a16.013 16.013 0 013.191 5.05zm-5.689 15.031c.28-.28.539-.574.788-.873l.904 3.372a16.014 16.014 0 01-5.054 3.191l1.032-3.854a12.968 12.968 0 002.33-1.836zm3.781-9.639a13.046 13.046 0 00-.788-4.043l3.396.909c.265 1.152.418 2.348.418 3.58 0 .812-.08 1.604-.197 2.383zM48.387 30.198l-2.821 2.822a12.998 12.998 0 00-4.047.783l.907-3.387A15.952 15.952 0 0146 30c.813 0 1.605.08 2.387.198zm-4.775 31.604l2.826-2.826a12.98 12.98 0 004.044-.783l-.908 3.391A15.952 15.952 0 0146 62c-.813 0-1.606-.08-2.388-.198z"/><path d="M46.022 46.988a1 1 0 100-2h-.011c-.552 0-.994.447-.994 1s.453 1 1.005 1zm4.999-4.998a1 1 0 100-2h-.011c-.552 0-.994.447-.994 1s.452 1 1.005 1zm-5.002-2.062a1 1 0 100-2h-.011c-.552 0-.994.447-.994 1s.452 1 1.005 1zm-4.997 2.08a1 1 0 100-2h-.011c-.552 0-.994.447-.994 1s.453 1 1.005 1zm-2.062 3.004h-.011c-.552 0-.994.447-.994 1s.452 1 1.005 1a1 1 0 100-2zm2.078 4.996h-.011c-.552 0-.994.447-.994 1s.452 1 1.005 1a1 1 0 100-2zm5.004 2.062h-.011c-.552 0-.994.447-.994 1s.452 1 1.005 1a1 1 0 100-2zm4.996-2.078h-.011c-.552 0-.994.447-.994 1s.452 1 1.005 1a1 1 0 100-2zm3.065-4.004a1 1 0 00-1-1h-.011a.995.995 0 00-.994 1 1.003 1.003 0 002.005 0z"/></svg>