<svg xmlns="http://www.w3.org/2000/svg" viewBox="0 0 64 64"><path d="M12 15.002V59c0 2.757 2.243 5 5 5h30c2.757 0 5-2.243 5-5V15.002c0-2.757-2.243-5-5-5h-8.999V9h1a1 1 0 001-1V3.002A3.006 3.006 0 0037 0l-.01.002H27a3.003 3.003 0 00-2.999 3V8a1 1 0 001 1H26v1.002h-9c-2.757 0-5 2.243-5 5zm38 0V59c0 1.654-1.346 3-3 3H17c-1.654 0-3-1.346-3-3V15.002c0-1.654 1.346-3 3-3h30c1.654 0 3 1.346 3 3zM38.001 7h-12V3.002a1 1 0 01.999-1h10l.005-.001c.55.003.996.45.996 1.001zM28 9h8.001v1.002H28z"/><path d="M32 40.004c5.514 0 10-4.486 10-10 0-5.176-3.954-9.445-9-9.949v-.059a1 1 0 10-2 0v.059c-5.046.504-9 4.773-9 9.949 0 5.514 4.486 10 10 10zm0-18c4.411 0 8 3.589 8 8s-3.589 8-8 8-8-3.589-8-8 3.589-8 8-8z"/><path d="M36.039 34.988a1 1 0 100-2h-.011c-.552 0-.994.447-.994 1s.452 1 1.005 1zM32.03 55.002h-.01c-.552 0-.994.447-.994 1s.452 1 1.005 1a1 1 0 10-.001-2zm5 0h-.01c-.552 0-.994.447-.994 1s.452 1 1.005 1a1 1 0 10-.001-2zm-10 0h-.01c-.552 0-.994.447-.994 1s.452 1 1.005 1a1 1 0 10-.001-2zm9.009-23.016a1 1 0 100-2h-.011c-.552 0-.994.447-.994 1s.452 1 1.005 1zm-3.003 3.002a1 1 0 100-2h-.011c-.552 0-.994.447-.994 1s.452 1 1.005 1zm4.962 11.026H26.002a1 1 0 100 2h11.996a1 1 0 100-2zm-17.996-1.016h23.996a1 1 0 100-2H20.002a1 1 0 100 2z"/></svg>