<svg xmlns="http://www.w3.org/2000/svg" viewBox="0 0 64 64"><path d="M6.001 44.002h19.996c2.757 0 5-2.243 5-5V5c0-2.757-2.243-5-5-5H6.001c-2.757 0-5 2.243-5 5v34.002c0 2.757 2.243 5 5 5zm19.996-2H6.001c-1.654 0-3-1.346-3-3v-.025a4.947 4.947 0 003 1.025h19.996c1.13 0 2.162-.391 3-1.025v.025c0 1.654-1.346 3-3 3zM3.001 5c0-1.654 1.346-3 3-3h19.996c1.654 0 3 1.346 3 3v30.002c0 1.654-1.346 3-3 3H6.001c-1.654 0-3-1.346-3-3v-.99z"/><path d="M6.005 35.998h19.996a1 1 0 001-1V5.002a1 1 0 00-1-1H6.005a1 1 0 00-1 1v29.996a1 1 0 001 1zm1-29.996h17.996v27.996H7.005z"/><path d="M12.033 10h-.011c-.552 0-.994.448-.994 1s.452 1 1.005 1a1 1 0 000-2zm-.006 9.001h-.011c-.552 0-.994.448-.994 1s.452 1 1.005 1a1 1 0 000-2zm8.008 0h-.011c-.552 0-.994.448-.994 1s.452 1 1.005 1a1 1 0 000-2zm-.006 9.004h-.011c-.552 0-.994.448-.994 1s.452 1 1.005 1a1 1 0 000-2zm-8.008 0h-.011c-.552 0-.994.448-.994 1s.452 1 1.005 1a1 1 0 000-2zm8.008-16.01a1 1 0 000-2h-.011c-.552 0-.994.448-.994 1s.453 1 1.005 1zM38.003 64h19.996c2.757 0 5-2.243 5-5V24.999c0-2.757-2.243-5-5-5H38.003c-2.757 0-5 2.243-5 5V59c0 2.757 2.243 5 5 5zm19.996-2H38.003c-1.654 0-3-1.346-3-3v-.025a4.947 4.947 0 003 1.025h19.996c1.13 0 2.162-.391 3-1.025V59c0 1.654-1.346 3-3 3zM35.003 24.999c0-1.654 1.346-3 3-3h19.996c1.654 0 3 1.346 3 3V55c0 1.654-1.346 3-3 3H38.003c-1.654 0-3-1.346-3-3v-.988z"/><path d="M38.007 55.998h19.996a1 1 0 001-1V25.001a1 1 0 00-1-1H38.007a1 1 0 00-1 1v29.997a1 1 0 001 1zm1-29.997h17.996v27.997H39.007z"/><path d="M44.035 30h-.011c-.552 0-.994.448-.994 1s.452 1 1.005 1a1 1 0 000-2zm-.006 9.002h-.011c-.552 0-.994.447-.994 1s.452 1 1.005 1a1 1 0 100-2zm8.008 0h-.011c-.552 0-.994.447-.994 1s.452 1 1.005 1a1 1 0 100-2zm-.006 9.002h-.011c-.552 0-.994.447-.994 1s.452 1 1.005 1a1 1 0 100-2zm-8.008 0h-.011c-.552 0-.994.447-.994 1s.452 1 1.005 1a1 1 0 100-2zm8.008-16.01a1 1 0 000-2h-.011c-.552 0-.994.448-.994 1s.453 1 1.005 1z"/></svg>