<svg xmlns="http://www.w3.org/2000/svg" viewBox="0 0 64 64"><path d="M51.467 62.837c-.008-.051-.002-.103-.019-.153l-.949-2.849V17a.999.999 0 00-.999-1V1a1 1 0 00-1-1h-6a1 1 0 00-1 1v15h-1V1a1 1 0 00-1-1h-6a1 1 0 00-1 1v15h-1V1a1 1 0 00-1-1h-6a1 1 0 00-1 1v15h-1V1a1 1 0 00-1-1h-6a1 1 0 00-1 1v15a1 1 0 00-1 1v42.833l-.949 2.852c-.018.054-.012.107-.02.161-.009.052-.031.099-.031.154 0 .014.007.024.008.038.003.073.023.14.042.209.015.058.022.117.048.17.026.058.067.104.104.154.038.054.071.109.119.154.042.04.095.065.144.097.061.04.118.081.187.107.013.005.021.016.034.02.103.034.21.051.314.051h37a1 1 0 00.316-.052c.013-.004.021-.014.032-.019.07-.026.129-.068.19-.109.048-.031.1-.056.141-.095.049-.045.081-.102.12-.155.036-.051.076-.097.103-.152.025-.055.033-.115.049-.175.018-.068.038-.133.041-.204 0-.014.008-.025.008-.039 0-.058-.023-.107-.033-.163zM24.5 18h23.999v40.996H15.5V18h6zm-9.278 42.996h33.557L49.113 62H14.887zM47.5 8a5.007 5.007 0 01-4 4.898V7.92a6.986 6.986 0 004-2.03zm-.102-6A5.01 5.01 0 0143.5 5.898V2zM43.5 14.92a6.986 6.986 0 004-2.03V16h-4zM38.5 8a5.007 5.007 0 01-4 4.898V7.92a6.986 6.986 0 004-2.03zm-.102-6A5.01 5.01 0 0134.5 5.898V2zM34.5 14.92a6.986 6.986 0 004-2.03V16h-4zM29.5 8a5.007 5.007 0 01-4 4.898V7.92a6.986 6.986 0 004-2.03zm-.102-6A5.01 5.01 0 0125.5 5.898V2zM25.5 14.92a6.986 6.986 0 004-2.03V16h-4zM20.5 8a5.007 5.007 0 01-4 4.898V7.92a6.986 6.986 0 004-2.03zm-.102-6A5.01 5.01 0 0116.5 5.898V2zM16.5 14.92a6.986 6.986 0 004-2.03V16h-4z"/><path d="M32.001 45c5.238 0 9.5-4.262 9.5-9.5s-4.262-9.5-9.5-9.5-9.5 4.262-9.5 9.5 4.262 9.5 9.5 9.5zm0-17c4.136 0 7.5 3.364 7.5 7.5s-3.364 7.5-7.5 7.5-7.5-3.364-7.5-7.5 3.364-7.5 7.5-7.5z"/><path d="M27.499 37h9.003a1 1 0 100-2h-9.003a1 1 0 100 2zm7.002 1H29.5a1 1 0 100 2h5.001a1 1 0 100-2zM21.493 49h21.015a1 1 0 100-2H21.493a1 1 0 100 2zm15.01 1h-9.005a1 1 0 100 2h9.005a1 1 0 100-2zm-4.472-16.998a1 1 0 100-2h-.011c-.552 0-.994.447-.994 1s.453 1 1.005 1z"/></svg>