<svg xmlns="http://www.w3.org/2000/svg" viewBox="0 0 64 64"><path d="M39.708 19.294a.99.99 0 00-.326-.217A.991.991 0 0039 19H25c-.13 0-.26.026-.382.077a.99.99 0 00-.326.217L12.294 31.292l-.002.002L.294 43.292a.99.99 0 00-.217.326A1.003 1.003 0 001 45h62a.999.999 0 00.707-1.707zM14.586 43H3.414l10-10h11.172zm10.828-22h2.172l-10 10h-2.172zm6.172 0l-10 10h-1.172l10-10zm-5 10h-2.172l10-10h2.172zm-9.172 12l10.292-10.292.002-.002L39 21.414 60.586 43z"/><path d="M30.5 34.999a1 1 0 001 1h15a1 1 0 100-2h-15a1 1 0 00-1 1zm12 2h-7a1 1 0 100 2h7a1 1 0 100-2zm-4.472-6.007a1.003 1.003 0 002.005 0 1 1 0 00-1-1h-.011a.995.995 0 00-.994 1z"/></svg>