<svg xmlns="http://www.w3.org/2000/svg" viewBox="0 0 64 64"><path d="M54.707 2.293l-2-2a.999.999 0 00-1.414 0L50 1.586 48.707.293a.999.999 0 00-1.414 0L46 1.586 44.707.293a.999.999 0 00-1.414 0L42 1.586 40.707.293a.999.999 0 00-1.414 0L38 1.586 36.707.293a.999.999 0 00-1.414 0L34 1.586 32.707.293a.999.999 0 00-1.414 0L30 1.586 28.707.293a.999.999 0 00-1.414 0L26 1.586 24.707.293a.999.999 0 00-1.414 0L22 1.586 20.707.293a.999.999 0 00-1.414 0L18 1.586 16.707.293a.999.999 0 00-1.414 0L14 1.586 12.707.293a.999.999 0 00-1.414 0L9.294 2.292a.99.99 0 00-.217.326A.991.991 0 009 3v60a1 1 0 001 1h43.996a1 1 0 001-1V3.021a.996.996 0 00-.289-.728zM12 2.414l1.293 1.293a.997.997 0 001.414 0L16 2.414l1.293 1.293a.997.997 0 001.414 0L20 2.414l1.293 1.293a.997.997 0 001.414 0L24 2.414l1.293 1.293a.997.997 0 001.414 0L28 2.414l1.293 1.293a.997.997 0 001.414 0L32 2.414l1.293 1.293a.997.997 0 001.414 0L36 2.414l1.293 1.293a.997.997 0 001.414 0L40 2.414l1.293 1.293a.997.997 0 001.414 0L44 2.414l1.293 1.293a.997.997 0 001.414 0L48 2.414l1.293 1.293a.997.997 0 001.414 0L52 2.414l.996.996V4H11v-.586zM11 6h41.996v56H11z"/><path d="M19.001 7a6.006 6.006 0 00-6 5.993L13 13v3l.001.007A5.997 5.997 0 0015.691 21a5.995 5.995 0 00-2.69 4.993L13 26v3l.001.007A5.997 5.997 0 0015.691 34a5.995 5.995 0 00-2.69 4.993L13 39v3l.001.007A5.997 5.997 0 0015.691 47a5.995 5.995 0 00-2.69 4.993L13 52v3l.001.007c.004 3.306 2.693 5.993 6 5.993s5.996-2.688 6-5.993l.001-.007v-3l-.001-.007A5.997 5.997 0 0022.311 47a5.995 5.995 0 002.69-4.993l.001-.007v-3l-.001-.007A5.997 5.997 0 0022.311 34a5.995 5.995 0 002.69-4.993l.001-.007v-3l-.001-.007A5.997 5.997 0 0022.311 21a5.995 5.995 0 002.69-4.993l.001-.007v-3l-.001-.007a6.006 6.006 0 00-6-5.993zm0 2c2.206 0 4 1.794 4 4s-1.794 4-4 4-4-1.794-4-4 1.794-4 4-4zm0 50c-1.539 0-2.861-.883-3.53-2.159a5.956 5.956 0 007.06 0C21.862 58.117 20.54 59 19.001 59zm4-7c0 2.206-1.794 4-4 4s-4-1.794-4-4 1.794-4 4-4 4 1.794 4 4zm-7.53-8.159a5.956 5.956 0 007.06 0C21.862 45.117 20.54 46 19.001 46s-2.861-.883-3.53-2.159zM23.001 39c0 2.206-1.794 4-4 4s-4-1.794-4-4 1.794-4 4-4 4 1.794 4 4zm-7.53-8.159a5.956 5.956 0 007.06 0C21.862 32.117 20.54 33 19.001 33s-2.861-.883-3.53-2.159zM23.001 26c0 2.206-1.794 4-4 4s-4-1.794-4-4 1.794-4 4-4 4 1.794 4 4zm-7.53-8.159a5.956 5.956 0 007.06 0C21.862 19.117 20.54 20 19.001 20s-2.861-.883-3.53-2.159z"/><path d="M19.001 16c1.654 0 3-1.346 3-3s-1.346-3-3-3-3 1.346-3 3 1.346 3 3 3zm0-4a1 1 0 110 2 1 1 0 010-2zm13-5a6.006 6.006 0 00-6 5.993L26 13v3l.001.007A5.997 5.997 0 0028.691 21a5.995 5.995 0 00-2.69 4.993L26 26v3l.001.007A5.997 5.997 0 0028.691 34a5.995 5.995 0 00-2.69 4.993L26 39v3l.001.007A5.997 5.997 0 0028.691 47a5.995 5.995 0 00-2.69 4.993L26 52v3l.001.007c.004 3.306 2.693 5.993 6 5.993s5.996-2.688 6-5.993l.001-.007v-3l-.001-.007A5.997 5.997 0 0035.311 47a5.995 5.995 0 002.69-4.993l.001-.007v-3l-.001-.007A5.997 5.997 0 0035.311 34a5.995 5.995 0 002.69-4.993l.001-.007v-3l-.001-.007A5.997 5.997 0 0035.311 21a5.995 5.995 0 002.69-4.993l.001-.007v-3l-.001-.007a6.006 6.006 0 00-6-5.993zm0 2c2.206 0 4 1.794 4 4s-1.794 4-4 4-4-1.794-4-4 1.794-4 4-4zm0 50c-1.539 0-2.861-.883-3.53-2.159a5.956 5.956 0 007.06 0C34.862 58.117 33.54 59 32.001 59zm4-7c0 2.206-1.794 4-4 4s-4-1.794-4-4 1.794-4 4-4 4 1.794 4 4zm-7.53-8.159a5.956 5.956 0 007.06 0C34.862 45.117 33.54 46 32.001 46s-2.861-.883-3.53-2.159zM36.001 39c0 2.206-1.794 4-4 4s-4-1.794-4-4 1.794-4 4-4 4 1.794 4 4zm-7.53-8.159a5.956 5.956 0 007.06 0C34.862 32.117 33.54 33 32.001 33s-2.861-.883-3.53-2.159zM36.001 26c0 2.206-1.794 4-4 4s-4-1.794-4-4 1.794-4 4-4 4 1.794 4 4zm-7.53-8.159a5.956 5.956 0 007.06 0C34.862 19.117 33.54 20 32.001 20s-2.861-.883-3.53-2.159z"/><path d="M32.001 16c1.654 0 3-1.346 3-3s-1.346-3-3-3-3 1.346-3 3 1.346 3 3 3zm0-4a1 1 0 110 2 1 1 0 010-2zm13 4c1.654 0 3-1.346 3-3s-1.346-3-3-3-3 1.346-3 3 1.346 3 3 3zm0-4a1 1 0 110 2 1 1 0 010-2z"/><path d="M51.001 16.007l.001-.007v-3l-.001-.007C50.997 9.688 48.308 7 45.001 7s-5.996 2.688-6 5.993L39 13v3l.001.007A5.997 5.997 0 0041.691 21a5.995 5.995 0 00-2.69 4.993L39 26v3l.001.007A5.997 5.997 0 0041.691 34a5.995 5.995 0 00-2.69 4.993L39 39v3l.001.007A5.997 5.997 0 0041.691 47a5.995 5.995 0 00-2.69 4.993L39 52v3l.001.007c.004 3.306 2.693 5.993 6 5.993s5.996-2.688 6-5.993l.001-.007v-3l-.001-.007A5.997 5.997 0 0048.311 47a5.995 5.995 0 002.69-4.993l.001-.007v-3l-.001-.007A5.997 5.997 0 0048.311 34a5.995 5.995 0 002.69-4.993l.001-.007v-3l-.001-.007A5.997 5.997 0 0048.311 21a5.997 5.997 0 002.69-4.993zm-6-7.007c2.206 0 4 1.794 4 4s-1.794 4-4 4-4-1.794-4-4 1.794-4 4-4zm0 50c-1.539 0-2.861-.883-3.53-2.159a5.956 5.956 0 007.06 0C47.862 58.117 46.54 59 45.001 59zm4-7c0 2.206-1.794 4-4 4s-4-1.794-4-4 1.794-4 4-4 4 1.794 4 4zm-7.53-8.159a5.956 5.956 0 007.06 0C47.862 45.117 46.54 46 45.001 46s-2.861-.883-3.53-2.159zM49.001 39c0 2.206-1.794 4-4 4s-4-1.794-4-4 1.794-4 4-4 4 1.794 4 4zm-7.53-8.159a5.956 5.956 0 007.06 0C47.862 32.117 46.54 33 45.001 33s-2.861-.883-3.53-2.159zM49.001 26c0 2.206-1.794 4-4 4s-4-1.794-4-4 1.794-4 4-4 4 1.794 4 4zm-7.53-8.159a5.956 5.956 0 007.06 0C47.862 19.117 46.54 20 45.001 20s-2.861-.883-3.53-2.159zM19.001 29c1.654 0 3-1.346 3-3s-1.346-3-3-3-3 1.346-3 3 1.346 3 3 3zm0-4a1 1 0 110 2 1 1 0 010-2zm13 4c1.654 0 3-1.346 3-3s-1.346-3-3-3-3 1.346-3 3 1.346 3 3 3zm0-4a1 1 0 110 2 1 1 0 010-2z"/><path d="M45.001 29c1.654 0 3-1.346 3-3s-1.346-3-3-3-3 1.346-3 3 1.346 3 3 3zm0-4a1 1 0 110 2 1 1 0 010-2zm-26 17c1.654 0 3-1.346 3-3s-1.346-3-3-3-3 1.346-3 3 1.346 3 3 3zm0-4a1 1 0 110 2 1 1 0 010-2zm13 4c1.654 0 3-1.346 3-3s-1.346-3-3-3-3 1.346-3 3 1.346 3 3 3zm0-4a1 1 0 110 2 1 1 0 010-2zm13 4c1.654 0 3-1.346 3-3s-1.346-3-3-3-3 1.346-3 3 1.346 3 3 3zm0-4a1 1 0 110 2 1 1 0 010-2zm-26 17c1.654 0 3-1.346 3-3s-1.346-3-3-3-3 1.346-3 3 1.346 3 3 3zm0-4a1 1 0 110 2 1 1 0 010-2zm13 4c1.654 0 3-1.346 3-3s-1.346-3-3-3-3 1.346-3 3 1.346 3 3 3zm0-4a1 1 0 110 2 1 1 0 010-2zm13 4c1.654 0 3-1.346 3-3s-1.346-3-3-3-3 1.346-3 3 1.346 3 3 3zm0-4a1 1 0 110 2 1 1 0 010-2z"/></svg>