<svg xmlns="http://www.w3.org/2000/svg" viewBox="0 0 64 64"><path d="M30.501 14.01h-8.999a1 1 0 00-1 1v8.999a1 1 0 001 1h8.999a1 1 0 001-1V15.01a1 1 0 00-1-1zm-1 8.999h-6.999V16.01h6.999zm12.998-8.999H33.5a1 1 0 00-1 1v8.999a1 1 0 001 1h8.999a1 1 0 001-1V15.01a1 1 0 00-1-1zm-1 8.999H34.5V16.01h6.999z"/><path d="M49.468 62.838c-.009-.052-.002-.103-.02-.154l-.949-2.845V27.001a1 1 0 00-1-1h-1V8.006a1 1 0 00-1-1V6.001a1 1 0 001-1V1a1 1 0 00-1-1H18.502a1 1 0 00-1 1v4.001a1 1 0 001 1v1.005a1 1 0 00-1 1v17.995H16.5a1 1 0 00-1 1v32.838l-.948 2.845c-.017.051-.011.103-.019.154-.01.055-.033.104-.033.162 0 .014.008.025.008.039.003.071.023.137.041.204.016.06.023.12.049.175.026.057.066.102.103.152.039.054.071.11.12.155.041.039.093.063.141.095.062.041.12.083.19.109.012.005.02.015.032.019A1 1 0 0015.5 64h33a.996.996 0 00.316-.052c.013-.004.021-.014.032-.019.071-.026.13-.069.192-.11.047-.031.099-.056.139-.094.049-.046.082-.103.121-.156.035-.051.076-.096.102-.152.025-.054.033-.114.049-.174.018-.067.038-.133.041-.204.001-.014.008-.025.008-.039 0-.058-.023-.107-.032-.162zM17.221 61H46.78l.333 1H16.887zm2.281-51.994h24.997v2.001H19.502zm0-7.006h24.997v1.999l-.01.002H19.512l-.01-.002zm1 4.001h22.997v1.005H20.502zm-1 7.006h24.997v12.994H19.502zM17.5 28.001h28.999V59H17.5z"/><path d="M32 44.003c3.032 0 5.5-2.468 5.5-5.5s-2.468-5.5-5.5-5.5-5.5 2.468-5.5 5.5 2.468 5.5 5.5 5.5zm0-9c1.93 0 3.5 1.57 3.5 3.5s-1.57 3.5-3.5 3.5-3.5-1.57-3.5-3.5 1.57-3.5 3.5-3.5zm7.501 11.001H24.5a1 1 0 100 2h15.001a1 1 0 100-2zm0 3H24.5a1 1 0 100 2h15.001a1 1 0 100-2zm-3 3H27.5a1 1 0 100 2h9.001a1 1 0 100-2z"/></svg>