<svg xmlns="http://www.w3.org/2000/svg" viewBox="0 0 64 64"><path d="M49 0H15a1 1 0 00-1 1v60c0 1.654 1.346 3 3 3h30c1.654 0 3-1.346 3-3V1a1 1 0 00-1-1zm-1 2.999H16V2h32zM47 62H17a1 1 0 01-1-1V4.999h32V61a1 1 0 01-1 1z"/><path d="M24 30.003c0 4.411 3.589 8 8 8s8-3.589 8-8l-.001-.007c-.003-1.298-.622-2.229-1.169-3.048-.447-.67-.833-1.249-.833-1.947 0-.63.315-1.174.715-1.861.572-.987 1.285-2.214 1.287-4.132l.001-.006c0-4.411-3.589-8-8-8s-8 3.589-8 8c0 1.921.714 3.149 1.287 4.138.399.688.715 1.231.715 1.861 0 .698-.386 1.277-.833 1.947-.548.822-1.169 1.753-1.169 3.055zm11-4.002h1.128c.211.809.642 1.463 1.038 2.057.22.329.423.636.574.945H35zm-2 3.002h-2.002v-3.002H33zm3.982-6.867c-.334.575-.665 1.172-.846 1.865H35v-3.999h2.898c-.169.836-.533 1.473-.916 2.134zM33 24.001h-2.002v-3.999H33zm-4.002 0h-1.136c-.181-.693-.512-1.29-.846-1.865-.383-.661-.747-1.298-.916-2.134h2.897v3.999zm-1.127 2h1.127v3.002h-2.739c.151-.31.354-.616.574-.945.396-.594.827-1.248 1.038-2.057zm-1.781 5.002h2.908v4.188a6.012 6.012 0 01-2.908-4.188zm4.908 4.909v-4.909H33v4.909c-.326.056-.658.091-1 .091s-.676-.035-1.002-.091zM35 35.191v-4.188h2.91A6.007 6.007 0 0135 35.191zm2.91-17.189H35v-4.188a6.007 6.007 0 012.91 4.188zM33 13.092v4.91h-2.002v-4.909c.326-.056.66-.091 1.002-.091s.674.035 1 .09zm-4.002.722v4.188H26.09a6.012 6.012 0 012.908-4.188zM24 54.999c-1.379 0-2.5 1.121-2.5 2.5s1.121 2.5 2.5 2.5 2.5-1.121 2.5-2.5-1.121-2.5-2.5-2.5zm0 3c-.275 0-.5-.225-.5-.5s.225-.5.5-.5.5.225.5.5-.225.5-.5.5zm8-3c-1.379 0-2.5 1.121-2.5 2.5s1.121 2.5 2.5 2.5 2.5-1.121 2.5-2.5-1.121-2.5-2.5-2.5zm0 3c-.275 0-.5-.225-.5-.5s.225-.5.5-.5.5.225.5.5-.225.5-.5.5zm8-3c-1.379 0-2.5 1.121-2.5 2.5s1.121 2.5 2.5 2.5 2.5-1.121 2.5-2.5-1.121-2.5-2.5-2.5zm0 3c-.275 0-.5-.225-.5-.5s.225-.5.5-.5.5.225.5.5-.225.5-.5.5zm2-16.996H22a1 1 0 100 2h20a1 1 0 100-2zm0 3H22a1 1 0 100 2h20a1 1 0 100-2zm-4 4a1 1 0 00-1-1H27a1 1 0 100 2h10a1 1 0 001-1z"/></svg>