<svg xmlns="http://www.w3.org/2000/svg" viewBox="0 0 64 64"><path d="M59 26.491H44v-7.989c0-4.626-3.508-8.443-8.003-8.941V7.71c0-.037-.018-.068-.021-.104.004-.036.021-.067.021-.104a1 1 0 00-1-1h-.144a3.99 3.99 0 00-3.698-2.97c-.052-.01-.1-.032-.155-.032h-3V1.667c0-.029-.015-.055-.017-.083.002-.029.017-.055.017-.084a1 1 0 00-1-1h-6.999c-1.858 0-3.411 1.279-3.858 3h-3.142c-1.858 0-3.412 1.28-3.859 3.001h-.144a1 1 0 00-1 1v2.061C3.506 10.062 0 13.878 0 18.502V39.5c0 4.963 4.037 9 9 9h24.996v11a4.009 4.009 0 004.004 4h18c.014 0 .025-.007.039-.008A4.001 4.001 0 0060 59.5V39.398a5.007 5.007 0 004-4.898v-3.009c0-2.757-2.243-5-5-5zm3 5c0 1.654-1.346 3-3 3a1 1 0 00-1 1v21.004c0 1.103-.897 2-2 2-.007 0-.013.004-.02.004H38a2.007 2.007 0 01-2.004-2.004V47.52c0-.007.004-.013.004-.02s-.004-.013-.004-.02V35.491a1 1 0 00-1-1h-.002c-1.654 0-3-1.346-3-3s1.346-3 3-3H59c1.654 0 3 1.346 3 3zm-28.004 5.825a3.006 3.006 0 01-1.771-1.667c.529.354 1.127.61 1.771.741zm.998-10.825c-2.757 0-5 2.243-5 5V34.5c0 1.13.391 2.162 1.025 3H2V22.499h40v3.992zM32.995 9.502H9.998V8.501h23.93c.023.002.045.014.069.014v.987zM20.001 2.5H26v1h-7.722c.348-.595.986-1 1.723-1zm-7 3h3.994l.005.001.005-.001h13.918c.026.002.05.016.077.016.73 0 1.364.398 1.714.985H11.278A1.994 1.994 0 0113.001 5.5zM9 11.502h26c3.859 0 7 3.141 7 7v1.997H2v-1.997c0-3.859 3.141-7 7-7zM9 46.5c-3.859 0-7-3.141-7-7h31.996v7zm47 14.996c-.007 0-.013.004-.02.004H38a2.003 2.003 0 01-1.939-1.523 3.963 3.963 0 001.939.522h18c.014 0 .025-.007.039-.008a3.937 3.937 0 001.896-.518A1.995 1.995 0 0156 61.496zm4-24.181v-.925a5.008 5.008 0 001.77-.741A3.005 3.005 0 0160 37.315z"/><path d="M29 28.501H15a1 1 0 100 2h14a1 1 0 100-2zM26 31.5h-8a1 1 0 100 2h8a1 1 0 100-2zm-3.97-4a1 1 0 100-2h-.01c-.552 0-.994.447-.994 1s.452 1 1.004 1zm30.969 4.993c-.829 0-1.6.254-2.238.687-.546-1.56-2.018-2.688-3.762-2.688-2.206 0-4 1.794-4 4v.561a3.953 3.953 0 00-2-.557c-2.206 0-4 1.794-4 4V50.5l.002.01A4.003 4.003 0 0041 54.5c.829 0 1.6-.254 2.238-.687.546 1.56 2.018 2.688 3.762 2.688 2.206 0 4-1.794 4-4v-.561a3.953 3.953 0 002 .557c2.206 0 4-1.794 4-4V36.493l-.002-.01a4.004 4.004 0 00-3.999-3.99zM53 50.497c-1.103 0-2-.897-2-2a1 1 0 10-2 0v4.004c0 1.103-.897 2-2 2s-2-.897-2-2v-2.002a1 1 0 10-2 0c0 1.103-.897 2-2 2s-2-.897-2-2l-.001-.005V38.495c0-1.103.897-2 2-2s2 .897 2 2a1 1 0 102 0v-4.004c0-1.103.897-2 2-2s2 .897 2 2v2.002a1 1 0 102 0c0-1.103.897-2 2-2s2 .897 2 2l.001.005v11.999c0 1.103-.897 2-2 2z"/></svg>