<svg xmlns="http://www.w3.org/2000/svg" viewBox="0 0 64 64"><path d="M41.003 25.995A3.008 3.008 0 0144.008 29a1 1 0 102 0 5.01 5.01 0 00-5.005-5.005 1 1 0 100 2z"/><path d="M13.991 40.004c0 .014.007.025.008.039.021 6.047 4.945 10.961 10.998 10.961h5.005a2.98 2.98 0 002.001-.781 2.98 2.98 0 002.003.781h5.003c6.065 0 11-4.935 11-11v-10.99l-.001-.007.001-.007c0-4.966-4.04-9.006-9.006-9.006l-.01.002h-4.995a4.96 4.96 0 00-2.999 1.024l.003-9.024a1 1 0 10-2 0l-.001 1.998h-1.145c-.447-1.721-2-3-3.858-3-1.141 0-8.004 1.152-8.004 4s6.863 4 8.004 4c1.858 0 3.411-1.279 3.858-3h1.145l-.002 5.028a4.949 4.949 0 00-3.001-1.026h-4.983l-.01-.002c-4.97 0-9.014 4.043-9.014 9.012l.001.004-.001.004zm12.007-23.01c-1.648 0-5.496-1.21-5.982-2 .485-.79 4.333-2 5.982-2 .736 0 1.375.405 1.722 1h-2.722a1 1 0 100 2h2.722c-.347.595-.986 1-1.722 1zm-3.001 5l.008.002h4.993c1.654 0 3 1.346 3 3a1 1 0 102 0c0-1.654 1.346-3 3-3h5.005l.008-.002c3.859.005 6.998 3.146 6.998 7.006l.001.007-.001.007v10.99c0 4.963-4.037 9-9 9h-5.003a1.004 1.004 0 01-1.004-1.002 1 1 0 10-2 0v.002a1 1 0 01-1 1h-5.005c-4.963 0-9-4.037-9-9 0-.011-.006-.019-.006-.029V29.014l-.001-.004.001-.004c0-3.863 3.143-7.007 7.006-7.012z"/><path d="M57.002 5c0-.007-.004-.013-.004-.02V3c0-.13-.026-.26-.077-.382a.99.99 0 00-.217-.326L54.705.293a.999.999 0 00-1.414 0l-1.293 1.293L50.705.293a.999.999 0 00-1.414 0l-1.293 1.293L46.705.293a.999.999 0 00-1.414 0l-1.293 1.293L42.705.293a.999.999 0 00-1.414 0l-1.293 1.293L38.705.293a.999.999 0 00-1.414 0l-1.293 1.293L34.705.293a.999.999 0 00-1.414 0l-1.293 1.293L30.705.293a.999.999 0 00-1.414 0l-1.293 1.293L26.705.293a.999.999 0 00-1.414 0l-1.293 1.293L22.705.293a.999.999 0 00-1.414 0l-1.293 1.293L18.705.293a.999.999 0 00-1.414 0l-1.293 1.293L14.705.293a.999.999 0 00-1.414 0l-1.293 1.293L10.705.293a.999.999 0 00-1.414 0l-2 2c-.2.2-.295.465-.289.728V60.98a.994.994 0 00.289.728l2 2a1 1 0 001.414-.001l1.293-1.293 1.293 1.293a.997.997 0 001.414 0l1.293-1.293 1.293 1.293a.997.997 0 001.414 0l1.293-1.293 1.293 1.293a.997.997 0 001.414 0l1.293-1.293 1.293 1.293a.997.997 0 001.414 0l1.293-1.293 1.293 1.293a.997.997 0 001.414 0l1.293-1.293 1.293 1.293a.997.997 0 001.414 0l1.293-1.293 1.293 1.293a.997.997 0 001.414 0l1.293-1.293 1.293 1.293a.997.997 0 001.414 0l1.293-1.293 1.293 1.293a.997.997 0 001.414 0l1.293-1.293 1.293 1.293a.997.997 0 001.414 0l1.293-1.293 1.293 1.293a.997.997 0 001.414 0l1.999-1.999a.99.99 0 00.217-.326.991.991 0 00.077-.382v-1.979c0-.007.004-.013.004-.02s-.004-.013-.004-.02V5.02c0-.007.004-.013.004-.02zm-3.004 56.586l-1.293-1.293a.995.995 0 00-.702-.292h2.995v.585zm-4 0l-1.293-1.293a.995.995 0 00-.702-.292h3.99a.995.995 0 00-.702.292zm-4 0l-1.293-1.293a.995.995 0 00-.702-.292h3.99a.995.995 0 00-.702.292zm-4 0l-1.293-1.293a.995.995 0 00-.702-.292h3.99a.995.995 0 00-.702.292zm-4 0l-1.293-1.293a.995.995 0 00-.702-.292h3.99a.995.995 0 00-.702.292zm-4 0l-1.293-1.293a.995.995 0 00-.702-.292h3.99a.995.995 0 00-.702.292zm-4 0l-1.293-1.293a.995.995 0 00-.702-.292h3.99a.995.995 0 00-.702.292zm-4 0l-1.293-1.293a.995.995 0 00-.702-.292h3.99a.995.995 0 00-.702.292zm-4 0l-1.293-1.293a.995.995 0 00-.702-.292h3.99a.995.995 0 00-.702.292zm-4 0l-1.293-1.293a.995.995 0 00-.702-.292h3.99a.995.995 0 00-.702.292zm-4 0l-1.293-1.293a.995.995 0 00-.702-.292h3.99a.995.995 0 00-.702.292zm-4 0l-.996-.996v-.589h2.991a.995.995 0 00-.702.292zm0-59.172l1.293 1.293a.997.997 0 001.414 0l1.293-1.293 1.293 1.293a.997.997 0 001.414 0l1.293-1.293 1.293 1.293a.997.997 0 001.414 0l1.293-1.293 1.293 1.293a.997.997 0 001.414 0l1.293-1.293 1.293 1.293a.997.997 0 001.414 0l1.293-1.293 1.293 1.293a.997.997 0 001.414 0l1.293-1.293 1.293 1.293a.997.997 0 001.414 0l1.293-1.293 1.293 1.293a.997.997 0 001.414 0l1.293-1.293 1.293 1.293a.997.997 0 001.414 0l1.293-1.293 1.293 1.293a.997.997 0 001.414 0l1.293-1.293 1.293 1.293a.997.997 0 001.414 0l1.293-1.293 1 1V4H9.002v-.59zm45 3.586v52.001H9.002V6z"/></svg>