<svg xmlns="http://www.w3.org/2000/svg" viewBox="0 0 64 64"><path d="M11.008 60.96a.987.987 0 00.285.747l2 2a.997.997 0 001.414 0L16 62.414l1.293 1.293a.997.997 0 001.414 0L20 62.414l1.293 1.293a.997.997 0 001.414 0L24 62.414l1.293 1.293a.997.997 0 001.414 0L28 62.414l1.293 1.293a.997.997 0 001.414 0L32 62.414l1.293 1.293a.997.997 0 001.414 0L36 62.414l1.293 1.293a.997.997 0 001.414 0L40 62.414l1.293 1.293a.997.997 0 001.414 0L44 62.414l1.293 1.293a.997.997 0 001.414 0L48 62.414l1.293 1.293a.997.997 0 001.414 0l1.999-1.999a.99.99 0 00.217-.326A.991.991 0 0053 61V3a1 1 0 00-.294-.708l-1.999-2a.999.999 0 00-1.414 0L48 1.586 46.707.293a.999.999 0 00-1.414 0L44 1.586 42.707.293a.999.999 0 00-1.414 0L40 1.586 38.707.293a.999.999 0 00-1.414 0L36 1.586 34.707.293a.999.999 0 00-1.414 0L32 1.586 30.707.293a.999.999 0 00-1.414 0L28 1.586 26.707.293a.999.999 0 00-1.414 0L24 1.586 22.707.293a.999.999 0 00-1.414 0L20 1.586 18.707.293a.999.999 0 00-1.414 0L16 1.586 14.707.293a.999.999 0 00-1.414 0l-2 2a.988.988 0 00-.285.747zM14 2.414l1.293 1.293a.997.997 0 001.414 0L18 2.414l1.293 1.293a.997.997 0 001.414 0L22 2.414l1.293 1.293a.997.997 0 001.414 0L26 2.414l1.293 1.293a.997.997 0 001.414 0L30 2.414l1.293 1.293a.997.997 0 001.414 0L34 2.414l1.293 1.293a.997.997 0 001.414 0L38 2.414l1.293 1.293a.997.997 0 001.414 0L42 2.414l1.293 1.293a.997.997 0 001.414 0L46 2.414l1.293 1.293a.997.997 0 001.414 0L50 2.414l1 1V4H13.008v-.594zm36 59.172l-1.293-1.293a.995.995 0 00-.702-.292H51v.585zm-4 0l-1.293-1.293a.995.995 0 00-.702-.292h3.99a.995.995 0 00-.702.292zm-4 0l-1.293-1.293a.995.995 0 00-.702-.292h3.99a.995.995 0 00-.702.292zm-4 0l-1.293-1.293a.995.995 0 00-.702-.292h3.99a.995.995 0 00-.702.292zm-4 0l-1.293-1.293a.995.995 0 00-.702-.292h3.99a.995.995 0 00-.702.292zm-4 0l-1.293-1.293a.995.995 0 00-.702-.292h3.99a.995.995 0 00-.702.292zm-4 0l-1.293-1.293a.995.995 0 00-.702-.292h3.99a.995.995 0 00-.702.292zm-4 0l-1.293-1.293a.995.995 0 00-.702-.292h3.99a.995.995 0 00-.702.292zm-4 0l-1.293-1.293a.995.995 0 00-.702-.292h3.99a.995.995 0 00-.702.292zm-4 0l-.992-.992v-.593h2.987a.995.995 0 00-.702.292zm-.992-3.585V6H51v52.001z"/><path d="M21 25h22a1 1 0 100-2H21a1 1 0 100 2zm0 3h22a1 1 0 100-2H21a1 1 0 100 2zm6.002 1a1 1 0 100 2h9.996a1 1 0 100-2zm21.997 14.005L49 43l-.001-.005v-3.99L49 39l-.001-.005v-1.996A3.003 3.003 0 0046 34H18a3.003 3.003 0 00-2.999 2.999v16.002a3 3 0 002.96 2.995c.014.001.025.008.039.008h28.001c.014 0 .025-.008.04-.008a3 3 0 002.958-2.995v-1.996L49 51l-.001-.005v-3.988l.001-.005-.001-.005zM46 54c-.007 0-.013.004-.02.004H34.02c-.007 0-.013-.004-.02-.004a1 1 0 010-1.998l.01-.002h11.98l.01.002A1 1 0 0146 54zm-27.98.004c-.007 0-.013-.004-.02-.004a1 1 0 010-1.998l.01-.002h11.98l.01.002A1 1 0 0130 54c-.007 0-.013.004-.02.004zM18 36h12a1 1 0 010 1.998l-.01.002H18.01l-.01-.002A1 1 0 0118 36zm28 0a1 1 0 010 1.998l-.01.002H34.01l-.01-.002A1 1 0 0134 36zm-4 14a1 1 0 010-1.998h4.999V50zm-16.001 0a1 1 0 010-1.998h12a1 1 0 010 1.998zm-8.998 0v-1.998h5a1 1 0 010 1.998zm4.995-10l.005.001a1 1 0 010 1.998l-.005.001h-4.995v-2zm15.998 0l.005.001a1 1 0 010 1.998l-.005.001h-11.99l-.005-.001a1 1 0 010-1.998l.005-.001zM18 44.001l.005-.001h11.99l.005.001a1 1 0 010 1.998l-.015.003h-11.97L18 45.999a1 1 0 010-1.998zm28 1.998l-.015.003h-11.97L34 45.999a1 1 0 010-1.998l.005-.001h11.99l.005.001a1 1 0 010 1.998zM42.005 42L42 41.999a1 1 0 010-1.998l.005-.001h4.994v2zM32.001 21c3.309 0 6-2.691 6-6s-2.691-6-6-6-6 2.691-6 6 2.691 6 6 6zm0-10c2.206 0 4 1.794 4 4s-1.794 4-4 4-4-1.794-4-4 1.794-4 4-4z"/><path d="M32.001 18c1.654 0 3-1.346 3-3s-1.346-3-3-3-3 1.346-3 3 1.346 3 3 3zm0-4a1.001 1.001 0 11-1 1c0-.551.448-1 1-1z"/></svg>