<svg xmlns="http://www.w3.org/2000/svg" viewBox="0 0 64 64"><path d="M56.447 20.547a27.113 27.113 0 00-5.939-8.182 1 1 0 00-.141-.135C45.545 7.749 39.091 5 32.004 5h-5.996c-2.404 0-4.75.32-7.008.923V1a1 1 0 00-1-1H5.996a1 1 0 00-1 1v62a1 1 0 001 1H18a1 1 0 001-1v-4.923c2.259.603 4.604.923 7.008.923h5.996c7.054 0 13.481-2.722 18.296-7.167a.954.954 0 00.243-.231 27.112 27.112 0 005.884-8.104.913.913 0 00.08-.177A26.819 26.819 0 0059.004 32c0-4.046-.9-7.885-2.503-11.333a.918.918 0 00-.054-.12zm-1.544 21.468h-3.829A26.808 26.808 0 0052.982 33h3.996a24.805 24.805 0 01-2.075 9.015zM44.105 52.019h2.857a24.924 24.924 0 01-9.275 4.322 27.123 27.123 0 006.418-4.322zM26.008 57c-5.48 0-10.656-1.745-15.012-5.025V12.026a25.204 25.204 0 013.133-2.033.987.987 0 00.594-.292 24.615 24.615 0 013.209-1.373c.023.002.044.014.068.014a.971.971 0 00.58-.208A25.02 25.02 0 0126.008 7c13.785 0 25 11.215 25 25s-11.215 25-25 25zM12.998 8.336a26.84 26.84 0 00-2.002 1.228V6.99a1.002 1.002 0 012.002 0zm-2.002 46.099c.653.439 1.319.851 2.002 1.229v1.346a1 1 0 01-2.002 0zM44.127 12a27.094 27.094 0 00-6.439-4.34A24.896 24.896 0 0146.987 12zm8.855 19a26.82 26.82 0 00-1.902-9h3.83a24.807 24.807 0 012.068 9zm.947-11h-3.744a27.07 27.07 0 00-4.074-6h3.216a25.173 25.173 0 014.602 6zM17 62H6.996V2H17v4.538c-.678.24-1.346.505-2.002.799V6.99c0-1.654-1.346-3-3-3a3.005 3.005 0 00-3.002 3v50.019c0 1.654 1.347 3 3.002 3 1.654 0 3-1.346 3-3v-.347c.656.295 1.324.56 2.002.799zm32.307-11.981h-3.212a27.108 27.108 0 004.083-6.004h3.742a25.147 25.147 0 01-4.613 6.004z"/><path d="M31 40.002h-2.004V19.999a1.003 1.003 0 00-1.382-.923 1 1 0 00-.326.217l-3.872 3.873a.973.973 0 00-.213.212l-2.916 2.917a.999.999 0 101.414 1.414l1.295-1.295v13.589h-2a1 1 0 100 2H31a1 1 0 100-2.001zm-6.004-15.589l2-2v17.589h-2z"/></svg>