<svg xmlns="http://www.w3.org/2000/svg" viewBox="0 -24 480 480"><path d="M472 96H365.336L327.383 4.922A7.997 7.997 0 00320 0H184a8 8 0 00-8 8v32a8 8 0 008 8h106.457l18 48H248a8 8 0 00-8 8v48a8 8 0 008 8h8.457L272 424.473a8 8 0 008 7.527h160a8 8 0 008-7.527L463.543 160H472a8 8 0 008-8v-48a8 8 0 00-8-8zM303.496 37.191A7.998 7.998 0 00296 32H192V16h122.664L348 96h-22.457zM437.16 336h-34.969C416.051 323.898 424 306.398 424 288s-7.95-35.898-21.809-48h40.618zM408 288c0 26.508-21.492 48-48 48s-48-21.492-48-48 21.492-48 48-48c26.5.027 47.973 21.5 48 48zm-112 0a63.82 63.82 0 0021.809 48h-34.97l-5.648-96h40.618A63.82 63.82 0 00296 288zm-8.457 128l-3.758-64h152.43l-3.758 64zm156.21-192H276.247l-3.758-64h175.024zM464 144H256v-32h208zm0 0"/><path d="M408 384h-24a8 8 0 000 16h24a8 8 0 000-16zm-56 0h-8a8 8 0 000 16h8a8 8 0 000-16zM24 432h208c13.254 0 24-10.746 24-24v-32a23.95 23.95 0 00-11.2-20.23 23.212 23.212 0 000-23.54A23.95 23.95 0 00256 312c0-43.258-29.922-88-80-88H88c-57.777 0-88 44.273-88 88a23.95 23.95 0 0011.2 20.23 23.212 23.212 0 000 23.54A23.95 23.95 0 000 376v32c0 13.254 10.746 24 24 24zm216-24a8 8 0 01-8 8H24a8 8 0 01-8-8v-32a8 8 0 018-8h62.953l118.984 31.727a7.993 7.993 0 009.223-4.153L228.945 368H232a8 8 0 018 8zM24 344a8 8 0 018-8h192a8 8 0 010 16H32a8 8 0 01-8-8zm187.055 24l-7.293 14.594L149.047 368zM88 240h88c44.145 0 64 42.105 64 72a8 8 0 01-8 8H24a8 8 0 01-8-8c0-28.945 19.2-72 72-72zm0 0"/><path d="M88 272h8a8 8 0 000-16h-8a8 8 0 000 16zm-32 32h8a8 8 0 000-16h-8a8 8 0 000 16zm40-8a8 8 0 008 8h8a8 8 0 000-16h-8a8 8 0 00-8 8zm56 8h8a8 8 0 000-16h-8a8 8 0 000 16zm48 0h8a8 8 0 000-16h-8a8 8 0 000 16zm-72-32h8a8 8 0 000-16h-8a8 8 0 000 16zm40 0h8a8 8 0 000-16h-8a8 8 0 000 16zm0 0"/></svg>