<svg xmlns="http://www.w3.org/2000/svg" height="661.333" viewBox="-64 0 496 496" width="661.333"><path d="M360 0H8a7.99 7.99 0 00-8 8v448a7.99 7.99 0 008 8h8v24a7.99 7.99 0 008 8h48a7.99 7.99 0 008-8v-24h208v24a7.99 7.99 0 008 8h48a7.99 7.99 0 008-8v-24h8a7.99 7.99 0 008-8V8a7.99 7.99 0 00-8-8zm-8 288H240V16h112zM224 16v272H16V16zM16 448V304h208v144zm48 32H32v-16h32zm272 0h-32v-16h32zm-96-32V304h112v144zm24-272h64a7.99 7.99 0 008-8V40a7.99 7.99 0 00-8-8h-64a7.99 7.99 0 00-8 8v128a7.99 7.99 0 008 8zm8-16v-16h48v16zm48-48v16h-48v-16zm-48-16V80h48v16zm48-48v16h-48V48zm0 0"/><path d="M256 192h16v16h-16zm32 0h16v16h-16zm-32 32h16v16h-16zm32 0h16v16h-16zm-32 32h16v16h-16zm32 0h16v16h-16zm32-64h16v16h-16zm0 32h16v16h-16zm0 32h16v16h-16zm8 112h-48a7.99 7.99 0 00-8 8v48a7.99 7.99 0 008 8h48a7.99 7.99 0 008-8v-48a7.99 7.99 0 00-8-8zm-8 48h-32v-32h32zm-120-80H40a7.99 7.99 0 00-8 8v64a7.99 7.99 0 008 8h160a7.99 7.99 0 008-8v-64a7.99 7.99 0 00-8-8zm-8 64H48v-48h144zM40 272h160a7.99 7.99 0 008-8V40a7.99 7.99 0 00-8-8H40a7.99 7.99 0 00-8 8v224a7.99 7.99 0 008 8zm8-16v-16h144v16zm48-128H80V96h16zm96 16v80h-16v-40a7.99 7.99 0 00-8-8h-32a7.99 7.99 0 00-8 8v40h-16v-40a7.99 7.99 0 00-8-8H72a7.99 7.99 0 00-8 8v40H48v-80zm-32-16h-16V96h16zm0 96h-16v-32h16zm-64 0H80v-32h16zm96-176v80h-16V88a7.99 7.99 0 00-8-8h-32a7.99 7.99 0 00-8 8v40h-16V88a7.99 7.99 0 00-8-8H72a7.99 7.99 0 00-8 8v40H48V48zm0 0"/></svg>