<svg xmlns="http://www.w3.org/2000/svg" viewBox="0 -24 494 494"><path d="M441.906 0H122.47C94.746 0 72.19 22.344 72.19 49.719L70.133 331H7.793C3.375 331 0 334.906 0 339.324v38.711c0 36.238 29 65.875 64 67.5V446h269v-.523c2 .082 3.21.523 4.586.523h.191c37.328-.219 67.418-30.645 67.223-67.973V132h81.207c4.418 0 7.793-4 7.793-8.414V52.559C494.05 23.69 470.773.207 441.906 0zM67.5 430h-.055C38.988 430 16 406.48 16 378.027V347h254v30.895a67.709 67.709 0 0019.766 48.046c1.351 1.36 2.765 2.059 4.21 4.059zM389 378.02c0 28.46-22.766 51.98-51.234 51.98h-.164c-28.61-.207-51.668-23.492-51.602-52.102v-38.574a8.287 8.287 0 00-8-8.324H86.133L88.19 49.773C88.191 31.168 103.566 16 122.47 16h281.668C395.02 26 389 38.652 389 52.773zM478 52.7V116h-73V52.758C405 32.734 421.656 16 441.672 16h.223c20.066.2 36.199 16.57 36.105 36.64zm0 0"/><path d="M187.855 196.914l41.247 28.2a7.877 7.877 0 008.941 0l41.121-28.192C293.45 187.176 304 166.8 304 149.523V92.47a7.82 7.82 0 00-4.266-7.184l-62.8-30.89a7.86 7.86 0 00-6.993 0L167.258 85.2A7.807 7.807 0 00163 92.383v57.14c0 17.278 10.574 37.653 24.855 47.391zM179 97.375l54.5-26.89L288 97.448v52.074c0 12.051-7.898 27.38-17.863 34.172l-36.73 25.121L196.82 183.7c-9.965-6.8-17.82-22.125-17.82-34.176zm0 0"/><path d="M219.969 161.602a7.989 7.989 0 005.664 2.398h.02a8.01 8.01 0 005.656-2.367l31.824-31.836a8.003 8.003 0 00.004-11.32c-3.121-3.13-8.192-3.13-11.317-.004l-26.14 26.136-10.45-10.55a8.003 8.003 0 00-11.32-.051 8.007 8.007 0 00-.05 11.32zM333 248H141a8 8 0 000 16h192a8 8 0 000-16zm0 37H141a8 8 0 000 16h192a8 8 0 000-16zm0 0"/></svg>