<svg xmlns="http://www.w3.org/2000/svg" viewBox="0 0 422.692 422.692"><path d="M271.786 289.626v-7.36c2.08-1.68 4.08-3.52 6-5.44a109.36 109.36 0 0027.68-60.96 53.762 53.762 0 0034.72-20.64c11.6-16.4 12.64-40 2.96-69.6a8.002 8.002 0 00-3.2-4.16l-4.4-2.96a108.478 108.478 0 00-25.92-73.04c-21.52-24.24-54.56-36.48-98.32-36.64-43.68 0-76.8 12.4-98.32 36.32a108.478 108.478 0 00-25.92 73.04l-4.4 2.96a8.002 8.002 0 00-3.2 4.16c-9.68 29.76-8.64 53.2 2.96 69.6a53.918 53.918 0 0034.72 20.88 109.44 109.44 0 0027.76 61.04 78.037 78.037 0 006 5.44v7.36c-30.64 5.92-152.96 34.64-150.88 116.24a8 8 0 008 8h406.64a8 8 0 008-8c2.08-81.6-120.24-110.32-150.88-116.24zm-159.44-91.68a34.72 34.72 0 01-16.96-12.4l.4.08c-8-11.68-8.72-29.36-1.6-52.72l5.84-3.92a8 8 0 003.52-7.44 94.558 94.558 0 0121.76-65.84c18.08-20.48 47.12-30.72 86-30.88 38.88-.16 67.92 10.4 86.32 30.88a94.558 94.558 0 0121.76 65.84 8 8 0 003.52 7.44l5.84 3.92c7.12 23.28 6.64 41.04-1.6 52.72a34.886 34.886 0 01-17.04 12.4 53.277 53.277 0 0013.04-40 37.441 37.441 0 00-12.88-22.4c-3.44-80-59.52-88.96-83.68-88.96-5.114-.015-10.222.36-15.28 1.12a100.705 100.705 0 00-15.28-1.12c-24 0-80 8.8-83.68 88.96a37.44 37.44 0 00-13.04 22.32 53.2 53.2 0 0013.04 40zm182-65.6a164.805 164.805 0 01-95.6-24 8 8 0 00-10.4 1.04c-16 17.2-45.2 21.2-59.28 22.08 4.32-56.56 38.56-68.88 67.36-68.88a77.331 77.331 0 0113.68 1.12 7.982 7.982 0 003.2 0 77.71 77.71 0 0113.68-1.12c28.56 0 62.96 12.64 66.96 69.68l.4.08zm-162.48 67.12l.32.08a7.997 7.997 0 00-2-5.36c-10.96-12.56-16-24-14.64-33.44a21.2 21.2 0 017.28-13.52c10.56 0 48-2 72-22.72a180.395 180.395 0 0088.8 24c5.36 0 10.8 0 16.48-.88a21.118 21.118 0 017.2 13.12c1.36 9.28-3.68 20.88-14.64 33.44a7.997 7.997 0 00-2 5.36v4.16l-46.56 24.96c-9.24-8.748-23.823-8.349-32.571.891-8.748 9.24-8.349 23.823.891 32.571 9.24 8.748 23.823 8.349 32.571-.891a23.039 23.039 0 006.309-15.851c.036-.72.036-1.44 0-2.16l36.72-19.68a88.007 88.007 0 01-21.44 42.24 71.28 71.28 0 01-53.04 19.84h-4a71.44 71.44 0 01-52.96-19.76c-25.28-25.2-24.72-66-24.72-66.4zm103.44 45.92a7.12 7.12 0 11-14.24 0 7.12 7.12 0 0114.24 0zm-32 152H16.266c6.32-60.08 104-85.2 134.56-91.68v14.32c0 18.16 22.08 32 52.48 34.32v43.04zm-36.48-77.36v-27.6a96.721 96.721 0 0042.48 8.96h4a96.721 96.721 0 0042.48-8.96v27.6c0 7.6-17.36 18.56-44.48 18.56s-44.48-10.96-44.48-18.56zm52.48 77.6v-43.36c30.4-2.08 52.48-16 52.48-34.32v-14c30.8 6.4 128 31.52 134.56 91.68h-187.04z"/></svg>