<svg xmlns="http://www.w3.org/2000/svg" viewBox="0 0 64 64"><g data-name="Vending Machine"><path d="M54 2H10a1 1 0 00-1 1v54a1 1 0 001 1h1v3a1 1 0 001 1h4a1 1 0 001-1v-3h30v3a1 1 0 001 1h4a1 1 0 001-1v-3h1a1 1 0 001-1V3a1 1 0 00-1-1zM15 60h-2v-2h2zm36 0h-2v-2h2zm2-4H11V4h42z"/><path d="M14 38h24a1 1 0 001-1V7a1 1 0 00-1-1H14a1 1 0 00-1 1v30a1 1 0 001 1zm23-12H15v-8h22zm0 10H15v-8h22zM15 8h22v8H15zm21 36H16a1 1 0 00-1 1v6a1 1 0 001 1h20a1 1 0 001-1v-6a1 1 0 00-1-1zm-1 6H17v-4h18z"/><path d="M17 10h2v4h-2zm4 0h2v4h-2zm4 0h2v4h-2zm4 0h2v4h-2zm4 0h2v4h-2zM17 20h2v4h-2zm4 0h2v4h-2zm4 0h2v4h-2zm4 0h2v4h-2zm4 0h2v4h-2zM17 30h2v4h-2zm4 0h2v4h-2zm4 0h2v4h-2zm4 0h2v4h-2zm4 0h2v4h-2zm9-4h8a1 1 0 001-1V13a1 1 0 00-1-1h-8a1 1 0 00-1 1v12a1 1 0 001 1zm1-12h6v10h-6z"/><path d="M45 16h2v2h-2zm0 4h2v2h-2zM23 47h6v2h-6zm20-18h2v4h-2zm4 0h2v4h-2zm-4 6h6v2h-6z"/></g></svg>