<svg id="Layer_1" data-name="Layer 1" xmlns="http://www.w3.org/2000/svg" viewBox="0 0 1730.48 392.23"><title>ctvendlogo</title><path d="M81.61,513q0-76.11,22-112.86t67.33-36.73a114.22,114.22,0,0,1,32.12,4.61q15.83,4.62,26.4,13.86a15.78,15.78,0,0,1,5.27,9.25,18.67,18.67,0,0,1-.88,9.89,17.69,17.69,0,0,1-6.16,7.92,16.42,16.42,0,0,1-10.12,3.31A16.79,16.79,0,0,1,200.85,400q-4.4-13.18-12.76-19.13t-15.84-5.95h-.87q-8.37,0-15.4,7T143.65,405.2q-5.28,16.24-8.13,42.61t-2.87,65q0,36.45,4.62,62.6t11.88,42.83q7.28,16.69,16.73,24.6t19.14,7.9q11.88,0,20.46-4.39a63.69,63.69,0,0,0,14.29-9.69,54,54,0,0,0,11-14.51l13.65,8.35a75.84,75.84,0,0,1-16.29,15.85,89.14,89.14,0,0,1-20.46,11,74.1,74.1,0,0,1-27.5,4.81q-45.31,0-71.94-37.84T81.61,513Z" transform="translate(-81.61 -361.68)"/><path d="M273.45,446.6H262V363.45h180.4V446.6H431V416.25a41.28,41.28,0,0,0-3.08-15.84,39.65,39.65,0,0,0-8.58-13,43.23,43.23,0,0,0-12.76-8.79,42.8,42.8,0,0,0-15.62-3.75l-14.52.45V625.68a25.56,25.56,0,0,0,25.52,25.53h12.76v11.43H285.77V651.21h12.76a25.56,25.56,0,0,0,25.52-25.53V374.88h-9.68a38.76,38.76,0,0,0-15.84,3.3,42.29,42.29,0,0,0-13,8.8,41.86,41.86,0,0,0-8.8,13.2,40.44,40.44,0,0,0-3.3,16.07Z" transform="translate(-81.61 -361.68)"/><path d="M648.76,384.56a24.88,24.88,0,0,0-4.84,21.57l46.64,209,46.2-209a25.62,25.62,0,0,0-4.84-21.57,27,27,0,0,0-8.58-7,23.87,23.87,0,0,0-11.22-2.64H691V363.45H813.76v11.43H790a35.07,35.07,0,0,0-22.44,7.7,34,34,0,0,0-12.32,20l-58.08,260-47.08-.43-59.4-267.08a26.61,26.61,0,0,0-9.24-14.53,24.53,24.53,0,0,0-15.84-5.72H552.4V363.45h121v11.43H669Q656.24,374.88,648.76,384.56Z" transform="translate(-81.61 -361.68)"/><path d="M762.28,558.37q0-30.79,6.16-51.7t16.94-33.45a60.12,60.12,0,0,1,25.3-17.81,90.47,90.47,0,0,1,31.24-5.28q19.8,0,34.1,5.5t23.54,19.58Q908.8,489.3,913.42,513T918,573.33H810.24q1.75,23.88,7.48,39.59t13.42,25q7.7,9.29,15.4,13T860,654.72q12.31,0,20.9-3.51a62.4,62.4,0,0,0,14.3-7.92,37.28,37.28,0,0,0,10.56-11.88v18.47a45.77,45.77,0,0,1-13.2,8.23,80.05,80.05,0,0,1-18,5.72,128.79,128.79,0,0,1-26.4,2.34,93.07,93.07,0,0,1-32.56-5.72,69.5,69.5,0,0,1-27.28-18.7q-11.88-13-18.92-33.45T762.28,558.37Zm110-.45q0-30.78-2.42-49.5T863,479.6q-4.41-10.11-9.9-13.64a20.65,20.65,0,0,0-11.22-3.51A22.39,22.39,0,0,0,830,466q-5.73,3.54-10.12,13.64t-7.26,29q-2.86,18.93-2.86,49.28Z" transform="translate(-81.61 -361.68)"/><path d="M1003.84,451.88V484a49.62,49.62,0,0,1,4.62-10.78,45.14,45.14,0,0,1,9-11.22,47.31,47.31,0,0,1,14.3-8.79q8.58-3.52,20.46-3.53,16.71,0,26.84,7.06a48.41,48.41,0,0,1,15.4,17,62.63,62.63,0,0,1,6.82,20.51,127.42,127.42,0,0,1,1.54,17.63l.44.44v116a22,22,0,0,0,6.38,15.87,21.36,21.36,0,0,0,16.06,6.61v11.45h-90.64V650.76a22.52,22.52,0,0,0,22.44-22.43V517.45a113.4,113.4,0,0,0-.88-11.66,62.84,62.84,0,0,0-3.74-15.19,40.72,40.72,0,0,0-8.14-13.19q-5.28-5.71-14.08-5.73a16,16,0,0,0-12.32,5.28,43.5,43.5,0,0,0-7.92,12.54,80.18,80.18,0,0,0-4.62,14.3q-1.55,7.05-2,10.57v114a22.52,22.52,0,0,0,22.44,22.43v11.45H935.64V650.76a22.52,22.52,0,0,0,22.44-22.43V506.88c0-10.84-2.35-18-7-21.55a25.08,25.08,0,0,0-15.4-5.29V468.6a93.34,93.34,0,0,0,22.66-2.48,87.94,87.94,0,0,0,16.5-5.65,41.56,41.56,0,0,0,12.76-8.59Z" transform="translate(-81.61 -361.68)"/><path d="M1311,391.6a25.86,25.86,0,0,0-15.4,5.07q-7,5.06-7,21.33V616A22.55,22.55,0,0,0,1311,638.45v11.43q-12.77,0-24.64,1.1t-21.56,2.43h-.88q-4.84.89-8.58,1.31c-2.49.3-4.77.6-6.82.88a125.32,125.32,0,0,0-13.42,3.08q-5.94,1.77-11.88,3.3t-12.76,2.65a104,104,0,0,1-16.06,1.09q-18.91,0-29.26-9.48a58.19,58.19,0,0,1-15.18-21.82,78.38,78.38,0,0,1-5.5-24.46q-.66-12.13-.66-17.43v-72.3q-.88-19.85,4-35.28a57.65,57.65,0,0,1,5.28-13,39.94,39.94,0,0,1,9.24-11.24,47.71,47.71,0,0,1,13.64-7.94,50.89,50.89,0,0,1,18.48-3.09q11.88,0,20.46,3.53a47.31,47.31,0,0,1,14.3,8.79,45.37,45.37,0,0,1,9,11.22,49.62,49.62,0,0,1,4.62,10.78V363.88h16.72a50.29,50.29,0,0,0,12.76,8.37,78.76,78.76,0,0,0,15.84,5.5,95.34,95.34,0,0,0,22.88,2.42Zm-68.2,122.77q-.43-3.53-2-10.57a82.44,82.44,0,0,0-4.58-14.3,41.45,41.45,0,0,0-8.07-12.54,16,16,0,0,0-12-5.28c-7,0-12.3,2.58-15.93,7.7a48.31,48.31,0,0,0-7.63,16.95,120.7,120.7,0,0,0-3.08,24.19V589.6a176.77,176.77,0,0,0,3.08,29.92,61.21,61.21,0,0,0,7.63,20.46,17.5,17.5,0,0,0,15.93,9c5.23,0,9.52-.94,12.86-2.86a22.12,22.12,0,0,0,7.85-7.26,33.49,33.49,0,0,0,4.15-9,55.3,55.3,0,0,0,1.74-8.15Z" transform="translate(-81.61 -361.68)"/><path d="M1396.75,628.33a22.52,22.52,0,0,0,22.44,22.43v11.45h-90.64V650.76A22.52,22.52,0,0,0,1351,628.33V506.88c0-10.84-2.35-18-7-21.55a25.08,25.08,0,0,0-15.4-5.29V468.6a95.54,95.54,0,0,0,22.66-2.42,76.85,76.85,0,0,0,16.06-5.5,50.42,50.42,0,0,0,12.76-8.35h16.72Zm-21.12-207.69a29.48,29.48,0,1,1,0-59,27.74,27.74,0,0,1,20.68,8.58,30.3,30.3,0,0,1,0,41.8A27.7,27.7,0,0,1,1375.63,420.64Z" transform="translate(-81.61 -361.68)"/><path d="M1505,451.88V484a49.62,49.62,0,0,1,4.62-10.78,45.37,45.37,0,0,1,9-11.22,47.31,47.31,0,0,1,14.3-8.79q8.58-3.52,20.46-3.53,16.72,0,26.84,7.06a48.31,48.31,0,0,1,15.4,17,62.63,62.63,0,0,1,6.82,20.51,125.87,125.87,0,0,1,1.54,17.63l.44.44v116a22.06,22.06,0,0,0,6.38,15.87,21.37,21.37,0,0,0,16.06,6.61v11.45h-90.64V650.76a22.52,22.52,0,0,0,22.44-22.43V517.45a110.58,110.58,0,0,0-.88-11.66A62.38,62.38,0,0,0,1554,490.6a40.72,40.72,0,0,0-8.14-13.19q-5.28-5.71-14.08-5.73A16,16,0,0,0,1519.5,477a43.5,43.5,0,0,0-7.92,12.54,81.83,81.83,0,0,0-4.62,14.3q-1.55,7.05-2,10.57v114a22.52,22.52,0,0,0,22.44,22.43v11.45h-90.64V650.76a22.52,22.52,0,0,0,22.44-22.43V506.88c0-10.84-2.35-18-7-21.55a25.06,25.06,0,0,0-15.4-5.29V468.6a93.28,93.28,0,0,0,22.66-2.48,87.94,87.94,0,0,0,16.5-5.65,41.56,41.56,0,0,0,12.76-8.59Z" transform="translate(-81.61 -361.68)"/><path d="M1695.5,666.6a50.86,50.86,0,0,1-18.48-3.08,46.85,46.85,0,0,1-13.64-7.92,39.38,39.38,0,0,1-9.24-11.22,56.17,56.17,0,0,1-5.28-13q-4.86-15.4-4-35.65V524q0-5.28.66-17.37a77.8,77.8,0,0,1,5.5-24.42,58.09,58.09,0,0,1,15.18-21.79q10.32-9.45,29.26-9.46a128.78,128.78,0,0,1,16.06.88,108,108,0,0,1,12.76,2.42q5.94,1.56,11.88,3.3a120.14,120.14,0,0,0,13.42,3.08q5.7,1.32,15.4,2.65h.88c6.44.88,13.64,1.69,21.56,2.42s16.12,1.09,24.64,1.09v11.45a22.5,22.5,0,0,0-22.44,22.43V673.64l-.88.88q-1.76,20.68-7.68,34.77t-14.27,23.09A57.85,57.85,0,0,1,1748.39,746a82,82,0,0,1-20.63,6.39q-24.13,4.38-54.43-4V734.37q18.4,5.26,33.31.43a44.79,44.79,0,0,0,12.7-6.82,48.53,48.53,0,0,0,11.4-12.76,76.13,76.13,0,0,0,8.77-20.46q3.51-12.32,4.39-29.92V632.29a49.36,49.36,0,0,1-4.62,10.77,45.64,45.64,0,0,1-9,11.23,47.38,47.38,0,0,1-14.29,8.79Q1707.38,666.6,1695.5,666.6Zm21.79-198.88q-10.49,0-15.92,9.24a63.8,63.8,0,0,0-7.63,20.68,174,174,0,0,0-3.08,29.49v68.63a121.9,121.9,0,0,0,3.08,24.65,46,46,0,0,0,7.63,16.72q5.45,7.49,15.92,7.47a16,16,0,0,0,12-5.27,42.8,42.8,0,0,0,8.07-12.11,70,70,0,0,0,4.58-13.85q1.53-7,2-10.57V494.56a55.91,55.91,0,0,0-1.75-8.14,30.3,30.3,0,0,0-4.15-8.79,23.24,23.24,0,0,0-7.85-7.05Q1725.14,467.73,1717.29,467.72Z" transform="translate(-81.61 -361.68)"/></svg>