<svg id="Layer_1" data-name="Layer 1" xmlns="http://www.w3.org/2000/svg" xmlns:xlink="http://www.w3.org/1999/xlink" viewBox="0 0 1794.37 368.71"><title>ctvendlogofullv2</title><path d="M416.06,548.64q0-63.39,18.32-94t56.06-30.59a95.22,95.22,0,0,1,26.75,3.84,57.25,57.25,0,0,1,22,11.55,13.06,13.06,0,0,1,4.39,7.69,15.61,15.61,0,0,1-.73,8.24,14.79,14.79,0,0,1-5.13,6.6,13.68,13.68,0,0,1-8.43,2.75,14,14,0,0,1-13.92-10.26q-3.68-11-10.63-15.94t-13.19-4.95h-.73q-7,0-12.83,5.86t-10.26,19.39q-4.39,13.53-6.78,35.48t-2.38,54.15q0,30.36,3.85,52.13t9.89,35.67q6,13.9,13.93,20.49t15.94,6.58a37,37,0,0,0,17-3.66,53.47,53.47,0,0,0,11.91-8.06,45.39,45.39,0,0,0,9.16-12.09l11.36,7a63.51,63.51,0,0,1-13.56,13.19,74.76,74.76,0,0,1-17,9.19,61.61,61.61,0,0,1-22.9,4q-37.75,0-59.91-31.51T416.06,548.64Z" transform="translate(-62.82 -380.53)"/><path d="M575.82,493.31h-9.53V424.06H716.52v69.25H707V468a34.3,34.3,0,0,0-2.57-13.19A32.66,32.66,0,0,0,697.29,444a35.89,35.89,0,0,0-23.64-10.45l-12.09.37v208.5a21.27,21.27,0,0,0,21.25,21.25h10.63v9.53H586.08V663.7H596.7A21.25,21.25,0,0,0,618,642.45V433.58h-8.06a32.35,32.35,0,0,0-13.19,2.75,34.18,34.18,0,0,0-18.14,18.32A33.69,33.69,0,0,0,575.82,468Z" transform="translate(-62.82 -380.53)"/><path d="M888.37,441.64a20.75,20.75,0,0,0-4,18l38.84,174,38.48-174a21.34,21.34,0,0,0-4-18,22.34,22.34,0,0,0-7.15-5.86,20,20,0,0,0-9.34-2.2H923.55v-9.52h102.23v9.52H1006A29.12,29.12,0,0,0,987.31,440a28.18,28.18,0,0,0-10.26,16.67L928.68,673.23l-39.21-.37L840,450.44a22.16,22.16,0,0,0-7.7-12.09,20.37,20.37,0,0,0-13.19-4.77h-11v-9.52H908.89v9.52h-3.66Q894.6,433.58,888.37,441.64Z" transform="translate(-62.82 -380.53)"/><path d="M982.91,586.38q0-25.64,5.13-43t14.11-27.85a50,50,0,0,1,21.07-14.84,75.56,75.56,0,0,1,26-4.4q16.49,0,28.4,4.58t19.6,16.31q7.69,11.73,11.55,31.51t3.84,50.2h-89.77q1.46,19.9,6.23,33t11.17,20.82q6.42,7.74,12.83,10.87t11.18,3.13q10.24,0,17.4-2.93a51.39,51.39,0,0,0,11.91-6.6,30.94,30.94,0,0,0,8.79-9.89V662.6a38.13,38.13,0,0,1-11,6.85,67.24,67.24,0,0,1-15,4.77,108,108,0,0,1-22,1.94,77.07,77.07,0,0,1-27.11-4.77,57.69,57.69,0,0,1-22.72-15.57Q994.63,645,988.77,628T982.91,586.38Zm91.61-.36q0-25.65-2-41.23t-5.68-24q-3.66-8.41-8.24-11.36a17.23,17.23,0,0,0-9.35-2.93,18.63,18.63,0,0,0-9.89,2.93q-4.77,2.94-8.43,11.36T1024.86,545q-2.38,15.75-2.38,41Z" transform="translate(-62.82 -380.53)"/><path d="M1184.08,497.71v26.75a41.12,41.12,0,0,1,3.84-9,37.94,37.94,0,0,1,7.51-9.34,39.25,39.25,0,0,1,11.91-7.33,44.73,44.73,0,0,1,17-2.93q13.92,0,22.36,5.87a40.32,40.32,0,0,1,12.82,14.14,52.36,52.36,0,0,1,5.68,17.08,106,106,0,0,1,1.28,14.69l.37.36V644.6a18.39,18.39,0,0,0,5.31,13.23,17.8,17.8,0,0,0,13.38,5.5v9.53h-75.49v-9.53a18.76,18.76,0,0,0,18.69-18.68V552.31a95.22,95.22,0,0,0-.73-9.71,52.26,52.26,0,0,0-3.12-12.65,33.83,33.83,0,0,0-6.78-11q-4.39-4.76-11.72-4.76a13.28,13.28,0,0,0-10.26,4.39,36.21,36.21,0,0,0-6.6,10.45,66.89,66.89,0,0,0-3.84,11.91q-1.29,5.87-1.65,8.79v94.91a18.74,18.74,0,0,0,18.68,18.68v9.53h-75.48v-9.53A18.76,18.76,0,0,0,1146,644.65V543.51q0-13.54-5.87-18a20.85,20.85,0,0,0-12.82-4.4v-9.53a77.35,77.35,0,0,0,18.87-2.07,73.27,73.27,0,0,0,13.74-4.7,34.88,34.88,0,0,0,10.63-7.15Z" transform="translate(-62.82 -380.53)"/><path d="M1439.84,447.51a21.56,21.56,0,0,0-12.83,4.21q-5.87,4.21-5.86,17.77V634.38a18.76,18.76,0,0,0,18.69,18.69v9.53q-10.63,0-20.52.92t-18,2h-.73q-4,.74-7.15,1.1c-2.07.25-4,.49-5.68.73a103,103,0,0,0-11.17,2.57q-5,1.47-9.9,2.75c-3.29.85-6.84,1.58-10.62,2.2a86.62,86.62,0,0,1-13.38.91q-15.75,0-24.36-7.89a48.44,48.44,0,0,1-12.65-18.18,65.34,65.34,0,0,1-4.58-20.37q-.54-10.11-.55-14.51V554.62q-.73-16.51,3.3-29.37a48,48,0,0,1,4.4-10.83,33.14,33.14,0,0,1,7.69-9.36,39.79,39.79,0,0,1,11.36-6.61,42.13,42.13,0,0,1,15.39-2.57,44.66,44.66,0,0,1,17,2.93,39.12,39.12,0,0,1,11.91,7.33,37.71,37.71,0,0,1,7.51,9.34,40.71,40.71,0,0,1,3.85,9v-100H1397a42,42,0,0,0,10.63,7,64.71,64.71,0,0,0,13.19,4.58,79,79,0,0,0,19.06,2ZM1383,549.74q-.36-2.93-1.64-8.79a66.72,66.72,0,0,0-3.81-11.91,34.31,34.31,0,0,0-6.72-10.45,13.3,13.3,0,0,0-10-4.39q-8.72,0-13.26,6.41a40.11,40.11,0,0,0-6.35,14.11,100.18,100.18,0,0,0-2.57,20.15V612.4a146.68,146.68,0,0,0,2.57,24.92,51,51,0,0,0,6.35,17,14.59,14.59,0,0,0,13.26,7.52,21.35,21.35,0,0,0,10.72-2.39,18.41,18.41,0,0,0,6.53-6,27.86,27.86,0,0,0,3.46-7.51,46.68,46.68,0,0,0,1.45-6.78Z" transform="translate(-62.82 -380.53)"/><path d="M1511.29,644.65A18.74,18.74,0,0,0,1530,663.33v9.53h-75.48v-9.53a18.76,18.76,0,0,0,18.69-18.68V543.51q0-13.54-5.86-18a20.9,20.9,0,0,0-12.83-4.4v-9.53a80,80,0,0,0,18.87-2,64.91,64.91,0,0,0,13.38-4.58,42.22,42.22,0,0,0,10.62-7h13.93Zm-17.59-173a24.55,24.55,0,1,1,0-49.1,23.08,23.08,0,0,1,17.22,7.15,25.24,25.24,0,0,1,0,34.81A23.1,23.1,0,0,1,1493.7,471.69Z" transform="translate(-62.82 -380.53)"/><path d="M1601.42,497.71v26.75a41.69,41.69,0,0,1,3.85-9,37.49,37.49,0,0,1,7.51-9.34,39.12,39.12,0,0,1,11.91-7.33,44.66,44.66,0,0,1,17-2.93q13.92,0,22.35,5.87a40.25,40.25,0,0,1,12.83,14.14,52.36,52.36,0,0,1,5.68,17.08,106,106,0,0,1,1.28,14.69l.37.36V644.6a18.35,18.35,0,0,0,5.31,13.23,17.8,17.8,0,0,0,13.37,5.5v9.53h-75.48v-9.53a18.76,18.76,0,0,0,18.69-18.68V552.31a93,93,0,0,0-.74-9.71,51.77,51.77,0,0,0-3.11-12.65,34,34,0,0,0-6.78-11q-4.39-4.76-11.73-4.76a13.31,13.31,0,0,0-10.26,4.39,36.18,36.18,0,0,0-6.59,10.45,67,67,0,0,0-3.85,11.91q-1.29,5.87-1.65,8.79v94.91a18.76,18.76,0,0,0,18.69,18.68v9.53h-75.48v-9.53a18.74,18.74,0,0,0,18.68-18.68V543.51q0-13.54-5.86-18a20.88,20.88,0,0,0-12.82-4.4v-9.53a77.35,77.35,0,0,0,18.87-2.07,73.78,73.78,0,0,0,13.74-4.7,34.82,34.82,0,0,0,10.62-7.15Z" transform="translate(-62.82 -380.53)"/><path d="M1760.08,676.52a42.56,42.56,0,0,1-15.39-2.56,39.5,39.5,0,0,1-11.36-6.6,32.89,32.89,0,0,1-7.69-9.34,47.36,47.36,0,0,1-4.4-10.81q-4-12.83-3.3-29.68V557.8q0-4.39.55-14.47a65.16,65.16,0,0,1,4.58-20.34,48.47,48.47,0,0,1,12.64-18.14q8.61-7.87,24.37-7.88a105.64,105.64,0,0,1,13.37.74,87.72,87.72,0,0,1,10.63,2q5,1.29,9.89,2.75a102.64,102.64,0,0,0,11.18,2.57q4.75,1.09,12.83,2.19h.73q8.05,1.11,18,2t20.52.92v9.52a18.76,18.76,0,0,0-18.68,18.69v144l-.74.73q-1.46,17.22-6.39,29a65.58,65.58,0,0,1-11.88,19.23,48.11,48.11,0,0,1-15.36,11.36A68,68,0,0,1,1787,748q-20.1,3.66-45.33-3.3V733q15.33,4.41,27.74.37a37.11,37.11,0,0,0,10.58-5.68,40.68,40.68,0,0,0,9.49-10.63,63.23,63.23,0,0,0,7.3-17,113.39,113.39,0,0,0,3.66-24.92V647.94a41.69,41.69,0,0,1-3.85,9,37.71,37.71,0,0,1-7.51,9.34,39.25,39.25,0,0,1-11.91,7.33A44.66,44.66,0,0,1,1760.08,676.52Zm18.15-165.62a14.5,14.5,0,0,0-13.26,7.69,53.17,53.17,0,0,0-6.36,17.23,145.84,145.84,0,0,0-2.56,24.55v57.16a102.39,102.39,0,0,0,2.56,20.52A38.24,38.24,0,0,0,1765,652q4.53,6.24,13.26,6.23a13.32,13.32,0,0,0,10-4.39,36,36,0,0,0,6.72-10.08,59.09,59.09,0,0,0,3.81-11.54q1.27-5.87,1.64-8.8V533.25a45.8,45.8,0,0,0-1.46-6.78,25.39,25.39,0,0,0-3.45-7.33,19.36,19.36,0,0,0-6.54-5.86A21.39,21.39,0,0,0,1778.23,510.9Z" transform="translate(-62.82 -380.53)"/><image width="438" height="570" transform="scale(0.61)" xlink:href="../Downloads/noun_vending_machine_51068-removebg-preview.png"/></svg>